<mxfile host="app.diagrams.net" modified="2021-04-24T11:14:42.086Z" agent="5.0 (Windows NT 10.0; Win64; x64) AppleWebKit/537.36 (KHTML, like Gecko) Chrome/89.0.4389.128 Safari/537.36" etag="BlZIA4-qDvJkcGwTmr8M" version="14.6.0" type="github">
  <diagram id="AUbww8eF25QPus1M5p1-" name="Page-1">
    <mxGraphModel dx="3955" dy="1765" grid="0" gridSize="10" guides="1" tooltips="1" connect="1" arrows="1" fold="1" page="0" pageScale="1" pageWidth="827" pageHeight="1169" math="0" shadow="0">
      <root>
        <mxCell id="0" />
        <mxCell id="1" parent="0" />
        <mxCell id="5pANUjkfFs7lt7HWfWe9-335" value="" style="rounded=0;whiteSpace=wrap;html=1;strokeColor=#000000;strokeWidth=2;fontSize=22;fontColor=#000000;" parent="1" vertex="1">
          <mxGeometry x="-65" y="1620" width="268" height="494" as="geometry" />
        </mxCell>
        <mxCell id="5pANUjkfFs7lt7HWfWe9-1" value="FIFO系统&lt;br&gt;服务曲线β&lt;sub&gt;R,T&lt;/sub&gt;" style="rounded=0;whiteSpace=wrap;html=1;strokeWidth=2;" parent="1" vertex="1">
          <mxGeometry x="350" y="330" width="120" height="60" as="geometry" />
        </mxCell>
        <mxCell id="5pANUjkfFs7lt7HWfWe9-2" value="" style="endArrow=classic;html=1;entryX=0;entryY=0.5;entryDx=0;entryDy=0;" parent="1" target="5pANUjkfFs7lt7HWfWe9-1" edge="1">
          <mxGeometry width="50" height="50" relative="1" as="geometry">
            <mxPoint x="240" y="360" as="sourcePoint" />
            <mxPoint x="440" y="330" as="targetPoint" />
          </mxGeometry>
        </mxCell>
        <mxCell id="5pANUjkfFs7lt7HWfWe9-3" value="" style="endArrow=classic;html=1;entryX=0;entryY=0.5;entryDx=0;entryDy=0;" parent="1" edge="1">
          <mxGeometry width="50" height="50" relative="1" as="geometry">
            <mxPoint x="470" y="359.86" as="sourcePoint" />
            <mxPoint x="580" y="359.86" as="targetPoint" />
          </mxGeometry>
        </mxCell>
        <mxCell id="5pANUjkfFs7lt7HWfWe9-4" value="" style="endArrow=classic;html=1;dashed=1;dashPattern=1 4;" parent="1" edge="1">
          <mxGeometry width="50" height="50" relative="1" as="geometry">
            <mxPoint x="285" y="443" as="sourcePoint" />
            <mxPoint x="340" y="384" as="targetPoint" />
          </mxGeometry>
        </mxCell>
        <mxCell id="5pANUjkfFs7lt7HWfWe9-5" value="" style="endArrow=classic;html=1;dashed=1;dashPattern=1 2;" parent="1" edge="1">
          <mxGeometry width="50" height="50" relative="1" as="geometry">
            <mxPoint x="271" y="399" as="sourcePoint" />
            <mxPoint x="331" y="375" as="targetPoint" />
          </mxGeometry>
        </mxCell>
        <mxCell id="5pANUjkfFs7lt7HWfWe9-6" value="" style="endArrow=classic;html=1;dashed=1;" parent="1" edge="1">
          <mxGeometry width="50" height="50" relative="1" as="geometry">
            <mxPoint x="269" y="324" as="sourcePoint" />
            <mxPoint x="335" y="347" as="targetPoint" />
          </mxGeometry>
        </mxCell>
        <mxCell id="5pANUjkfFs7lt7HWfWe9-7" value="" style="endArrow=classic;html=1;" parent="1" edge="1">
          <mxGeometry width="50" height="50" relative="1" as="geometry">
            <mxPoint x="311" y="307" as="sourcePoint" />
            <mxPoint x="342" y="338" as="targetPoint" />
          </mxGeometry>
        </mxCell>
        <mxCell id="5pANUjkfFs7lt7HWfWe9-8" value="" style="rounded=0;whiteSpace=wrap;html=1;strokeWidth=1;" parent="1" vertex="1">
          <mxGeometry x="478" y="341" width="11" height="15" as="geometry" />
        </mxCell>
        <mxCell id="5pANUjkfFs7lt7HWfWe9-9" value="" style="rounded=0;whiteSpace=wrap;html=1;strokeWidth=1;dashed=1;" parent="1" vertex="1">
          <mxGeometry x="499" y="341" width="11" height="15" as="geometry" />
        </mxCell>
        <mxCell id="5pANUjkfFs7lt7HWfWe9-10" value="" style="rounded=0;whiteSpace=wrap;html=1;strokeWidth=1;dashed=1;dashPattern=1 1;" parent="1" vertex="1">
          <mxGeometry x="520" y="341" width="11" height="15" as="geometry" />
        </mxCell>
        <mxCell id="5pANUjkfFs7lt7HWfWe9-11" value="" style="rounded=0;whiteSpace=wrap;html=1;strokeWidth=1;dashed=1;dashPattern=1 2;" parent="1" vertex="1">
          <mxGeometry x="541" y="341" width="11" height="15" as="geometry" />
        </mxCell>
        <mxCell id="5pANUjkfFs7lt7HWfWe9-12" value="输入流f&lt;br&gt;漏桶限制速率为r&lt;sub&gt;f&lt;br&gt;&lt;/sub&gt;&lt;span style=&quot;font-size: 10px&quot;&gt;突发流量大小为&lt;/span&gt;&lt;span style=&quot;font-size: 10px ; font-family: &amp;#34;helvetica&amp;#34;&quot;&gt;b&lt;/span&gt;&lt;sub style=&quot;font-family: &amp;#34;helvetica&amp;#34;&quot;&gt;f&lt;/sub&gt;&lt;sub&gt;&amp;nbsp;&lt;/sub&gt;" style="text;html=1;strokeColor=none;fillColor=none;align=center;verticalAlign=middle;whiteSpace=wrap;rounded=0;" parent="1" vertex="1">
          <mxGeometry x="194" y="269" width="129" height="52" as="geometry" />
        </mxCell>
        <mxCell id="5pANUjkfFs7lt7HWfWe9-14" value="输出流f&lt;br&gt;漏桶限制速率为r&lt;sub&gt;f&lt;br&gt;&lt;/sub&gt;&lt;span style=&quot;font-size: 10px&quot;&gt;突发流量大小为&lt;/span&gt;&lt;span style=&quot;font-size: 10px ; font-family: &amp;#34;helvetica&amp;#34;&quot;&gt;b*&lt;/span&gt;&lt;sub style=&quot;font-family: &amp;#34;helvetica&amp;#34;&quot;&gt;f&lt;/sub&gt;&lt;sup style=&quot;font-family: &amp;#34;helvetica&amp;#34;&quot;&gt;&amp;nbsp;&lt;/sup&gt;" style="text;html=1;strokeColor=none;fillColor=none;align=center;verticalAlign=middle;whiteSpace=wrap;rounded=0;" parent="1" vertex="1">
          <mxGeometry x="499" y="272" width="129" height="52" as="geometry" />
        </mxCell>
        <mxCell id="5pANUjkfFs7lt7HWfWe9-16" value="FIFO系统&lt;br style=&quot;font-size: 15px;&quot;&gt;处理速率为R" style="rounded=0;whiteSpace=wrap;html=1;strokeWidth=2;fontSize=15;" parent="1" vertex="1">
          <mxGeometry x="978" y="330" width="120" height="60" as="geometry" />
        </mxCell>
        <mxCell id="5pANUjkfFs7lt7HWfWe9-17" value="" style="endArrow=classic;html=1;entryX=0;entryY=0.5;entryDx=0;entryDy=0;fontSize=15;" parent="1" target="5pANUjkfFs7lt7HWfWe9-16" edge="1">
          <mxGeometry width="50" height="50" relative="1" as="geometry">
            <mxPoint x="868" y="360" as="sourcePoint" />
            <mxPoint x="1068" y="330" as="targetPoint" />
          </mxGeometry>
        </mxCell>
        <mxCell id="5pANUjkfFs7lt7HWfWe9-18" value="" style="endArrow=classic;html=1;fontSize=15;strokeWidth=1;" parent="1" edge="1">
          <mxGeometry width="50" height="50" relative="1" as="geometry">
            <mxPoint x="1098" y="359.86" as="sourcePoint" />
            <mxPoint x="1193" y="360" as="targetPoint" />
          </mxGeometry>
        </mxCell>
        <mxCell id="5pANUjkfFs7lt7HWfWe9-19" value="" style="endArrow=classic;html=1;fontSize=15;dashed=1;dashPattern=1 4;" parent="1" edge="1">
          <mxGeometry width="50" height="50" relative="1" as="geometry">
            <mxPoint x="913" y="443" as="sourcePoint" />
            <mxPoint x="968.0000000000001" y="384" as="targetPoint" />
          </mxGeometry>
        </mxCell>
        <mxCell id="5pANUjkfFs7lt7HWfWe9-20" value="" style="endArrow=classic;html=1;fontSize=15;dashed=1;dashPattern=1 2;" parent="1" edge="1">
          <mxGeometry width="50" height="50" relative="1" as="geometry">
            <mxPoint x="899" y="399" as="sourcePoint" />
            <mxPoint x="959" y="375" as="targetPoint" />
          </mxGeometry>
        </mxCell>
        <mxCell id="5pANUjkfFs7lt7HWfWe9-21" value="" style="endArrow=classic;html=1;fontSize=15;dashed=1;" parent="1" edge="1">
          <mxGeometry width="50" height="50" relative="1" as="geometry">
            <mxPoint x="897" y="324" as="sourcePoint" />
            <mxPoint x="963.0000000000001" y="347" as="targetPoint" />
          </mxGeometry>
        </mxCell>
        <mxCell id="5pANUjkfFs7lt7HWfWe9-22" value="" style="endArrow=classic;html=1;fontSize=15;" parent="1" edge="1">
          <mxGeometry width="50" height="50" relative="1" as="geometry">
            <mxPoint x="921" y="289" as="sourcePoint" />
            <mxPoint x="970" y="338" as="targetPoint" />
          </mxGeometry>
        </mxCell>
        <mxCell id="5pANUjkfFs7lt7HWfWe9-23" value="" style="rounded=0;whiteSpace=wrap;html=1;strokeWidth=1;fontSize=15;" parent="1" vertex="1">
          <mxGeometry x="1106" y="341" width="11" height="15" as="geometry" />
        </mxCell>
        <mxCell id="5pANUjkfFs7lt7HWfWe9-24" value="" style="rounded=0;whiteSpace=wrap;html=1;strokeWidth=1;fontSize=15;dashed=1;" parent="1" vertex="1">
          <mxGeometry x="1127" y="341" width="11" height="15" as="geometry" />
        </mxCell>
        <mxCell id="5pANUjkfFs7lt7HWfWe9-25" value="" style="rounded=0;whiteSpace=wrap;html=1;strokeWidth=1;fontSize=15;dashed=1;dashPattern=1 1;" parent="1" vertex="1">
          <mxGeometry x="1148" y="341" width="11" height="15" as="geometry" />
        </mxCell>
        <mxCell id="5pANUjkfFs7lt7HWfWe9-26" value="" style="rounded=0;whiteSpace=wrap;html=1;strokeWidth=1;fontSize=15;dashed=1;dashPattern=1 4;" parent="1" vertex="1">
          <mxGeometry x="1169" y="341" width="11" height="15" as="geometry" />
        </mxCell>
        <mxCell id="5pANUjkfFs7lt7HWfWe9-29" value="交织整形器" style="rounded=0;whiteSpace=wrap;html=1;strokeWidth=2;fontSize=15;" parent="1" vertex="1">
          <mxGeometry x="1194" y="330" width="120" height="60" as="geometry" />
        </mxCell>
        <mxCell id="5pANUjkfFs7lt7HWfWe9-30" value="" style="endArrow=classic;html=1;fontSize=15;" parent="1" edge="1">
          <mxGeometry width="50" height="50" relative="1" as="geometry">
            <mxPoint x="1314" y="359.86" as="sourcePoint" />
            <mxPoint x="1409" y="360" as="targetPoint" />
          </mxGeometry>
        </mxCell>
        <mxCell id="5pANUjkfFs7lt7HWfWe9-31" value="" style="rounded=0;whiteSpace=wrap;html=1;strokeWidth=1;fontSize=15;" parent="1" vertex="1">
          <mxGeometry x="1322" y="341" width="11" height="15" as="geometry" />
        </mxCell>
        <mxCell id="5pANUjkfFs7lt7HWfWe9-32" value="" style="rounded=0;whiteSpace=wrap;html=1;strokeWidth=1;fontSize=15;dashed=1;" parent="1" vertex="1">
          <mxGeometry x="1343" y="341" width="11" height="15" as="geometry" />
        </mxCell>
        <mxCell id="5pANUjkfFs7lt7HWfWe9-33" value="" style="rounded=0;whiteSpace=wrap;html=1;strokeWidth=1;fontSize=15;dashed=1;dashPattern=1 1;" parent="1" vertex="1">
          <mxGeometry x="1364" y="341" width="11" height="15" as="geometry" />
        </mxCell>
        <mxCell id="5pANUjkfFs7lt7HWfWe9-34" value="" style="rounded=0;whiteSpace=wrap;html=1;strokeWidth=1;fontSize=15;dashed=1;dashPattern=1 4;" parent="1" vertex="1">
          <mxGeometry x="1385" y="341" width="11" height="15" as="geometry" />
        </mxCell>
        <mxCell id="5pANUjkfFs7lt7HWfWe9-35" value="" style="endArrow=none;html=1;strokeColor=#3399FF;fontSize=15;" parent="1" edge="1">
          <mxGeometry width="50" height="50" relative="1" as="geometry">
            <mxPoint x="952" y="431" as="sourcePoint" />
            <mxPoint x="952" y="277" as="targetPoint" />
          </mxGeometry>
        </mxCell>
        <mxCell id="5pANUjkfFs7lt7HWfWe9-36" value="" style="endArrow=none;html=1;fontSize=15;" parent="1" edge="1">
          <mxGeometry width="50" height="50" relative="1" as="geometry">
            <mxPoint x="1183" y="431" as="sourcePoint" />
            <mxPoint x="1183" y="277" as="targetPoint" />
          </mxGeometry>
        </mxCell>
        <mxCell id="5pANUjkfFs7lt7HWfWe9-37" value="" style="endArrow=none;html=1;fontSize=15;" parent="1" edge="1">
          <mxGeometry width="50" height="50" relative="1" as="geometry">
            <mxPoint x="1322" y="432" as="sourcePoint" />
            <mxPoint x="1322" y="278" as="targetPoint" />
          </mxGeometry>
        </mxCell>
        <mxCell id="5pANUjkfFs7lt7HWfWe9-38" value="&lt;sub style=&quot;font-size: 15px;&quot;&gt;An&lt;/sub&gt;" style="text;html=1;strokeColor=none;fillColor=none;align=center;verticalAlign=middle;whiteSpace=wrap;rounded=0;fontSize=15;" parent="1" vertex="1">
          <mxGeometry x="949" y="409" width="40" height="20" as="geometry" />
        </mxCell>
        <mxCell id="5pANUjkfFs7lt7HWfWe9-39" value="&lt;sub style=&quot;font-size: 15px;&quot;&gt;Dn&lt;/sub&gt;" style="text;html=1;strokeColor=none;fillColor=none;align=center;verticalAlign=middle;whiteSpace=wrap;rounded=0;fontSize=15;" parent="1" vertex="1">
          <mxGeometry x="1152" y="409" width="40" height="20" as="geometry" />
        </mxCell>
        <mxCell id="5pANUjkfFs7lt7HWfWe9-40" value="&lt;sub style=&quot;font-size: 15px;&quot;&gt;En&lt;/sub&gt;" style="text;html=1;strokeColor=none;fillColor=none;align=center;verticalAlign=middle;whiteSpace=wrap;rounded=0;fontSize=15;" parent="1" vertex="1">
          <mxGeometry x="1293" y="409" width="40" height="20" as="geometry" />
        </mxCell>
        <mxCell id="5pANUjkfFs7lt7HWfWe9-41" value="" style="shape=image;verticalLabelPosition=bottom;labelBackgroundColor=#ffffff;verticalAlign=top;aspect=fixed;imageAspect=0;image=data:image/png,iVBORw0KGgoAAAANSUhEUgAAA0UAAABwCAYAAADR2Ns2AAAgAElEQVR4AezdBZRcVdIH8A4QdyEJBIIFhwSCE2Bx18UWWWDxxfkWd18WdwgEl8WWBYIuLO4QCC7BLSRBgoQISeo7v969bDPpnukeSWYm757zTs+0vHdvvXur6v+vuvVykbVMApkEMglkEsgkkEkgk0AmgUwCmQQyCczEEsjNxGPPhp5JIJNAJoFMApkEMglkEsgkkEkgk0AmgchAUTYJMglkEsgkkEkgk0AmgUwCmQQyCWQSmKklkIGimfr2Z4PPJJBJIJNAJoFMApkEMglkEsgkkEkgA0XZHMgkkEkgk0AmgUwCmQQyCWQSyCSQSWCmlkAGimbq258NPpNAJoFMApkEMglkEsgkkEkgk0AmgQwUZXMgk0AmgUwCmQQyCWQSyCSQSSCTQCaBmVoCGSiaqW9/NvhMApkEMglkEsgkkEkgk0AmgUwCmQQyUJTNgUwCmQQyCWQSyCSQSSCTQCaBTAKZBGZqCWSgaKa+/dngMwlkEsgkkEkgk0AmgUwCmQQyCWQSyEBRNgcyCWQSyCSQSSCTQCaBTAKZBDIJZBKYqSWQgaKZ4Pa//PLL8Ze//CWWXnrpaN26deRyuZh//vnjhBNOiGeffTbGjx9fsRQmT54cr732Wtx7773x4IMPxsMPP1zj8e9//zseffTR/PHEE0+Efn388cfxyy+/VHz97AeZBKpKYMyYMfH888/HRRddFIcddlj+uPjii+PFF1+Mr7/+uurXm8T/EydOjEceeST+7//+LxZaaKH82rV+l1lmmTj//PPjzTffbBLjyDqZSaApSOCzzz6La6+9NrbddtuYd955f11viy22WJx33nnxxhtvBNtXXWNPP//883jppZfigQceKNs+lmNDq37noYceCsdzzz0XH3zwQfzwww/VdS37bCaSwLfffhtXXnllHH744XH00UfHqaeemv//9ddfbzJSGD58eBxwwAGx6KKL/roW55lnnthhhx3i6quvjq+++qrex5KBonoXaeM5IbDx0UcfxVVXXRVbbLFFmEydO3eO/v37x2677Ra33HJLjBgxIiZNmlRxpzlrFPQ555wTJ554Yhx33HF5kOXvdABdxxxzTBx55JFx1FFH5Q//H3vssXH88cfH6aefHpdeemnceuutvyr2t956K7788staAbWKB5H9oFlJgBNy4YUXxt577x2bb755bLbZZnHooYfmHRNOSlNs1rA1wVHbZZddYokllogOHTpE37598//feOON+fUyZcqUpji8rM+ZBBqFBJAmyBO2cq+99oqVVlopT0JwxlZfffU46KCD8gQg0FTTWvvxxx/j7bffjjvuuCNv49jBdBTaRjaTPUy2saZXjq3vs53pPM7huOaaa+KVV14JjnDWMgkAxwhC9o8d3GqrrfL2wvx56qmnmoyAkObm9n777RdrrbVWLLzwwnlCf7XVVot99tknbxeR62PHjq23MWWgqN5E2fhO9Mknn8QZZ5wR6667bsw+++z5KNGCCy6Yf4+j9f3338fUqVNr1fGffvopzzoAWyaq888xxxz5Y8455wyH/3v06BFdunSJrl27/np069Ytunfv/utv5p577ryzt8kmm+TZ/b///e/xzjvv1Kpf2Y9mTglwVAAiERRzD/hv3759rLrqqnngbb435cbIiepi+xJrBhxZM7fffnuemW7K48v6nklgRkmAHRw6dGjsu+++0a9fv2jTpk1ef6y88sp5ll2kdvTo0fHzzz/XCIiM4ZtvvgmZEIDQ7373u1hggQWiV69e0bt377xuop/83bNnz7wdLLSN1f3NbrKnhefxP1u6/fbb58mfUaNGzSgxZtdtJBIQyWQrTjrppBgwYEC0a9cu73shxddcc808Gd5IulpjN9h16w4ZYR3KeGLjrR1rhT+LxAD0rOP6aBkoqg8pNrJzmEiUo0jQBhtsEJRpixYt8hEiaUUvvPBCnXs8YcKEfMhepOj3v/993pik1LxZZpklH+ps2bJlLLvssrH11lvHlltumWfvN91001h//fUD0ufcmdjSgRyAle9jNbBfnD2RrNoCtzoPMjtBk5CAdBUpAXvuuWd06tQpZptttkhzcMkll8yztdikpt4Yh2eeeSb+/Oc/542BNcPZ2m677eK2226rN6PQ1OWU9T+TQLkSYF9uuummfOYEcs+aAlrYLLaNsyXyU0lDGL733ntx3333xSmnnBIrrrjir/oo2TqEjRT2QYMG5bM42EcEY7GDfRX5Xm+99fL2EeGTzpNe2UyRLtfO2swtAXPgggsuyEc4+X7myKyzzhodO3bMgySRl6bQqvp9QI/1eNZZZ+XJQNkSbP18882XB0Zs4MiRI8siLqobfwaKqpNOE/3su+++y4fupchhlSwK0RooW070uHHj6m1kwpbS36T2MCYmqcXXqlWrmGuuueLMM8/MpxLYf0RpYzDkQDNEQrkbb7xxnkljJDDfDsyGcwFO9oeY6DXlcdfbgLITNTkJSFVJRgAwx/SaQ+biUkstlWfMpBI0h8ZB42xJJ7C+rG1rZ4899siTFPXFljUHWWVjyCRQnQSkmokuIw4xzxxHURdr6fHHH89HfKr7fTmfITLs6eCcWqf0Eh0FgLGZ9nwgbNjHYcOGFT2kxUkN/te//hXnnnturLDCCoFwdD6v+k0fiFBlLZPA+++/H3/84x/zc818M08cfMDFF188P+easpTYQIT5rrvuGrKM2EA2H3lw11135f3FuowvA0V1kV4j/S0n0b4KTBRwIo0N02QiifDUZ7PngbLef//9806aiBRgwwhQ3vKqNfuWTGZOm/xtqX2MgUINDIMIlkIQbdu2zbNqlD0WfJ111smzbdmG8vq8a83rXBRhcmzMP05HchhEiuxpe/LJJ5vNoDlz//jHP2KNNdbIrzXgz14jxRiaQ0Ss2dyobCCNVgLsz80335y3i1LQOFbspTWkOAJisb7aySefnLfByELOm/UqI8KeWgUSkJT26GL4ix2Alfel0AJI0oX0VcSIrgPkZFbUZm9wfY0xO0/jkIAI5WWXXZb3vcxpflQCRvwy82bw4MGNo7N16IVMqLvvvjv+9Kc/5bOUjJW/KGLKz60LOZiBojrcmMb2U2lzAIdJgSE3UYAiG9Quv/zywCDUdwN0ABv52H369PmVubb4pCCU64xKYxDJUgSCkUpsv4XM4RPyrU2VvPoeb3a+xiMB812uvxQVjgHlb+5wFvzNIKgaZZO0yofNqSmgYhOt/Gopg9a5dNTrrrsuq+bYnG50NpZ6lwA7Irthxx13/A2R53/Rmvq0MzIc7C1iG4EiIEZqL0JDuk+lBWD0TfYEmy7dPNlHlSizNnNLQLqZOSUFk/9lbrCFjgTIEeSio82hIQmQ7iJGKSPKmKWXS7OrbfGFDBQ1h9nx3zGI2tx55535SZJSa0wSzBLQ0RApaBC5vUs777xzng0DxLD0nDWsG2arnCaC9eqrr+bT7YR4E9uPVePoSgW0GbapllYuRwbZdyqTgLTKG264IZ+CCURjX5XSVboaSACKpKmY//fff39lJ2/k30ZGAHoiwkCRdcdJOvDAA/OpP3Vhyhr50LPuZRKotQSACqlqKlcBKgCK1Dl7elR4rK0jVapDojeyIDilsiDYNWt1ww03zFcHqxSAiSiJErO3HEG20bnowazNvBIAiNhDFQqllNlno8gCm5j2bsuiYCvslWsuTURXBVZ784zNGmP/pcCW63tWlUUGiqpKpAn/L63GouAIYgdMEkz52Wef3WCjck1ltRVQEL6k8LH0a6+9dv65DsK5lTTpPwwUg6X/QBFgJ7Xu4IMPzu9PquR82XebrwSknsjLV91JpEihBSwqBcnZMXdUk9ppp53yucbNSRKMIAfukksu+XVvEcdLtSsV6kSSspZJIJPAbyWgqqk1I7WbrXIsv/zy+UyKSm3Vb89c/D9OGwBGFyFqkDec02222aZWaxSIsidX9BsoYicRI1L+sjbzSkA6GdIYQDbX2AH2kC9lfrOP5jrQIG2zOTXbRVLWBELeOAEjJAdyUEZJJS0DRZVIqxF/VxRIEQUpa5SvzZfKFVoYNmY3VJO+JD2AkbHwKHwLj9L/5z//mX+GSiXXVnoRk6FCncp0FjhnDzBaZZVV8qVOKzlf9t3mJwFKTuhcSiUCAHiWLgqcS9dkGChGcwdjZi5KKW2Ozdr2HBWMsTViDW600Ub5NKDmON5sTJkE6iIBj3uQuiY6xE6JripnzXbWd5O5AYQhZdhjkWtOG3vGLtdm35KMCg9Al4Vh3y79hgRRiCFrM68Enn766fw8Q0ybY3wye25ETESMUhU6c166ubnZXJr9dop4SZtLkVhpgsgCQJGvUEnLQFEl0mrE37VxlMLHknMIHYCKIgYNsZcoicKDVk0+NfBVNwGKsGFSluRnS/OppEH26tGrpmMhY/wZEeORJ2uMNqZWLddYyTWy7zZtCVCC5oh5R8mbe+aLilFKc4taJlCkbKdn+ah22BybFAFFThi+xJKJDiMkpNpk66Q53vVsTJVKwDr46quv8g8ORyCwKwgEFU49y68h0k1Vg6OnVMUCipA0bCQgo/hLbarASsfzzLXrr78+v8n8gAMOyKcGIxOzNnNKgD20Z1yaHGJMcSGA6MMPP8ynU9uOkB59wl56+G+lflljlyxbJ0vE2kI+yJSyheOII47IF/WqpP8ZKKpEWo34uyrACdMvssgieYXPKfTQVulolYYPKxmmJw57YjIgZEECRdC6MqSiSJU2Sp+C/9vf/pZnv40DKHJezq/QL1avvqvoVdrP7PszTgLmh6IcQuQUoI2lDz/8cH7TsmdwpUiRz6SXSOVsKs9mqFSqn376ab64AiAobdV6sU6wx8OHD6/XTeOV9i37fiaBxiIBgIij+Ic//OFX8sC+W3bKg1ZVeKvv9sEHH+T1jgqqdBFghMkHxM4777xaXRO4YyM5wkCX9HV9b4j9wvUtj+x89S8B0UaRQyR04cNMRSjNDxHFtKeIbQCKjjrqqLxv1twIM/uGZYUgz43TmvOwWo+BqaTVKyiS7yq30aZ+JZRtaMRkOhhozuy7774bHGnfg1ZLhfE4vRb8mDFjfj1ssnek97A7FER1NxeCrMt5nNs55O+LinDIHCIzkLixOvytX8UAiLFQyiaqYgIOjLYc5vra2Ikp8JA4aQFACVbKBPniiy8qmQ8Vf9e9lY5gwXHKpO5ZnMBLqXtb00XIEBNmcjsfUITZ4+DaV8QBZhSyNnNJwFq0luTUm3PYoHnnnTdfjpY+sU49j0jqpflIKcq7l3Z5xRVXNEth0R8q7ajAg5gwbmOWsqPkcH3pl2YpvOk8KPaK7WAD6X92INlGf7OZovq+w85xdovZtrQO2Bt2xWuhbfQ3h0jaSDF7lIadzuP7NZ2nlNPtHHSxPtjorZoaoM7Gs4lsHPvIdupPsfPwA+yB4x/wE8jCPgE2tr70PHlzBu2vSOtEVVObtMmqWL+SnGr7ipA86aST8hkb7BgbZhM8YCZyXWmRhdr2I/td85WA9WUfuUwBfh9yTCEOcwtgOuSQQ/L7ygsjRfbfWFu19c8aqzTpVdEi6eT8X7ZQkECJcnq13PHWGyii8Cg15ZnVQbe5n2NMKchv9Op/5QA5vHLhsbrYlGI5fxS1PNnHHnss7wRxhDjDDlGRBx98MB8FAXiqGyyFJ42ruvP4vNR5KEuTi8HSZ3sTlPOkTK+++uq8wAld9Rcbv4G0wuZ/Cl5uI3aIHDy34K9//Wt+w6dc0LoqZYaJjE38BCLkSmMPyLEhmmtyuMgEGDMBoXP7O+xlIpO6NKifAZNuIAKFZZMnquqOaneZs1cX6TbN3wI9dIKcaGDIHLeRlBFIzeeeWWQ+Wgu+I4x+8cUXp680q1f6hQ5FFiRnT3rQyiuvnNcztYnWNisBNYLBsCFAA8aS7jIXRcJF80488cT8YU57Ujvbyb6oLIhUBDSqRjEAHfcVGKYnk130muwk9tjvq/62UBzOo19skPOk31Y9D5BSKtXL2ACaZ5555lf7CIyz8VdddVXeSWELnJtjUhUIAD38AJFcaWzsGPvoIaVsKttc1aYWjqHcv11fxAZhwJ4g2pS1bsiHOkud23333fNMfdrroPCLKDcZ02dZyyRQFwnwhW2TQADS+/xLvqyG6ACAPOYk7SlCXKtQiqCvuhbr0o/G8Fvjoas8uJa/yAeQNeFZRvz2csdbJ1BEUXL4KcBjjjkmXwkKS+sm2dsidCVU7H83xmZo/3NaPGQJYyIfnkJ2IwvZGgiYMvX8G+lZ8nJ9X8ldjpCHkQIWbm51ip/DYF+NPQf2Fvid8zj0wbkZJHm6xc5DcUHV6qGnvkhLW2+99fLjMEbpOkpGY3/SGDjtFB8gSDH6DkdFiUQggnyk9djkKe9RH4Gq2qSFMZByiy0MaWYWgDxSDEJDgQfjxACKUKVnInHK5pxzzjyLz/jXpTEohUYspR64X+YFIJm1mUsCGGXP46BDAB7smAgQRjo1zHtKn/OdtBY4Wc210cOcybSnSATNXiqbuTH006shSrL2PwnQy8AJ9lK1MPaGvWAH6H/RTq9AOx3KNvgc28vO2SR97LHH5gm9/5018tEfkQ97A3yPTZNC6m/ZAdttt13eFpvzIqilGlDE7gFmxc7DRiKhzjzzzJJPiWcfgSrXUglSkQ8HG88XsFatR4DPZujU2Hfgj+1zHePmJ5DBSiutlGd7k1097bTT8qQiW14bIOE3CEyABIOMuJN6yy7zHxqq8RnYeBkOCENOWqoGy3mrjszVJ75AirpxcEsB04bqf3bexisBc9ocsnb5XOycdVdIECJUrC+VewtBkW0W7GR9RWEbk5T4u1IGE5GOFJUpIkhT7vqpNSiCuoS6KXwKzcUZZZ2RN2vxU24AAEAkfxfr7zuc58ScUFCphGyhwhN1AnooVkoFwuX0c3Q4/hQMkEMhF4s0pRslpKaaGQUrtcy1q57HNVStKnYeionT5aGIjBplimXSf4eQuAlnrK5johG+yBQgJnwngkMp+p3DWJIM/J4Ts+qqq+aNnIhUdSkPaVzp1bVMcAYphQzJnzLmQBYbU/ptXV4pdLL3JG05q+4HeagGpi8ieXVpNs0z9pC+OWVs5hhASs4NFQGrS5+z3zasBDhSHCg6xHryt/Vd2DiLjEOaj9aWNEzMfHNu1oT1QT9aL3SM9TO9S3MjS5BL9FJjOujxSvRqXecKGWBxgSH2j743b7G5dJrN0GwGQMSmcGzYx2Tn6Dtz3Nyt+mBO4xARlQkgBczv3HcH8si12CTro7r7D8SyHcg+/UmZBoXn8R4SEgFWrLHZCCx2QORFephxOkey8c5BDmwieyQ9EJmhUipbZczJNpq7xp3G4zO+A/KQDa5uPKX6x35j0PWDXiAvKTbJ7yj2u/p4T6SMbaSDjMO1gV/Fgjis1c1H90ZkDbnogZwicYBR1jIJkACyQ9YVct78klWDmOA/pma+IMYRDakkt3mIbBG1bojiIunaM/LVuk56CL6gb0Vnyw0Q1AoUcfzlywrNQaEUPaGLTshtFwqXRscoiJbcc889+XQz36d8KUDAhJIoBYrcMDdY/X0sE+Ph+0BEJaAIu4wNch7h+eWWWy5/HudI56kOFFFczoGxoZiwZpwuQk8hOmAL6JIWgc0SOWMgACKpZCYs4Og9SpFSTr/VB0YspbwkZrA6hVk44TDBHtjKAWJIyIgR8XRuyreh2AApDSpcud8qfrgv7qn7ZAxSIurSgFRGk1NQCIqAPfNB2kfWZh4JAESikgMHDszrDww79qeqohO5RpZYB5wyc0fapWhwc24izcmx5VQav0gEPT09GwdUX4C0Cy64YIYfHAV9keaLSEmR/IaUSSp+IW2DU2wesnnshoiejAL2iH2U1kV/Ixc5KyJ87h27UAoUcZildAM01gTAgIxKNrVcUEQG1g9yE0gRYXKeZEecpyZQxE5x0JARQA/mms0rBEUAGkeFI8YXIAN2gt0Q7bWW2UbPVjGHE5hiU5zHGkaMsqGePQJQ1BRlSfeXnKQiYsfZXbJNYwJaGiqS6h6Zd/wi9wVQdG0OqsIO5OY7xZrPrCMZEeQiiietsiGjWsX6kb3XeCUgNVZU2Pwyt6SMWYOFmUZAkWiyCGwhKEJaIzKaa7aNR3MU7q+nT/jD5a71WoEiIXdKHCCy0B2UqVQ4ir7UYsduQWxAAnTrd8CAFDMbMwsjRYXTkZGxcZhyoagNksKUUkfRAi3lNAwVJz6dx7kYH06U/OxyoioUE3CF5aOwgRsgRFoXtoyilUoHNJmMDCNDge2zp0gpTqkOnDuKnqI2qZ2HTChNOdXl7gXgBDov5isZE8bGBjvGoNw8ynLkV/gd94qiFrnBcuo/dlM/GFhObF1aKVAkpY4znIGiuki3af2WAyTVhnOAgOA4SgswR6o6R0gJ6Ud0i/XNsbTGrM3m3ORMI3fonaQH6FmpyfRaKZ1c3zJBHIks0H10wYw+ONwMpPtvbtTH/pSaZCZljsNintKJ7A0yjM3E/hdrnHf3yu/oUzYBGECs+V2pRg8CCuyP7yc7ggjgKLGr5TSAEZmJXAPg0nnswRFxKtXvqueWIocgFAFyHuvQmkWUIelEjDj6omNAO6KUPWXDEI78A597IDPfwDkSoMBys6eAVdo3UfX6Vf/nCAHp5mSKFHmVWkreDeUYkqcx00Fk4N7wWQC7msCNYhX2U/Fv0twB7tn6rM3cEgCYFc8SNUW4mFOCEYjiqrYQWYEMlD5mLZmH1tAOO+yQD1qU62M2JYmzc3wFWV32HZOPcdNJyJ9ySLFagSLKzUWSM+zCcoilU1XnhEspkO6CKaI0dZbSc+OExUuBItGOww47LM/4iixRFK5ZKSiSzsGZouhdF6ipFBRhqURIjJ/BcxgLkOQwUQEFpT4VV8D4mMR+5wDMRMCGDBmSj4TIc+bEOExYBgBoAtLKAXtAoY1zjG5SwAyORYJNKCXTuk50jISUBEYbE0gO7snGG2+cT52rK2jBppGDiZ2MPeNqngGYWfpcXe9g0/m9uWTdcvQ4a5xc6Zn0SVVn31ozb+gW64GusM6tx6rfbToSqLmnIvJpU7fxGj8WHnGBoCjHGNR8lZq/IQKSoiP0AgfU64w66FPzwN4YZF5D6UOSMb8AUNEbEW76kO7itHimFlKwusaJsQ/FfSQv9xDBVTV9rvAcbJqovAcXGit7hlyrFBSxsfa0SqVjG9N5KgVFZJyem8VWswvmAABkXUqrl/KDOFPkgN0HXBzsI+CqH+wX4tBYkq0mS/YS6VgTsEgyYn/5G9LTU6SIbJGTnCTyq+/GbrvXolNsepIlPwG5W51tBPZEDhG1+kl+/pZ5Y35kbeaWAD2ukAnyxLqSGoZYsN2gqn0zzxANSAap1fSJ+SgDB4lWbuSkKUmcDNhCPjE7ZO0Ztyi0/VblVGOuGBRBqvb6iHJQwoTM6AhPYbvKaRwabK4wO8V3ySWX5Et5lmLxvC96IhqVFEVtQJG+C+O7rgnFYSK0SiJF0g0w1JAoB805nIvzzoBR2gxLTc8+ULxBVImTT9knObqBUgs4M1X3SxSTrfQLCwSzltJmGB4bSzFOVdmDYueozXuMv+IOxq7/CWBKwWAY63pdi9wcwbY6P1kDRe6V+dJQDF9tZNHcf1NV2U7P8VLsUp9EQax5kRAOYKm9Bdgva9M6sh4SWLf5spR+mZ7jaahrcSTlj9OndJLxMwqi1IiTuq7HcvstU0AGAWcWaTajDwwpZ1hqGqa9IecAkE73uQ8ceffAtTkl9rSV44QABtLrRNjYEunCWOFSzXhEg4B+9tg1awOKgEVrStnq1HfnqRQU2XuUQAhQxC54NQ+AQ7Jgy2V/VNcAFlEl81l/kIZerWcp8KJx5TT3A4hCFBoP+UglArroioYgC9xD4Dbtf0xRNz6TSBzQY5O8qKoDmWyNcub4BPQbPaevxpsKQjQkoC9Hlg39nRlpZyod24zqK6deNBXpYr0jG0ROiwFtxLEUZgQ+38l88htz0BaPmtZgpTJpDN93X6SMiz7THcbMx+dTe6+cdPKKQRFmBTKlpCx2ioqykZZWbkib8hXiohyFmDn2VavPFQpYVEKKHeaTkaMoDLTSSBEDAjnb+EoxpvNUAoqwQBguQMT4ycFE8+omSNMAmgpzOwvHUvi3icyAUoAMByeOQyP6AlhxMGpqolEMDaMDWJkE8rIpZfuyAMGGaBan9AyOqrE7yFNaQrnguLp+MXoWM0OSQBGmTRqEKFu5c626a8zIz2aUUq3NmGdkX4FjDi1GjIOJacVylbr/wDJgbm1aD+akvwH4ctJjayOfxvAbUWGOnmi1MdMDyB+OJRKqIcFA4fgx5O6XiDFwar16nVGHtDJ9ofcb+tkc5h5G3/iRRe6BOUuP2RSNpCqnSVWzH0V2BEPOaS7VOPV0MTBTF1AENDsP+1UXUKTvqsVx1hIocj7EqXROdh8YqWk+Ih+N27p1HnYm9Yt9BBRFTmoCNZwgmRvuh/O4J3wI4KOhGhlIB3Rd9yQBQ4Qu4lTUymfstkNKnRQn/gNyk53jU1nHfssJLidrpKHGM73OOyPtTKVjnBF9BXLocpFWviLfCICWfVSs0Uf2pdGBhaDI3kbR7FLEYrFzNZX33BckkfRTqdPWO/svoKIwjUyGmlrFoMjiFJpyMcCEw+oGAQlC1eU0wIqBkn8sTcwgpN2VcuABjIT8hAENsragiLGBGp2H0nGeSkARNtAG1+R4UVqJkTbZOPOVKDCsYCrckMCFyU5pQvM1NeBHiVfjSaAI6GOcybQhFq/zcn4sNvMAkGOwLDxpTvXBaFn8HLwUiWIUAT+sWQJ8NcmmKXwu9UUqCSXFUDeWw2ZFDsyMrHgkpUc/zGdzG3NufwWGq1TkA1iSKmVNckgSKJLK0pzTTzDiZMPhSnqNgyVtC3FSkxNaX2uFY33XXXfljaUspYoAACAASURBVJI0jxl90K8MJDvD0S5lY+pj/Jx91cJkTXCA6UbOLTAgXYvNK6exMZx5hAD9UB2YMh7zGrlYF1DkPPovspjAh75XGiniAwCgIlxACFvtPDIpkGiV7Iux/jl1WHHrma9Bps4l44OMaiIfFX8ANvTDuNhregSx0lBNFEhk2v5gfWbXyYIsgSIRXFUDRc4cMjtEsuxN1j9jBCL9ls0DMmeWxnfiu9D79oI1FnuIiDUXRfPqw7+pzf1EtptXsmesdemodFupLStsoYwhvjmgbV75nX3ZUnJLVZSsTd8a02+Qn/xwOsiY+ad8auOuLuqexlAxKAJoMBcMryM54nL2pLmUm9bEWS88UoeKvVJ8FG0CM3UBRTYsUla1BUX6gpVV8Uc/CJzyovgh0VIMdrFxeY/Rs6fKniDnowwBAcgWgKupUe6MrshXuhciajaRcoQaAhRhJlzXpANWyAD7xvgoglAfDhjgw6lLgAt4FVHzPCypBhyH5tCMh9FkDLHKjeEwlykThlt6x4xoFJu1gQnjzDgQBQxDdc36w9STo98kPSWCiXxpSKe4un419GecTWmlhaCIM0kWQEp9rMlyxkDfkHFjOxpCD1aVh8i//aaqOwFFdCNnmEMiWlX4nJ6qv636f6FtrK7vPgNm6gqKnAcTbZ+odWP91wYUYZ/ZLWs1RWbIQrRM9KScFMJCWfApRJ0ACg4dmbIDbK15DTgVa8aDOJGqxpYaDzvNTmKQ2ceGaiJcIqMAkGvS7Ww6u0wuPpNap3CMg9Pqf+QscET+QCCSETGIMJtZGsJLqrT7RQ6NwR7qQyIcFClArkzvJiJq/QDU/ERZALZYsGmlCEIZO0ghJI31Q6bGITU3PeNzeo9jel3PnkM615j5V9afCHM5PnXFoIhxVeaPouPAc8Q5rhSACQNNAw01MTiVCKe+QZGc5LqAIs9QMlYKmtPFeFDU0h1KofZS48WsiQiJ9jgfZeiwELGLpZR+Oh82Xw6/m54WLuUrJZFjUp1BTeeo9NX9NblSqo5FiuWyB0glpFKLtNzruN+iJ1gyYCgZaQwJNhzjOr2cvHL7XNvvIRgs3MZ4mNP2xs2IpjiAVB5kAaeCs4/QqI41108pozZ6MwKJqbZGpfcCDjOK5WtoGdp/yHlCThmvdUMnc9BtMJ0e66UhdE1Dy60+z4/lBuQPPvjgX3Ux3cUxZpCtdfn/omn11cgcKLJWkv5njyottOA8QJGU9qRvawuKrFMpPgkUIcyQiDfeeGPZpGmSjwifCBNgw9dga4BMjrOUxFIOKtvnfigKJTKUHEI2BWPMPjZUk/aOqCQ/smTX6SMEjwp/wBxQZi6kQ388j4juUrmR/ad/gSVAe2ZpnPyU9tQYbaLsmPrYHlDJ/Ux6hQ0zLwB7/bCPtLrmd8hle+rog7QG+Jr0BT+2uTbgOmUyAUV0sGhROVHXikERIXJYOcSUEweeMnZQAHJkKUXpVaJKjDEnuS4Gs75BUV0iRZyqQlBESQOIjJ6JVhOIqToJMduUqLxik5bi59RQpFJfajKg0lOkF1HAyShyJNWhb6gmJcFeBZEEgFhfMRdSlCj7mvK8q+uXey0nW/SMMS0ERa4hQuU7dZlP1V1/en9mL4A5RIYWbmM5zEWsVHX7GRpSVhhiOiZFTjmUNl9T9KmZA4WH960nTmnag0S21hPHStorndQcm1QIKR5YwASKpBlhCREnzRUMNqZ7yc5JN2X/ON/mnvXMRtLPQKqoAB2myhpbQVfWRV+a//UZKWooUKSUNnBebiZJuq9S5JCDQEayjZxCxB/dCcgVa2TqMyRdISgCNDDIDWkf3V/6h05PANNalLpTqL+q9tv8AZg4v6JE7J2xA4YzS0N4Aq3sj3XTWOwhx1qfgNRSQLyh7pHnD9lTDyyTh1dproV7iRIBnuyhvujn3Xffnfcj6SP95yMKCiDwpXk216bYSWEVWrqDPykSXlOrFShKkQLON0FzjE1gDgzhu2nK/lnQ2CHCrwtT2RRAkbxgEbRKQZEbZD+AfUVJEZAng8qQ+Kw6hwYTBpxg5QpBkWcUNVTDPihywchj8QEXxR2EZIFhC7S2DQuDNQOwGL9kWExqpZjl2TenxoF33xvjYS1Pb3lb60gHzpnoozktLVMUhEMlbRKwsc6qHuaF9Bx51xwh0VPryHqyB1Aq4PQ2aNNrroqsVQVFHDMRbftcqtMh06uPM8N1OCX0l/lG/nRjAkeAEedYNI/ja58sEqkuVaCaCigyXnajUlBkXssO4CjzMQB+bLnUUEUYAMJiLQFU+1KkYdOvdIl7gkEut3pdsXOXes+9AHqkNaV0pQSKRLpqStnze/0SLeL8SqWTeVNOFdpSfWpq70u/ZOcboz3UJ4B6ekeKrJvVVlstD7AR8OY9UG/um+fF7GGa/0CRol2FoIjfbo4NGzasqU2PsvtrnyUf1T2DSxz0r8BFTa1WoIjjAhgJB3OMITCLn+OaHHoKjAHAjNlnwrkSGsXe+H0lrSmAIqx6bUFRIaolN0CDHLHbQEZ1QEukCCCpGimyIZCSddR3Y2hSCqLJZuL5XxogpqcuoEhkTFoEkJicWoAPwwdoNzd2QxqiKKODsmosh3WtXDymdno2a4EjIL/efTevGUmAW4TSvBZFKnZwKLC0HFK6h/PEibKWzB1EQSlmeXqOsSGuVSx9jgOYRYoaQtrVnxPIkSaFVaa3zGO2MTn19KW5iTzksIgg2G9k7nOqOTTlNvq9OUeKsOGIP0CGrbGe6QROnn2CpYqnkKFUW2RKISii1zhLdEl9N6nz1iFCR3q++5z8Ive6pqg74oKjqny77A/7sGSRFCu3XN99byznQ2ohg90nMmgs9hDxbB4hMadXFVNz2PwX3eALmU+IYoXOACUFKQDtYrYQMeM75hLbJ6srZaMo7qFglVTf5troRJVPySz51HSwas81tVqBIiflqFPkUgWgWEoeI6YTnBAd8R6j4CbIE1UVKu05qqljhZ83d1DEUbP5svAGkiGWV96ofRKlmtQYTHrVPUVKD1pUDQGKFL1IqZPus34rKcrQYPLrck3MoBxYqQOMXzKCUqkUJZBa15waw20dORjExnIoOy9sX126R0PcB2SLtSB9xNyyDjiVQA4jiQBIVZuqvvoMOcFhons4JAgGh2czyN+fkdX0GkJe6Zz2S6nYRBdbM2lPEQeDcaxLpD5do6bXuqz7ms7dlD6XusUoc1o4URwq94OeTJFLUQtznPNnT6g9MlKSVQqsWoygOrn6rDmDIiSZtDtAJoEi+oDs2IlSoMh8R9ApPiKqRPZk7m9OYkNEwEWhES9YeESxa+orcsI1ayKYzBvjZUf5VcAyp3h6rN3Gsr4AQ8CS/UEINxZ7qC9AhLTXuqS7ViJnekDU0V7tFHGk2+2NkZnE/tEtVe1get93zHf7ifhS1k+KQPItZ1QRpUpkUNvvIhIEZKxBfgS5OTzPraZWa1DkxCaHKg+ej4Gd5RgLE7sJhJ+Ms445OCtusPxISqmUQqva6eYOiuyDoDTTDUyRIptTTdzqQBFmvGr1Oc4jg0xu1RnUqnIu539gWC53MlAMDYPPqEv1q2szXvsizB8GBbvhVdSMc8cBaA6tvu9LQ8pkevRVdBFgEW1MFXboESkk9g94D1PnkBpX7ACkfU7PYNTMG7ng1pO0BxuZC/OwG1Jm0/vcxUpyM4jTu/qcVA6REs6DIjKN4dAXtobDNT3mcrr3yC6MLX2p8IC9rOZnKlLEPibbyHCLFrtfyugiB6rT++kaxtOcQZHomX02iJJkc6xrkRgpeaV8iOpAkXM1BCjSF3uYOGP0j3urr+67PZE1lSN3L60fY5ZCbN7OTGmv03NtpvVT29fp0VdVdvnViBP+kAADAhzoYevYwOrsoc/8lj0EiugY5/GeKEpNlVxrK5vG8DugqNCnnm6gyOApH+FEC57TYQOXnGmRhJRP7WZwnikIDIobKjVHucByqrU1d1Akz7oQ1SZQlCJF1YVrVaYRhcOcCQ9SxECRXFIKti6pbFUnt/uAxbHfh7OJ9cRgOKSK1FQZrOr5Cv8HsMnBnOAAmzuJHcH6S59iLCpJLSk8f/Z345aACKOo50477ZTPx+dU0CP77bdfPp0S4+vZCtUdotCimJShOcT5pAytJ6Ad89ocH1jnznKilGylCxIZxShKcRYhm15ss0juxRdfnC+UInVjRh+qDSnaQk8CD9OL5XVP6F46mLOMacb6cuSBH86JKKiD3vY/PWfOevTEIYcckgdUNTlfPp/ZQBEHj38hBagUKErpc2RuHbCLfBARZ1HjhthThAzw/CSkXkp30le6h96yfaCm5n6ao8CQNVvT/a/pfNnnTU8CyRdCjvCVzV26gY9ofx1beMEFF1RrC33PthXpYgoO8A/ZBXpGpElqZkOkkDYWadOJhXuK+ABwSIOmzxUbvNAvBoZzghlxMyBbjK8OYf050jpIqSkX6zkCpRRbukZ9g6K0HyY5D5U8vJWyKlZ9jhNW2z1FVSNFDKW+STe0h6a6Z/JIt7AJ1URPoAiTIA8bWq5PJwDzaU+HCBZQ5H5arIyOzX91yX12j+XHVt0UyEkQCRMRy1rzlYAIDp3BCJhbgD0HQxrom2++mY9IW3fVHZhVKQ4Un7KjDEHSN6picpCkZzbHJs2E82+t0B8MKVkqOiFaMb1AkUgvFtI+MM+X4SB6nVEHkKgvdLOo1fSSQ9U5Rg8jlEQ9ZErYD8NZllmB/DHn033jvEupM4/N/eqIw5kBFPERUqTIemZzPJ6BreD8FGtAERKtaqEFv5Ot0hDV5xACSAigFxiyBr2mLIea/Jxi4yj1XgaWSkmm6b8vGweRJT1UIAGQoUfttRZ8oEeqs4M+k8Gl2qqMIYEKRYvMR+diF+ljvlxzbbJOCqvPiTKTZYMVWiglyLRQGQDKSnjOPhCMrxsBDLkplD5DgLXR8ZrCeM0dFBWiWuAxgSKGE7NdXbSHw4NBAEz81sSnlLEJlHR9OgGcCkZGlM+1RHOkMdjHwNBXWlmocB6RAXYUuMSykQGQhzXlLGNas9Y8JWDfEuY2laXn+HCCKPfCfXHWQXUH6YiqilRwOFWAAtw5nHSQPP36SPFsjHfB86TsXwEm6Vl6wFpSulUaxvSKsNr0C4y5h4zQjD7cewQTx7SmSp4NfV/ZR/OXfaRLVQXk+NDdHP0UMfLqHgJ0GF/AqFRr7qBI9oEIsugOx8Z6RpQh/uwPKFU4hYx9VrUkN+cQS94Q1VndJwSr/pn37KP7al0ia6rL+Ch1f7P3Zz4JiDjKkJAeRxcguvhXHkmRWnV2MPnh/GY+ILtnX1sCReakwh8Ix+ba6A06w5jpDXJs0JLc5QrSxkObC6WtYHWwt24Ig6mTDBam7Kqrrspv6E43s+r5S4EigAozWa6y4RiYIA3xnKK6lOSG/NPTd91ABtErlremvHIbEn0Ps+g3JoHFdMIJJ+SLNJBdfTVRK4yrogcJgIkCeio341NTX0v1w/1jpIAtoBlg5sgYjxRCjEa1gGv8V/HjiCdj2IM3x+3XXBFXXDokhtx0X9w17Kt4ffTUmDzNhb+Lb997Ll596La466YhcdUVg+OyK66Nq+94PO55cWR89O2kaX6RvdFwEkCKHHrooflcZ3NfxSFRj9qUzxbJBdyxwXKpEyiie6RSlV+9cGx8O+K5ePVft8Q/r7s8hgy+KgZfc0/c9fS78c6PU+OHquKYMjp+/nxYvPzwHTH0xivj2ssvi8GXXxtX/f2BuP/lL+LNbyMm1L5SfdWrTfM/ZtE65GDTq/QAOXqmHMPISZweTbUse8A4hXQDYOp1Rh0cVGw98IFlbSx7NNg6zg8yQGoVWybXHyHk/pm3HHgpIPZSlmqlQBG5qzxYTsqWczsPEKHSVUpbJjfnkRptDpXTkHhsrD1U5oB5yBmRNlib5xS5rgIi66677q9EHIIVyaGkuSyLYo3TSH94JAh7qB9si/GIGiMT67spisQ2sl1Jhl7pMsx1bdcgsKWaIT8J8199sZgfI757K9579p548Oar4jp66Krb4tp7Xotn3v02fppm0L/ElNFvxmfDHoiH7rghbrzy8rj8siFx+bV3xc0PvBKvfPFjkHADqq5pejSzvmEN8oWAFZEceoCfzAcCqqXiVtoUa7B+BCDSGhCUoKPNpbJb3r69FC/zma67PK4afHkMvuH+uPnf78fbI8fFNB7TlLEx4ZMX4u0n7oyhf78mrrl8cN4eDvn7Q3H30+/F+z9MLjIXy+5NjV9EOvEBjJkcjZkNkn1SU6tToYWaTp4+F63AVkoHEL4uVBoUJjaTwSqVJsCxV8whgRmgitFQplO6Xrl14/WDIsWm2rMgGoHNmZHpcxaB3M611147fwMBAQtBBKacB00JkwqrYtmTM4QVEMa3r6i61Lt0f8p99RA51aww0Ppowtn8p2rSgw8+WG3p8FLXcE+UKgW2nNf9ALgYE+Nwv0qPYVJMmTg6Rr12Tzw95JA4Zbf1Y5NBS8fAJZaJZdfeJbY+5cG49IkxMWrif1X6lEkR47+Ib9//dzx6xTFx5l4bx7ZrLRsrLt0/lhy4Sqy0+UGx48l3x80vfB4jp8S0C73UILL3ay0Ba1vuMyVNcbnnqjdJpaxNlJPh4EBI4ZJSSk9YU9i2Y489tuaI49RfIiZ8Gd9/+Gg8ftUxceYeG8SWqy0VywxYPvqvvENsc/R1cdkr38Vb/3uGbEweNzp+GPFgvHDrqXH6n38f26+1fKyy9JIxYMCgWHG9XWPnv94dlzwxJj4aW36p5UoFyvlT6EZaciJHpI0xsCJxDO70aKoocoARHJi6GX0gm/TF3iYAoTZzqqHlxu7ZP8AO0afJGeLEs5fK9pdqCcxIC7F+6GRghP0AZsrdQ4cwxK5aI8mhr09QxG7UBhQhMYytkIhDdiQirhQhSi50i2sq1pIcQqATS16RQ1hK+P9937UAHlFSEax0La9AOae0to0+Q2yIGsrIQICqClqsTf3l5xj/xYvxwSMXx5Cjdozd118hVl1qiRiwwsYxaMez49gbXozhY6fEf1QXkmRc/DTqzXjvgQvjllP+FHtvsXqsudxSsfSSy8ZSq2wT6+9+Zpw+9PV4akzE9w2nuooNZaZ8D2GD5OcLKZLDz2UPlXivDZljTUshVZYe4WI+WtuIR2tCKm85bfLPX8ePIx6Ml249OU7fc5PYZrWlY/n+S8WA3+0c6+93TVz+2Ifx0S8RE/Mn+yVi8nfx7YjH4+W/nxAX/WXr2G7dlWPQUv1jwFKDYtl19oztjromrnxxZLz+Y8SkBjBL1qOoGr1vzPQpXYYwhCNqatMFFOmEm0oRYXwY7sQiURrSo4CmUuV/KTfsEyOf9glwdjzLhvNUKq+46uApLsAMW5QmR32BIhEvBqVSNM9o3XDDDXmlpy9uIMAGuNlMV1Mz6e0rwiia7CYBo4F5xJiXkmlN5y32OQcL+CK/ZIAtNsCFonafKm0MMVAs0mXc7qsxkKd0utKplVNi/BfPxus3HBJn7rF6rDlg7pinR+fo3K5DdOzUObrOsUT06b9bbHfMnXH/yIixMT7i2yfjhWuOiFO2WSk2HNA3FujZObq1axvt27aPjt16Rbc+C8eCy24UW556W5w3fHx8UOD4Vjqu7Ps1S8BaEUnmRCd9ILohXUb+PeVWaXNOz+7CknMwrSkgwd5G8wmbW7r9FPHjsHj19hPj/F1XiS2WmTv69eoUXTp2inbtu0bXHvPE3IP2iFUPfzSue3mcGRUx6vEYccexccrOa8d6/eeLheboGl07tI82bTtG+07do+dci8Y8/beP9XcbHNe9+EV8OLVhwDbHy1rkSCfCAttYfmSstFQq+UREV/Qa0SOlb0YfSDN9kTonV18EoSFadXO1us9SX9gBwMh+V3PWPUTauZ+couqaiAgdmu472+ZvTGm5oAjxZK4guBoKFNkXWm3Ev8ggEXH21koJT+Ozrj2rBRFXk721dwjhQqbGRabWidTF+moJULK3hQDMvUP02d9bm4bs1X8FJfhMSOEjjzyyeArwTx/Ejy8NidtO2DH+NGixGDhXt+jZqV3eFrbv2idmn2fZWGXPs+KIx76L4T/rzcj46tEL4x/HbBY7rbV4LDlvj+jdtW10aN8u2nbqEZ26zxVzL7pKDNjhgtjj8rfipS9/jsq1cW1GPfP+hn7iSyHwzFWknihRdZHi6qSVoqUqugJZCRR5FYVGGNTYRj8Xnz7wtzhvzw1i8wHzxsI9O0W3Du2iQ+fu0aH7PNG3/7qxyWl3xXmvT4787r7vX423bj4yLv7zmrHBcvPHgnN2ju6d2kS79h2ibede0a3XfDHfClvGSgf8I04Z+ll82QDpEyLeCAr2z1j5xXzWVVddNf+A85rGXBEoAmwoYI4s1o2C8145Sl9HRDX22muvfI315ASJFFFwjFep9CvOtmgIpsTgRJqgaGHwcitK6eOIESPyxR04SaIRXilLDJ1oRSnWqVCIxmuvg8nKgdcXKBSjZ0NbpSCEA8HoUdzpfEKd9lSo5ldTS8YME0fhmwRYQulC8lBLybSm8xb7nLNKyQNEFL5rMQIWXaVFHcjRxngOrChZGrvzAr6cWqklRY3o5B9i6jfD4vU7To6zt1481lmiT3SZq1/0mW/eWGj+3tGrW7toO6vUjUVimU2Pi3NfGxUvfDIsRtxzbJy5w0rxuzm7Rb955o95Flosllhk/liob6/o0aF9tJV/2qpd9Nr0+Njo6i/iqc8zeqzYPKiv9ziqUofMVevZ/JXvb33VtlkPnC/rwZpMoMgzjKTwcrKKt19i0qiX4pOHT4vzdl811u7bKRacp2/0WWDB6Nd39ujbvVV0bJOLXPfVouVKl8axNw2PT797O94aekJcuffKsdrCC0SvHvPGAossGQsv0i8W7ts9endrE23b2Oc3Z/Tst03sc8urcd/3EeMawC+31ukhcrSGOJCIEc9qmV6tXDswvfozva9DpyGpABH2ka2spEmjlnZGr7p/bAsbBfBU18x5aSF+Y767//QpAqvctaTQCVsqwsohM4/qM1KktHCyE9WNpepniFSbzAuJOOlwomfl7BGzF5VzZEwOskW+Yc/rCyDzT0RI2fHkfLKRyElFkDhotWnS5kTJ7Kt1b91PftBvge4vEb98FV+9eG08dOomsesqi8bcnfrEPH3njwUWnC/6zt45urfKRZsWuei++q6x8mUj4pbhH8R3b90Wdx27aey1Uu9YaIH5ose8C8ciSy4Si/TrE327t49ubXLRpm2HyM25Qyy03S1x2+tf51OGG0B11UY0ze435qL7LQKaMn6AYHvDzfPaNPoYaQCUp3mZ1gAfq3piYEJM+v7d+ODek+OGA1eLdRZeIObo3CcWWLBfzDffXNGnS/vo1CIX7dp3ij47nRdb3fZFDBsxPL54/Py4ZJdlY4sBvWOOeRaMOfstEosvuVAs2Ldn9OncOjq1ysUsHeeN3EKHxSbHPRbDxk6Kyqn00tIwZsWURFdFhK13elSUiM+uCmlNrSJQZDFyYj1LQVqCKnMUebkRAqDkiCOOyCNhCjcpKJGi6vYGMTauxXmmaAySA2XS2DtT00PRCEEkg9LyG78vBEUYtdqAouTIUYAOhRHKAVaFN0UI081K4VIyAZAwBqqHlNMwSoCl/jCKUgRMAsx4uamFNV3HomVIMFYMbgJF9lLZR1BJcy4AWZltE9cCTYAOg2GToehXqXzxCV+8EO9d8of462aLx/xzLRsDNj0i9r7s/rjt7ovjvsv/GNssP2/MnmsbLXPzxdIb7xbHP3p3/O28w+OQQYvE+r/bLFbb9Yw46fqH476nH49hj5wfVx+7Zaw1R7eYQ9nWdu1jtoH7R/+/vBD3vDXNzpFKhpl9twYJAC8cHsQIZS31RHpIXZ4lxEEE3rHLGGVz1VoH5u0rKV6GdFzEpDfi5ZuOjBPW6BsrLbpczLP6AbHPRXfFDff8M+4+ecM4bsOuMWe3VpHrOCja9D85Dj/5r/HkXQfHAVuvFcsvvnasv8eZcegV/4p7nn4pnr33ohh6/Cqx/Sq9om1raaYto/t8K8fa5z8R578X8d00Cdg1CKqGjzFjnoVjnPSHfZv0idL5VR8EWsOpso/rIIFk3wB79rHSCIF7JfvBPXQvMZzWhT0p1TX6FChO9z/pZrrVXs1yUgatC3aQ/nVNYKy+QJFsEGAPkAEaK2mAlMgORzGNi32UISJCUxMQ52gq888eJiJWf8hLtVznqGvjeEpVl7KOiHH/gBi2UZSnNBFT/ZWBKSmx7oWxG4f3flPlddyImPj6WXHD4evE6nPPFYsuv32sceCVccnQoTH0H+fGiesvGut3yUXXVi2i4yo7xYBTnoxT/npS3HnQirHlmmvF4mvvE3uedVsMeeiZeOalf8U9FxwQxw3qGoN65qJ1206Ra7lyLLDq8XHh05/ECI9gqb7L2ae1lIB5KjNINhQfzhzi78psKNe/rnppeoE/KhOpGCjyfsn27ZMx6rHD47jfLxXL9FkwltjgsPjDKTfH7Y/eGTeff1Ac1L9rLNsmF+06dYke2/4t1jrzkbjmxF3iit2WjxVW2iRW+sNxceTVD8btTz8bzz51e9x4yMax3xItY8Guuci1miNyHTaJtfe4Ku7+ckJUphFK9jj/AX1AZoikFCHmF8u8YiPLWYsVgSLAgiPrKbqcWEyk58qUcl6rdh+AUrpZZ5OCEtXActlQWermU+pQLbZJjqVBUhSUpT74rNRv5WszViYcxSwtixNO4VO0JmBt9xTpB8PFGHG+pLCVy8yRjaiS/RRSe7BX+uNgGBUXKFeuJgLAR5b6AqAZH7a83NTCqveq8P+UHsA4JzDLcOorpV0OKHU+94jhFxU0bg5xUgDOZ+ECiNjB6vo9/vPn490Lt44zd1wzll730Nj5nKfj/s8jJk8aFuOHd28dqwAAIABJREFUHx//t+7iMVeudbSbpU8svOLqsdPJ+8bWO20dqy+xRmy+x9lx9J3vxUu/krjDY8Q/j44/L9wrlmgh57ZT5BbeKxbY5ZH4xyvFN/EWyib7u3IJSGNFsEhlBYgYAK9ygEWOOPm1bUCR/TV0BQfPGrUm6AosuJSbaRtQ9Hq8eP2xcfwaA2KzzfaJzU9/NP75ScTYiV/Hz0N3jVt37x3z9WofuXb9o32/P8VWm28Rp+6/eqyz3lax3BanxAm3vpHPvc+nmEwcFhMf2iVO/MPC0a11u5gVOz3/gFj29H/HicMjvqlHasx4GVREAp2YZGkjOl39Gwdq2oFn79SjBOhBkYFE2iGqZFWU29hAVRPdQ7qVrhWJFx2oqalSJ5rid/Q/vSrljPOvX6Wcf/MDIUi3S9thG+lia4aN9r/qpqL65TTrurDQArsIpPMZzNFyCzboL39BSjqSj0wAA0SHR0KY8+U0/aZn7ElKtgsoktWhjL2Upbo2dlzFS/rLPUhEDNvItym3r6kf1rR7ZuzOZ+zuiWp7yMTf7L3+6d2Y9PoZce3R28TqAzaIzfcbEn97bHR8FhNjwqjH4u5dlovdeuWiZ/tW0W7A2tHvT6fFFltsGfuv0T/W3erg+P2pD8Ttb/0cSeNOfHFIPLjTXLHNQrNEq3aI6yWi38D944xHP4hXbYNIncxe600C/CI2yx5585vNcs/Zq7qQWuysTBt7bNm/NI+8WtdI7lJ+c3zzWIx+7Ig4aruNYpXltos/nfnvuP7tn2J8/BAjn7gkBq/aI9bvnIt2nbtG17V2iQG7nhS7rLdK7L72KrHaLmfEvle9HE+PjvgP5TA2Rt60f1y9QftYrk/LyM3aM3KzDIo1djgvbvp0fNT89K7yRc0XRhwIUNCdSZbWv/HSKTW1ikCRxe3hiNJdKE03EPuq0kM5TeSDw895t8jdHCAHG1Qd40NBQniUBEVP6WBiKH9KQ6QJGDEJqjaoUWUrxgpaJBz9F3EC7BgPfZKqVU5UpTB9LoEifWEIbYYk+HIMCMUmtI/RNg6/p7QBA2x59RVmqo4y8rmSlDB5pL1FFlm51YemPeP/3pEGgnHEhDFw7pu+uv+cz3ImGtbC/AFOPVzTOM0BRtz5OLCQvD0INYHBqeO/jgnvPxRvv/RI3PHsp/HCJ7/EuF+mRkx4OkY9fUzsv9bi0Tcn3alH9OzRK5ZatG8M3HSvWOv4f8dVz3wZoydO/i/jZcl+GO/de0acvFzvWLVdLjoARYvtEwvv+UTc+eqvyOl/wsj+qrMEkuNkTSY9IALJ2cFelbMOS3WCQyG339xPUWXrkxGwPouHz0GZn+O791+Nt+65I55/fni8OGpCfBMRk7//IMbesVNcs+ucMW+vjpFrM0d07D0w5ph9YCyzxIax46m3xoXDvo0R3076X879uOExcdjRccauy8e8rdpGG6BogWVjpTMfjdPeiPi2Hj0LAFIlLSWn6WRrSZUdekVUv9IUrlJyzd6vWQI294oQARPmHICjYlg5wIhjLeIuRdw9ZA9SGnXxOfvb/rjX7Jp57tpsgL+9p8hEMZ1qbqhaKELke+aQvHv9p5e90veKZZRr49PaTtXn2FhrXJ+QYABYOU1ECXFmD3ICM84jrVyaX7nP/BENkmVCHyTbBWSJ4CDfiqZnl9PBgu+QIx9EWp9z8wsQFMhWpLE+VNKQuMp4I48TIDR2vtdvAJGTTv0x4uf3YsTwF+OeO56LF179j31TRGHsiPviHzsOjD/NkYueHdtFmzl6Ru+BS8bsA7eK/hv9NU6//ZV4+dvJv4lcj3vl+njpyMVil+XaRqu2QNFSseDyf4mzH/8wwNB6VF2ViKTZfpdvK91LsABYN2/4gwgAz/Gsiy10brqnsPpcsrd8cNlIsjKKRpKnjIlJ370RLzz2XNx798vx1qffxw/5GoRj4sN7z45LVu0R63XLRbuOnaLj/HPFHMutEL2W2S3W3ePKuOH5z2LEuIhxyR2fOja+Hnp43L37HLHy/G0iN0vPyLVaPdba+aK49fPx8Vk93l04gg/Bp+ef0qP0qa02CNFy1ntFoAjwoGApUErXIR0NS2KTJtaJ81vY/K8jHGIssBQZoCYpfZGBmhSlc1As0hFsRDVISpbCpbyBAWwQYYiwiERAiwwSdkoaAaVIcdnTJL0hCYwC4yyZOJRRTa0YKDKJ9QPAY0DSsyVM6KpAzQQEVKSH2TRJ8RmPg1K174GyNqEraUALZlKaUDqfXGpgr9J9TlWva18C1tn5GCgy8wqJ2/tjM6jIjhKzxsaAqiYI9LkXUgTleGK6hIQ5wPpoDnimifcAV4CorPRDFcImjonxE36IURPiPxvedXrs/fHpA3+OXVdbMGbPzRYd27SN9p3njNnnWTXW3PfSOOXJH+LN3xCDKPsP4u17zojjBvaOlVvnomOnTjHbCv8XA496Je575zdfriqW7P8yJFCV7OBASJtLSss6Np8oaU7keeedV5biKnVpIAF5Yl2JvjIyDIxDCg3WvdTm7MnjfooJo0fFhAkT/5cm8s1b8cWQLePi33eLvj07Rm7W9tGxU+/oMv+GMWCLs+KMBz+Mt6bG/wCRjv04LCa+dFicvusyMVerdtEy1yp69lstNrr06bjko4ix9ZiDgnmnVwFMsrSupPCIENS2+Ekp2WbvVy8BpB/bQje6F4gfBBDSD1goFpVgDzgu0q+QYfShe8hGskvl7ilAGqraSP/7LducIj3WFTLKNdhHNsEDUTnZHC9FboANbDV7yXGim71aP6KOxQreVF3bpFMVFLGL1p4+AXlsnoI9iMNi8vAeko3tJkvEhrE4B1/DONjpkgx3lVvE9+ALAEGFoEhWB/KkLkx8uhQwjNUnbzLjl5AbsMknMS/cYw4oW1r1IDNjEh2SFii6xM8xj4ybDDH9CnFM2/hbE2PcTxNi9KiJMfFX3fJ1fP3GLXH5FgNii265mL1j+5i1fefo1LtfzL/REbHlOS/Gwx9P/K3e8py3F6+NFw9ZOHYZ2DJateuad14XWuO0GPzsZ3lGvzKvZNreZu/8VgJ8auDfWrdGzB33nP4QoS3HJ/3tGf/3H93CL1Q8RdEGdjatbbbRmkCKFK7D/9U2gmgmxNjvJsTXY9JdN9c+ijdvPzlOXLpHDOr0H1DUskPX6N5vxVhyl0vjoL9/EO9WqRw+dcrYGP3PQ+OunWePledtFbmWfSLXectY/8/XxwOjJsSY/3W5Xv5iD5P9pzvoU/4/DFJOqwgUOSlFik2yUClOzoywO6RL2Vn8boZGcfkfk8khxoKldBlKw03HgpWbZ/zaa6/lQYcba+IAI/52uMkiQZwDKXWQIeDjfdElIX3KiCJMpU8TqGKIOPec96ogpqoQi4Gi1B9MrX5hxCg24wYUErsD6FD4+mBDnYnqN8aBEcIyMm76UMzgVO1L4f/Ghi1MTKOJIC1PHjfAWun5Cs/NIDJQolCJRUygiCwBJobfs4qEagEgLAQjzymQJ+te+A1ZmTsOoAoo5iSLjJFt+W1qfky/LuKpUyI+uibevW7D+P2Kc0Xr3GzRvtUs0WbulaLrBpfEX65/Kz6ZFFWeWWT1vhQv33ZM7Llgr1hMmgJ2dOPjY63LPo3HP/3VwpTfreybJSWg6Ae2BvAHjK0/88Ea4LAALSLPtd1YSu8A4ogJ+iUxbq5BV5m79tmU3L84tcqciojxI1+K4cevFSev2Crm6q64SOvo0L5XLLLtSbHT7SPjqS8THVYw7DFPxA//+mMc+4cFo0trv+kecy2yWexx88tx53cRP/2WNyr4YeV/ioRzbDnDxmvd28uAdKlKUFV+9uwXlUggRYrSHjnz29/sEWdeUR1OerovCCDpUPSfKA3QkNaD39m7C/SWo7s53ArzAEAJFDmXg21ha4AKNgYhgdhku4EOAAEgQhYMHjw4/xvziC2TSWFu6b++pr6XkksxUKQPnDxr3BitTxkV1ioSg71zkIeCBYoLIOBEuozFWlZsAHEGOFTSRI45nh4ij4k3Lv0A9KSc629dGqfVWIAYfbUG9ZdO44N4Nhp7Dxw52MmqBwCIrOEjGbesCfeMzJxP5Nf7pUsoJ7019b8ghxP7bnzx/MVx7BqLxwotc9GtQ9vItZ4v2vfeIv5wyt3xj68iRk6jun6J0Y9dGg/sOGds0y8Xrdp3j1yPbWOxLa6LW18dHd9lzyuqy1SZ5rd0AdJDxVVz03pzuO/mEj/bmq400pguBPB7rAvARZ/wuaxF89MaMGelkZbObErzKp3xx4jJz8cz1/wl/jRf91i0ZS7ad+wcuVZLxlxL7ROH/+O1ePynae3blF9Gx4dX7RPXrNculuudi1y7fpGb56DY7Ih/xYvfTYp8McR0iTq+0k9KmhsvOTqsRTay3FTyikARBW2BQ10prEvJEDaHBjMiEmODvwXOKfa/9wEPN56io5wpfHuBCkFUTfIwiTjd0mxEZaDAtCdFP5Ljo2+UPecAg6M2OYUOlAwZMiQ/2UwKv3EQmvMJ+WOyOG7C8wncFfarGCji7ANfxudv14ZUAQa5jULhJh+5uDmAS4qWMEz+h+ZtEC+W5lB4/VJ/MyqUf6pewiAbU7lV7ArPywhj9BkgxpAM9TPJK71awMCO+8nIOIzFIsQ+inwBUu4H+TCIABIjLKoF0WPGarvoC/scUyfExOfOjOdO7h/r9mf82karXOfos+z2se45w+L6NyZM+wC6qd9F/DA0nrxyz9h07tnzhRY6duoR8+58Vmw39Pt4sb4pjN90eOb5h2OCIKCg6Y6U35zmUXo1Z+kRG4oBbLrBvK6pmT/WrCg2EG7OpXNWfcXeWyP0gEiKvhVvUurGx/cfPhRD91gx9p4vF3N0bhO51vNEm7k2jc1PvDNu/LSYYxEx5aN74vOr1omDN+gZbduogtgv5h2wexx339vx7C8R4+uxtq1yrRxGa5HB40BxwjmcWZu+EhAdp++BCAA8zT02j94z70RiOPfsAR0ozVGKGEeYHaIj/S+VGMmYCLWaRsIuidAjLelgTkG6fnq1vtgon4kmAkZ777133g4j7zQ6OdnU9Moxl3aur/YeieiXalVBkWuShXkJmDmX9Sm7gzwQJOwimZCHZyux2+wo5y2BKOMqSWaU6sx/38eEA3vGzNnUH4QcAoZfUJvGF5IahwwmR2svyTm9GqcsFfcDUVrq4Pz6XmHZ8XQOr2TAb5B1UVabOjHi50djxIOHx27L94v5pLu3nSVaz7t6zL3ZZXHy3R/kU5Z+y81QSt/Eh3efEVeu1T3WV2ih0+yRW3D/WHrPh+OBd8fm94fUo+oqayjN7UsCBYA0vW3eu+/81sL7nf7mNwHWSAL2s5zgAT2AIDc3rW2Ay3w379N506u1KHPLtgjluWvMKJoyOuKbW+P+83aMdXp3i96Ik86dos3if4xl97ojbn3ju5h2w8GUmDJ+RLx45k5x6lKzxZJdcpHrunjMuuyZsd3fXon3fkpRqPq500gWEXOYRGSM38kXpbcKI2LVXa0iUITNl/cM8FBqnBvOsgu7gSkSkBBvMtTed1jcGA8V47BmHO9KGgcJ2hP651xxcFw/Od0UvsP/JgOgIXSeHB+giHI00ShIfdJ3h99BlRS3yhUMXPpdYR+rgiJKH8DyO0DIub06H0VpQnpNMvG377smeYjAuGF1jeboo0nNmAKgxuaa7pHzl2tcnYecMY8iT+6X/jKkDvJOh/+T7Mg8Heke+JyxVw4Zg8lhEFVy/xiVYvItlHUlf+dDtHceHnfv0itWWaBt5GbpFi1yS8ZyW5wYZ7z6Q7xSLOgzcWTERxfFvWduHMv37hbtci2iY6d5Y5mDB8chwyb/5gGdlfQl++5vJQDoW1OYKWSANZHmUOFr4VxCfFgT1ltNTXqKOQ6Mm/Pma+F5C/+2xjloHCKGoDQJAYx9GaNfuzEu2nSp2KhjLmZv3zJyvX4XHVe7MI655e340lop0rmfXrkxXj5mydht+TbRql2XyM22ciy4ynFx8ZMfh+3qxaZikdNU+5Y1irhB+FhvDJ1xK9uLna4rA17txbMPi0qAzkQi2WcpSs/GmHvuj3tTzBYkewA4cVCAelGD2u4FRWSZExxw16aDXd/a0gd/I7J8LlVV9kVK1aaPgQ/fBUj8Nul4ffe3ggmyLkpFr6qCIo6J67LHwAHbyO65hrFXtY2uw3ZZo66lWJAoVl3nMz8AeGGjXNM1pG3zQ2rTpCVJP3LP6BznLdQzhbJPdrGmV/eGjNN5fJ/s2GDpsO5VWW3yzxFfXB/Dr982Nu4/V3RUVbVly+i1+m6x+kUj4rZ3imktT117J16+7qg4evHOsVybXLTt0jNmG3RirHbCm/HMp6XIo7J6lH3pvxIQDTV3AKK0r7rwnqd779W9N7f42gg/9rCmxvF/4YUX8plPzmsOWWuF501/+8zf9BQAVeM+vfEfR7xzetx83JqxRPcu+UeYdOo6e8yzw7mx3S3fxPDRv4XZ/+nr9zH5u6dj6OG/jz3mbBHzt87FbHMOjI6bXh97Xv1ZjKzH5xTxf42d/qV32ESBAetURlq5PnBFoMhJoVVOCGaWUyFyg10CdDA9HF8PY6TMdEa6iugLY2FPEFAlDc/kqE0THgPOsFVybIXATTDXdij5LUdTFApbWhgy81upYPoixKZf+u0c0t04btK+0h6ZZCwK+1kIiqBvwqfMABGOlv1ADvusIHyoVVSMTByYMfuf9EFoVH63dKFS+xwKr13T3/rrvmAjgRGTghOI4TNZykXKDJ79UJSw+8vI6q+9UsaVDv97n3GVpufwN6NujxY2HmMh7E8R6AOwWXmqXE0jj5j6y+fx9mV7xqW/ax3L9hKinTdyc+wa6x5wRzw8elI+9D/NWX78KH55+v/ipsMG5B/kmst1jE4dl41NTrg5Lvsi4tP6JTGmufzM8gZny5pCSJgfnKqqc8mcMm98zjHDpFHS1mxNTaTI+aWh+K1zpDla9dVcpq+kl5UiPvLXmwq6vBqfPX1WHLrqYjEA6GjdItoN3DoWPeKZGPz8f7adTtu38THykYvj7m3njK3mz0XrDt0i12ObWHiza+OWV0bF9/WUgpL2Zkn75Uha6xw9jHt9VdWadmzZO9VJgA6XHm2PLBuAVEqpxGwNvcwmso3JPiLuRFClYCGL2CeEUbEshequnT5LKXn2Cpj7bJBMBREN15JGpvAAO4GxLrQ77DtGmg1lU/1W3xAObCRCyxoVsSnVqoIi85JTJmUOWGeXHWw0mfAP2E3y8MqG+x7bwW4ALcBmOeRIqT55H1h0bqBMRE6/kHV8ErauHD1TeH73iKPFzhkLO1hV1yTbSN8l+1js1eeOZDuTbiRrBz/BmpYpU06bOumHmDr89HjyjBVi0CLdI5drF61bzBPLbHtiHPnsj/FiUdfr24if/x0PX7hXbNO7Uz661KF7z+jxhwvi99ePiVdHFwNS5fQm+06hBFKkSBTYvWWPvKZ7XjiH2Cn2TNYEncJvqqlZwyJFfHPnNq+K+W6u433XcH36qkb/cOxbMf6RvWLwvotGn25sTvvo0nVgrH/8bXHeuxGfF+UvP41Jn98Sg/dcN9ZsM0v0AtD7LR/zHvxgHPHQTzF2Uv3FHtlz45GxlKJvIsL8DimCxfz5YvKsCBQVO4H3KBUXlQ8MrHBQOMHCvXLehajrMyqQ+kFRqtxBcboWgyKvu5Ty4OybWECI70HeBKnv0gfkYAJRJgcBFmPDSoEiIX/AKjXfMzkLZUIu5MFw1hYUpvMXe6XY9d+CkO4g/QFo87cFIl2o3MYou2f6aS+I13IOsrPwy0l7KrcvNX9vQkz5+fV4/KTt4oh+uVisg4dsLh4tVjwntj3rtfhgXHF0M3nM6zH6xq3ioh16Rq8e9n7MHZ26bxa7n/NA/GucZIKs1YcEzEssDj1Rzhwy3zhr5Toq1lol81RfzG1zvNgaz495ysSIHx+I9+45MHYYuEBemXeYtVX02WDv2OjmkXHXf7KNqojHPPsy3vnHKXHuCp1jjc65/NPhc4seFAP2eTz+9R5IVD/NWka42EeJ+cbsY9ax6tN37dXPeJr6WUrNI3Yk2Ry63/OA2MZkHxGMnP5yDXYlcrImEJAcKvYRmPF/MedH/60HBAMA4ZCOzb4COlJZjYNtrc6WFwNF2GjEIKCWwB5d4NzPPvtsnhgkDwQhIhPxWt9zWP+BVKnbiEKgCHGIoCSXclnkJH82DjFRiW0sR/cV+w55l/JHUn8KX6dM+Dp+uP+guHv/uWOp+ewz7BmztVo9Ntx3SNzy1ZTi1b5++Szi8yvitpM2j+VF63K56DT73LHY/10X+z0xKd4vCqQKr5r9XY4E2DRzjQ0qdq+LvVeJT2WepPOXOzf1xW9K6bA0rl9Gvhgjr944ztiqe3Tryl+aN7r13jr2HfxYPDIhiqTOKSzwcvz06mlx4rYrxAK52aKDx28suXqsdP6Lcc4bET/XI9YGNKXkSsFHfKR9WXABudc0vjTOegFFLkhJuHluBGWRFEYSeLpgfb+6rmu4rqMmZyo5+77nMBmcw/smFGVcnQCrA0UiTT5Pzd9VZZLkUe4NSueq5BUIxUp6JhMDIAwrtYhRKLfpX22Ocs9fv98bE1O+eyj+fvBmsWXnFjH3rLloPffS0X37m2Ofm7+KUSVCtD9/+kwMP3aVOG7FWaJXl7aRazUwOi50SBx61Qvx5lRFmrNWXxKwptK6KndelXtt56v3808eH/HJFTH86o1ivf5z5CvItWnRO/pvfVQc9PQP8VRRfGMj6gvx1BUHx259u8QiWLGuPaLdOqfEmmeNiGc/q/sDioyV02iztnREjJhDuhbmnTObtcYlgUJHJdnGZB/ZoAQU6rvX5kpVYsv/3i/WvJ9sFrvlu+yj9wrtY6nfO2cxUCSNRxRIJIz905yD3eUEFsrEdcmrvhu7DnxK/U+RVf2SQidCox+VNP2vVJ/5TW2OSvrlu5N//iw+HvzHuHLDdrFE75aRa9UvZplj99j2mHvimR+n5qPV05zzhzdj8vMHxeADl46585Hn1tG151Kx7ml3xjnvR3xRd9U1zSVn1jdqY6vMm3Jampe1mZs1nX/ch4/Fq0cvH0euMGt069w+cq2Wj25LHBnH3zw8PP1HAuY07av7YvS928V+G80fHVq0jVlyHaPvMr+PHW99O279KmJizYkg05yy2BvGLSJkH7v9RLIm7NHjB5cuJFHsTBH1AoqKn7p5vstAYNBUTStMn7O5VkoepT6jG8MjWsQQpc2lgJHUPVE14LF5tREx6eMhcd6ua8Sys80W3bBcC60Uixz17zjuifHx/TQhWgpmXHz71tC4Y4f+setcSpa2jtzsa0e3310ap90xIkbXU5pT85LzzDMaKSiTnz8pHj+pf6y0sKIsXaLlbP1jtT+dHReOmBhvFfPbpnwVMeamuOtv28bvunWJHqoZdp8j5t7lktj+H9/F61/X3QLYSKpamXQjOeEYb4Vd5ISLRJeKks88dy4b6YyUQClQZL6ySTN6fkpFsrdISh/C0NrRt9oWXJiRsi5+7akxcewb8ezxm8UJS+ZiIRvbuywVLQecFruf+2K8P2lq0X2QU0Y+G6Nv2CT+uk3v6NJZ0Yje0aPPBrHr4EfjjrER39RddRXvbvZuE5AAf2lifPP6nTF0x0Vjt3ly0a1j28jNvmH0XGtInHv/R/msmmJT5Jc3rom3z10+dhjULVrMJuVu/lhklT/HMY9+Ek9NiPB4ybo25I2sL+mxikewifZoSi0XCEC6VNIyUFSJtEyNiRPzKQgE3lhBEdRsonguhY3X9jyZLDa4Ci9ynppV+/GZ+PGFQ+OYbZaKuWZpHW1zs0bPJdeONS97KS56r1iIlkf7UXz+wuVx6pqLxO/a5KJru5bRYqGtY66dHoxLHh2dPaSuWU2QygczZcKoGHPbfnH7zr1iYN+2kWsxZ8zaYYPY5IBrY+joyTGy2Cl/GhEx/Oi45rAVY8GunaJlrkV06dEvljvypjj8panxQR35ErpHCpYKXVKSFHnh1EkJsk8Dq5+1TAIzUgKNHRRxnqSSi7JynhzSy+0tkmLX9NvYGP/VI3HLn9eJP/bMxdxtc9Giz8rRcaMb4+DrP44xU4p7oT+9+2C8cuSyccgKraJzpw6Ra7FE9Fxo7zj6lmExbGpEHVVX0xfrTD0C/tLI+OyZK+PctfvFeh1z0aVDm8gttGPMu8vDcdXTX+crE04roonx9UNnx0O7zhWbLtwyZmndPXItV4ml1j81rhg+Kt4vUaho2vNU/440XLUBFKRQmMKaVmDMvsRU8r/6M/z20wwU/VYeNf4n5C+fv2qkyJ6ixhIpSoOQLmATnedSSBWwv0iVPHsR5F8WFqFIv2mSr18MjZH/3DL23XCeaD9Lu2iR6xrzLrN17HrnO3HHt0VCtFNRFM/EiH8dH3stM38sJLLUpmV0WGm3GHDSG3Hjq5lz2STnQT12+pefPoi3z98hLly9dSzec9bItV0oWsy1b2x33IMx7KepUeX5dP+58phX4vuhO8Z5u8wXvTpjxTpFt54rxuZn3xuDv4gYWSy6VGaf7eewGdZjDkR/KX6V/JTfVgxFOeasZRKY0RIAihQT8HiLwjQ1RYYaQ6RIFoWCP7IosMnWkUp3O+20U76gATKxabeP4of3b4hz/jAoVmuVi9lnzUWbhdeMufd7JE781/cxbhpM5I0JMWbYLXHXdgvGzvPlolPHDpHrtFb0WvmsOPf+Efkqm3VQXU1bnFnv/5sYNzzeeeC0OGDgPNFfUZ92raPdoH1i6ZPeitvfKOUvjYkRNx8bQ9bsFGv0zsWs7XtHbvbtY/kdboh73x+b34M0zXSsUN7SXhUikQaL/PeYHlX9lLC3n782LQNFFUqN0lSkIZX9S9XnGlP6XBqSiJHQIcTsWUKpxKPnJyhprtKQnPam3iYJH3CWAAAgAElEQVS9cW28fe5yseMqXWOWfIh2wVh0pf3i1Cc/jRemREyTPTd5XMTXt8ert+wWWyw+dz7NqUOr1tFnkwNjw1tGxb1FN9E3dSll/S9fAhNj4rfD4tEjN4nD+uViwU65yHUbGLMse27sdv6r8ek0E+o/Z5746VPx8UXrxIkbdY2u+RSUvtFjzi1j/yufiH+X2ohaRqdU4VMtzzPHrGF7iAAiz7NR/ar5pcOWIZTsK41SAsC5SIyHqDdGUERoIqps4gYbbJAHRCKuUlEVg1CRj91ssm3ii/H1i6fGYRsuHQtI383lotuyG8Zy578WF742tUi6ErjzVXzyxOC4YK2+sUFXoKh95ObZPuba6q645qlRWdZEk50M9dTxKT9G/HBvDLt53/j9gn3yzyfq2LZtzLH54bHB30fHvz4rdp0JEVPejecvOyiOWbxtLNMhFy27zB25xY+K1f7ydDz3ed39TgSHrCdpc+nZhDKiACLPv6wt6Z+BomL3s5r37BlSIUcKC0DkoFCV/jv22GMbJcig6JWG9dR0ES2VqvTZQ1mVfFQmXaU8m/OaXvslvn30vHj8z3PHFovNFi3adI9cqzViwAZ/i2teHRWfFAvR/vJDxEeXxguXbxRrLtwrWudaRtuWc8SAnU6Ng1+cHMPzYpgUU0c8FO8+/Pe44e6X4q4XRsU3E6b894nhTU9KWY8rkcCY+PnL++O63deOrTrlok+rXMzad1B02eq2+MstX8S3JVJQxr33UAw/evk4dMWW0UUKSsvlo+eSR8ZpQ0fER/nLT4rJX70Ww267Nu6784G4553v490S6c42tnMwpcAqh6yksX0QmG1lhT0U+4YbbshXsqxkZNl3Mwk0pARsavZMHWnbhaCIo2Iv3IzeU5TGziYCRp4rqHqjdcU2qkangm5DFb9I12+w1zFD4/N7d44/rbFAdMy1ila5djHPqtvHNv/4OG79MorYLxUU3o13HzwzjlymT6zQMhedOrSPliscGAOOfiPu9WA1bdKbMfLVB+PWa+6Oux4cHu/8MLl4wYb/fj17aUYSmPRNxEcXx+MXbxQrz9czWuVmifate8WSu5wW+z49Pl4oasO+j5j4XDx09h6xa582sZCI5ezzRfuNLoktL/syPsgHZMdHfPdcvPbovXH9VffFv4d9HB9PLFGwoYo4kf0qVtonb91avyJFsqIUIRo9enSt/dkMFFURdk3/etijsqry+AEirK1KF1JaPCMkVdep6TzT+3PVdzzAjjOldK9Nphgyz1fCkKUH5DW9fQlj46PbTogb1u4Y6wjRdugduTl2juV2uiXuG/FdqCk0De836fuIt8+Kp89fLQYt5Mnv7aNNy4Vi5V3PjJNf/SlenxQx+du34t0r94rL99ko1tv7qth7yNvxwQ9ZEsH0nrcz5nrvxg/vXhGnbTUoBlK2nty92Fqx0OFPxKmPj4ufp5lQ/+nlD2/dF8/u3z8OXDIXXTq1j1ynNaPnymfGmfe8H5/FLzF5wuvx7n3nxakbrxl77HJYHHTvl/HgF9OOUPTWowI4baJD1qj1qqqOijqqzNFBUnmzlkmgMUnA4yaQg6qdFoIiJOJ1111Xa/a2IcYoJdWzmOwvkl6ujK8H2x522GElS5c3RD/q75xTIt65It65fJXYfMXZI5frEC1yfWOJdQ6II58aFU+MK2IL8zXDhscb95wc+y7RJ5YQXerQPjqt9ZcYdPa7cd8Hv0RM+jLGv3ZB3HPOXrHRGvvGrkfcHPePnBRFVFf9DSU7U+ORwM9fxuRnD4uhxy4Ri/ZVdKhTtGuzZKx1wKVx7vtT493/FVwu6PM3ET8/EkP/ukts2aNtzKMSa+/5oucOQ+KPN42K98ZOjvjh5Rjz2DFx3sG7x5qrHxrHXf1MPDsuagTbfGzl+1WStE8eIBIhEvllM+uaSp6BooLbWM6fnmUEQEgPACo4KjZ3MQAAh+cvNNZm05nnQogaQdiMgT1GDptNPeAPS9Z0mtX4frx0+V/i+MXaxbLtc9GqS5/I9T8yVj/smXjm83F5QDSNDwsUvXd2PH3h6rHiAoxHq2jXevZYeL1dYqtzbo1zrjgvrjtl59hl5cVj5aXWiDUOvytOeujr+Gp8U4ykNZ272Wh6+tOTMeaZw+OgDZeMPrlZo11ului53Kbxu0tfj8Fvl66Y8+Nb98ULBy4eBw7IRQd5+a2XiO4LbB+7Hn9xXHrrlXHZ8X+IAzddKRbrt06s+adz45xhY+PV/1Qo/s3QFVNQyAUY4qx5KrcH0kkTsH9I2e3GrGd+M5jsn5lKAqq4eVi4uSsCk9LL11hjjfyD0RvTvEUU2h/sYbabbLJJvmiJ/uq7inQeDu+5Tk0nnW5C/PT46fHUoQvEeou3i9ys3SI363Kx/BanxOA3x8Y7xQjCPCh6Pd4cekrsv2jv/EOqO3boEK2X/H302+GCOPGSy+PWIcfEcdsOjE1WWiH6rXtS7Hb+0/Hy95Oz4gszycqe/P2H8fXNO8d1O/WMfnOo7jZntO28Xmx9zC1x5zdKMBRr30X8/ETcc+ousXXXljFfi1y06d4n2g/aP1bdf3Bcft3Fce3f9ogD1l0oBq24cSy21aVx+tB346Mp6tylNo3nFq+99lq+9LbtK8pvA0SKDvmfbbSnsa5R3gwUJflX80opUqD/396dgEVV9Q8cv4rsgoCIirsSlqLiguCa+577lvrmrqWpub+ZmppWmlYuWfY3K7XXsrfM3JM0M5dcQ3BXQMCVbYBhm2Hm+3/OGIUIqb2ajPzmeXiY5c6dez73zr3zO+d3zlG5+yrVbPLkyfj7+1s6dalUNPWnTqaq6U7V4Ko+AKoDmHpPQbypC5Oa0E9NNtu1a1fLZFcq4lapBKrTmvXcEiB1HzsWDuX5UvaWWbjtPMrj2P59ui6NICz2z6/XHWXK0sO19ZxY9zxda3tbWgKcHexw963LUx0G0r59E3o2rkrlivWp1mwcL68PYesVM6kFc3feUTR58BAEojcSubEHg5qXt6RWqrkVKjUdxKDvI9l0S82xkvdnpEf8xLlFrZjd2o1SqqVIK4mL69M0aNOZzv270qZWOer6PEP5Z6cxcPGP7LlhIC6PVakW3Vq1allqrtVcY6q1SHVeV2m71teSm0cB5aknSiB7HiaVWq7mIlKjQKlUFlVZqDo+qwpDdRyrwRZUwK9aONVxXFCuj2rUuRUrVljSydWoVarFSKWqqmvj0qVLLd87lSGi+hMXlG3O8wAyJxD91TS+6u5K03Iamm1pNJfuNB+8hq1RemLzfJMBiOTynuW83aIqrdw0XJyd0Dz9cH2mE227tKPfc4H4eZfHp2ZHWkzfzLt7rnHrYYylnOf2yJMFTSAj9hSn3+7EomY2VHQvhmbji125UYxYFMyxDMijXg/LeIWGEH75YByTnnaltupT5OxOEe9GVKjfmV69WtGleS2qeVbkmRYv0WPJITad1t0115H6vqmWITU3n7r+LVy40DKIi+pDpL6nagLmvn37WkZfjYp6OJ3BJSi6jyNQRZ5qcIUlS5ZYcvtVza1KZ8keklv9VxGr2lGqBUk1v2/cuNHST+c+Vv+PL6L6DqmgTfUjUvMWqUBItR6pmjEViVvNLSscolay+pUW1NQ0iqghVh08cB/yKYM267mclE/LjtkAprNE/fI+CztXprmrho1leFYbbF3ccS5bgypBfek541Pe2X6Wo9Ep6NRb8vkxbDVesqH3IWAg89fFHH29Gq19bg/Zq2aEr9xoLLMO3eCwMa8UlN9Xm3ye1EOv8+nLDanjoGFvOabsKGZXHPcyT1EpoD+dxi7nvW2nOBiVTEKmmbyO0EuXLlkmlFTnm61bt3L8+HHUCb8gzIF2H4CySCESUD9aVPZEcHAwM2fOtFSsqYBCXRNVann2f5VRoSreVBqdmixVZSyovP+C0AqjyqBS6VQfBdV/L3saCxXYqb7CakCTGTNmWCo8/5e+Co/2sDBC5gUOLxrErKoaVS3nHg+00uNoOm43R26l5zNsstoqA0nntnFwVjPGNHD+/bxVFM2uBHYu5Sjr+ywNn5/PuBU/sj30BlEpxrsHL3q0hZO1PxYB9YMnneTIYDYP9WeYh4azOq6K+KE98zZjPgxBjbGQ1zXs9uYmcj34XTaP8qVtZVvLb2SVlVPEwQNn96pUDuhF67EfMf+rYxy6kkRs+t19ttW5ZdOmTZbf1Kq1WXVTUYMNqewm9VtbVRbu37/f8v19WJM+S1B0j4NNnbRVrZY6YY4aNYqGDRtadow6wavaL/WnTpzqTzXnqVHo1MhuqrOptQQYqnyqdSsyMtK60nIMURDzH75bNo4BLVrRqn4D2nXry8BV+1gWZuZWfiNFWpLq0kmJOsD+d4axoG8QrZsEWlr/AhoGEdhxBD2mruHjg1c5k/kXP4LvcezIy9YoYCD9t/Wc+qAPk/7VisAm7QkKHMzwKav5LiLZMnBHvrGxKQESfuTwf2YyrUtzujT0p2FAAP7+QTRu1Z/eU9eyeOslLud7XN72Un2KVBrSw6r5ssa9INtsHQLqh4jqR6QmRVUtmqq/qko/q1atmuWamH19VNdL9bxK037ppZcsP3RUqktBCIqypVULlqqNXrZsmSV4UyO2qgpQNdKj+gGmKjrVNBcFc0CiTMi8zMm181nRuwkDWzWgSft+BA1Zx9Q1F7iS8tf9YU0JZ0nYPZf1r/Wgc/NGNPT3JyAgEP+grrR+fjbT1v/GtstZSC/G7KOlMPxXV7pU9FcPs3veSOZ1asBzrZrQ8LlxtBy/k1W7r90zhdIYGUzkxvHMH9GB5gENaFivLvUDmlGv2fP0mPAhC3dd5dit/C3VHESqclAN8a++h6plKCgoyJKiu3LlStTrD/v7KEFR/vvD8ooCVzW0Kt1M1SJNnDjRkj6nUuimTJlyx1/2c2oEG1UbpvKVreGmLkzq4qZaxAp0ekBuTNXiY0wiOf46MZGRRIaHcyUqmpiEVOIzICvfX6+3V2Q26kmPCyfm9EEO7/qOHdt2smXvcQ6djiTilo6E9Cwy77GO3Jskj61dwIw5XUdGQjQ3rkYSHnGFiIirXLuRSLLBhEo2yf9mAlMa6QmRXD97kKM/bmfbpq3s2HuUA6FXuHxNR6LecM9aVnXOURO1/q+50flvp7wiAg9HQF031KAg3377LfPnz7dcH3NfF9VjdW3Mvj4uWrTI0gKqRqorSEFRdgWoGtkqe+RHNSlkhw4dGDBggGWYX1V5+LB/hD2cPWEGs4F0XSwJ0RHERIYTcSWGiKs6biZmYrhXmoMpE1PqLeIjf+PsgR38uG07m7buY+/Rc4ReieOaLgO9QSoIH86+sqa1mDAZ09DHXiM2KpyoyAjCo64TeV1Pgt74F61Ev5cxKxVDUgzXzh7i5E9b2bZlF9/vOsTB0EjOX9MRqzeS8RfdEtQokaqSYsSIEfTp08fS5UN1YVHZFKo7y6O4RkpQdI/jU50oVQ2SOkmqnaHy/VWrUV5/KoVAzf2jJkZVrz8ZM2TfA+ixvXx/0Up+S935vIms5FiSdSmWYOrO1x5bAeWD/3GB+9nz+S2T+3kjprQkdLEJJKu5gv/xssgHisCjF1ABgkpxUenlas6Q7GtfftdHNX+IGjlKVRiqAKMgBUW5tdTw4aoP1Mcff2xJLT9z5oylf0OB3Obcp5/chVGP81sm9/NGHWlJScQmZObo9J7XCuW5J10gv/6zd5Q79/Fzx4vZDwyQmYguIYX4lLvT5LKXyv1fnSPUuWTDhg2WAc5US+6jHuFZgqLceyGfx+rkn92aov7fz1/BrFHKp4CF+mkzZrPJcoFWFWr39R0v1F5S+HsLqGPKjNmk/ssxdW8vWcJaBdRxrjIM7ueamL2MWr5ABhc5dkL2NV+12qo/9bigb3OOzf/7d9V5y2zGpP7//bXIO0Ugh4C6CD74caWOQ3XOUC1C6jv4T5w3JCjKsdvkrgiIgAiIgAiIgAiIgAiIQOETkKCo8O1zKbEIiIAIiIAIiIAIiIAIiEAOAQmKcmDIXREQAREQAREQAREQAREQgcInIEFR4dvnUmIREAEREAEREAEREAEREIEcAhIU5cCQuyIgAiIgAiIgAiIgAiIgAoVPQIKiwrfPpcQiIAIiIAIiIAIiIAIiIAI5BCQoyoEhd0VABERABERABERABERABAqfgARFhW+fS4lFQAREQAREQAREQAREQARyCEhQlAND7oqACIiACIiACIiACIiACBQ+AQmKCt8+lxKLgAiIgAiIgAiIgAiIgAjkEJCgKAeG3BUBERABERABERABERABESh8Ak98UGQufPtUSiwCIiACIiACIiACIiACIvAAAlYcFJkwGzPI0CeRnBhPfFwcsXEJxOv06DOzMJjhzoDIBFkZZKYmk5yYQEJcHHHqLz6RxORU9JkmDKYHkJNFRUAEREAERKAgCpiNmAyppCUnokuIs1wf4+J1JCSnk2YwcdelzpyFKTOVdL2OpITb19O4uHjiEpLQpaSTnmUmqyCWU7ZJBERABB6igBUFRXeGOKAnLeYIJ79dwecLpzNz0gTGTXyDGUu+5tvQG1zIBOMdb0mC2COE7FzD2ndmMX/qeCaNn8Qr095mwSc7+SZMz+XkhygrqxIBERABERCBxyFgiCL5/E6CP1/EslmTmDZ+AhNeW8GcNYfZey4ePbkqDY2xpJzexqGvl7Ji/qvMmDiBCROmM2nOx7y74QCHrqUR9zjKIZ8pAiIgAv+ggBUFRdkqmRiTIrgRspng1TN4Y3Brugf6UqNKZSpUrk+tViMZ+sE+1oalEWdQ78kkSxfB1ROb2fvZTBaMfo6ejf2oW60ilStUpcrTjQnsPplhi/ew8ehN4ozcXYuW/dHyXwREQAREQAQKqkBWCuk3wri49xO+fedFxncLoqVfZZ6qVJmKNdtSv9dcZn15jAMJYKkDNCWTdiOU8z+t5ZtFo5g+oDmt6/vydOWKVKz0DFXrdqblC28w87+h7IrIJPnOmsaCqiDbJQIiIAJ/S8DKgiIjGMKI/vk9lg6qT1dfF7zdHHFwcMTeyRVnJyfcy9XEo+VCei8+xakUMKef4daOGawY2YzA8p6UKe6Ik6MjtnZO2Dm64OrmTglPP8r4DGLogu/ZHgs3/xalvEkEREAEREAEHpeAGfOVXZzfMI5pHevg714cT0d7HBwccHQpgaNzCTy9q9Ng3MdM+EnPpUwDxB3kyNKBzO5SlRrl3SnuZIeToy32jk44uLjj6loCz6oN8e6ynOErQzmXZMiVlv64yiqfKwIiIAIPX8BKgiKVB5dJRvxpzm+Zz+qJHWhfqzp1/BrQpHNP2rcJokOdklQtqWHjWAqtwngCh29kb8g+Qn5azsoX29C/eSA16rSmWYc+9Ojbm95tavGsnweeJezQNEc07SmChr/PgjADp9MfPrSsUQREQAREQAQeiUDWLdKv7uWX/3uZ+X3q0bRWAD41WtCuaxc6tA6kgbcr3kU1HOzt8Oz9Bm0/uciuvVsI++rfzOrTiPYBdfBv0YVnu/em3/PP0bnR09QvY4eXg0YRBy+0MsNoPnYTe66nkfRICiArFQEREIHHL2AlQZHqFhpNbOg6lvfyo3NFb7wbj6fbm7vYevEmZ/csZ/+rz9DT3wHNsQxauREEdZ3NxlXDWDy5A09Xakqj7q8z5YsT/BieQlxcOLd2TeHLSX74VXRH02xwsnej+oDZ/OuHFPbHPv4dI1sgAiIgAiIgAvclELeXuB/HMK1TDaqW8KVOn0WMWXuMY1dPc3L7eyxqWoY2LhrFXVzx6DaDRnO+Z9HYbizp7otfo/4EjVrF8r3hhMTr0CWEcXT5CBY2cqCeVxE0ey80uxY07fce/wlP4cp9bZAsJAIiIALWJ2AlQZFqKYon6cpPbJnzEgtGjGb8sl18ciLFkupmPr+Oy4vrMDDQBc2+JFqpVlTz68YLnRoxsG9vWgxbwvRPf2XfFcPtPGo1js6VlRxe1o5mPl7YaRrO9k5U6TeDXtuS2Cv5c9Z3JMsWi4AIiEBhFUg5RUroh6x6fQpDB7zGG2uP8EN0BkbSiDvyGZ+18aabhwqKXHANaMNTvUbTqll7+rTvzaBZ61i04zKhumy8DHRbZ7Kpf0merWKLVswTTQukcY+3+PxiMpezF5P/IiACIvCECVhJUHRbPSsjmfjTvxETGkpkioEEy9NmDMc/5OQbfvQJcKOIvSt2JSrh6lmbMp7NaTd4EYuPJxCSmmPPGZPg2lp+XdOfdr5lcbEERe74DnydF4JT2C/D7OTAkrsiIAIiIAIFWyAVMq8Tfu4KJ47FEKtTowypysRYInev4MMWZelU8nZQ5FzWHS+/Grg1HEvLcZvYel5H4h2j0aWS8MM8do+tSJvqDmjFSt1uKer/PhvCU4gq2BCydSIgAiLwtwWsKijCbCZLn4IxLS3HnAkGdHsWs/fFinSt4UxRO2dsbRxwr9CAaj0WM+7T3zipg4ycRAYdRKzkwIedaPaUF7aaLU52FQkYvoh/H8/gZErOheW+CIiACIiACBRkAZVibiQtzUhKSvYsREbgEme+f4uZdcvQ2Pl2UFTErjQelVvQcsoXvLn3FhFpucul5+bmmWz9VylaVrFBsy+H5t6flsPXszMmlfjci8tjERABEXhCBKwrKMoTPZHIr2fzRSc32lSwxcbBhaJF3KjQoDc9Voey7pK6VOS6ZcTBibnsXhBAvSqqT5Erjvb+tBv/ESsjTFy66w253i8PRUAEREAERKBACySD8ReOfDGFf1XzwreohouLC1rxACoETGPulnOcNOeqMFTlMcdy6bNX+LStE43LaGjFq6BVnUzHKcEciU2/s4KxQJdfNk4EREAEHkzAyoOiTDBd4uhHE5hX24kANw2b4l5oHh2p3WcZH5+I5dIdE7jexjHpY0jeOoavx1SiRvniaFpZHFw70GfGl2yJhxsPZihLi4AIiIAIiEDBEjCq+SXWs3vF87Qq54mnpuHi6oRL0GiCXt3PpjPJZN61xQbIvMDhJSOY62dLHVeNoh7VsQlaTK+3T1mG5L7rLfKECIiACDwhAlYeFCVC6i/seHMIg8s64GurYe9RkaINZtLu9UMci70jae6PXWZIvED4h31Z+VxxfLzs0WyrY1d+FMPf3s2xDJDsuT+o5I4IiIAIiIA1CqRFQ9h8vpnbHL/S7thagqIyPD3kPYZv0xOSZx5cAiT9zPev9WNwaRuqFtOw8/bDrfc6hn1+jZjULGuUkG0WAREQgfsSsPKgKBpubmDd9O40d3bES9MoXq4aFUavY9TmBCL/yK3OaWEm/eYxDrzalpm1NCq7FUVzC8S23mImrAohGsjOyM75LrkvAiIgAiIgAtYiYNZdIHXXSNaM9aGClyua5o6rSxDdZ3/F6iiIzjNNPBLT1fWsGtuRJva2t1uXqtbBZ9oOpu3JID4jj9QLawGR7RQBERCBewhYd1CUfhrTmfksHdMUHzsnHDUNj8p1abxwNwtCIe6uhiJ1Qk8kOXI7X7zQiIElNbydNLSKrSnR/b/M+iZGJqa7xwEjL4uACIiACBR8AcPNk8Ss6sK73UtQuqQzmuaDa9mBjFmxh/0G+GME7pxFST1G+slZvDEogEpFHHDQNEo93ZQWyw/x3llIVoPayU0EREAEnlAB6w6K4g6gDx7MvEG+uDuovkElKFOtHQPWHGb9DdDdVROm2oDOE3tqFXM71iOgiIZHMQ2n2s/hM/UA7+5PySPH+gnd81IsERABERCBJ1ZAH7mf49Mb8Vo9jdJuDmhOQbjWnsNr605yiTwGWFASV7cTu6kHr3SthJOtCqTcqVCrO0M3nuK/cZAm2XNP7PEiBRMBEQCrDoqywrcTvaolkzt44uio0gOqUKHmC0z/LpR9GZCau6XfnAUpwUQFT2REs+qUVel2RYrh1XQAz350gc/P5X6DHCIiIAIiIAIiYE0CqvIvlfgz3/PNwDoMKadRysUOrWxHPNuvZdGWyFzzEv1ZtvSQdYQtqMuQRq7Y2JdA06rj03AMc3+8zGEjZMol8k8suScCIvDECVh1UJR8YgNHp9RgZH07HJxLoBULpErgDN7fc5kLcHerj8kIEWs481lHugV4Y6fZYa+VwKfDS7yw4ybbbz1x+1cKJAIiIAIiUKgEVIpENFePfMKits/Q2knDw8mWos88T6WRP/HR/oS7p6mw+GRyM3gZOwZ609OnCMWcPNDsW1Cz7Vt8cvwakZaZkAoVpBRWBESgkAlYcVCUyrU9H7KpVzl6V9JwKO6O5tGTap0/4Yuj1y01Yblb+s1ZaWQeXsiBebVpVVPNT+SCjeZDg54zWRCSzLG7xyf943CQCrI/KOSOCIiACIhAQRUwZ4DpGBeD5/NygA81NI0SDja4NBtJ/UXn2RCW14VOtS7d5PzX81jZ3I1WpTRsXbzQyg7Gf8BGtp5LQK+mMCqoZZbtEgEREIGHIGClQZGqCbvKuU1v8W6gB61cNZxcPdB8x1JzxB62ndHlefI2Z+mI3/Jvto4qR+NqjmhFvNCKNafV4OV8GZ1BlAXUiCktGb1OR3JaJqlGMMmV4CEcarIKERABERCBRy5gSoXEzYRsHE3PGhUtI8gVt3OgQreJdP0mlh0xeW1BOnCOo2um8mqN4tR30rB3K4Pm/xqNph7hYFTa7TeZ0shMTUGXmII+LRODWUZrzUtTnhMBEbBOASsNivRgPsHhz6cxqooHNTUNZzcPHFvOpvlb59gfqU7wd99Mxlii1o7ji66uNCxXFM2hMlqZ4XSdup3Dv5/z1WSwoV8t4/OZM1j67RE2XjSSkFfF2t2rl2dEQAREQARE4PEKGHRwcSkHP2hD0+peFNXscCzmjf+geUw6nMqvyXltXhIYD7NnxViGlC+ObxENp5LlKNFtOd1Xx3LBcn1Mhhvfs//LD5g5eSWfbD5BSCrkubq8PkKeEwEREOLbypAAAARoSURBVIECLmCdQZE5DpK+Y+eyobTzdKe0mpTO3QvvAe/Re0McJ2/lPdOQyXiT8NUv8llbRxqUKYLmVAWt/HA6jf+KnRdjuHLjOBf2fcCSId3o17gjQ9//geVhWdy8a2jvAr5XZfNEQAREQAQKpYA5/RaGn6exfUZ16lRVgyW4YW9fl9YvreCD8CzO3zUqq2JKhMz9/PD+aPp5FaeKqmj09Maj+0K6rgjjlwvRxF3YyYl1I5k9rB8Nmk5lykc/c0ifz9DehVJeCi0CImDtAtYZFGVEweXFbJzXltol3SxzKZTwqEydiWuYcNDA+XyqrkzGW0SvHcN/ujpRv7wdmq0XxZwbUrfVMCa88zavTe7Hiy0rU6NaEBWbTmHaf0/xsw70ecdY1r7vZftFQAREQASeMIEsfRQ31g9lXX8PapRzRNPKY1eiC72mb2BbPNzIs7zJYPyVPcvGMLiMI9WLaji6lcLOry81e81g9huTmfdyZzr5elKjVntqDFnPOzsjuGYmn0Eb8vwQeVIEREAECrSAdQZFiWGkBY9g5ahqlHKwRdNssHf2o/XcjbwbAdH5pLuZs5JI2vsWwVNq0danOLZaMWw0D0qWrY5/82Y0aOBP/af9qN9xHL3mbGFjyC2uykm/QB/AsnEiIAIiIAJ/CmTEn+L43I684a9RXk1OrlVF8x7LoPnBnExXg3XndVMXzXBCv3qdhc1L08hDo4iNA5qLD66VAwhsVI8mgfXx9W1Ks36vM35tCLsvpSBJFHlZynMiIALWKmCVQZHx2q9cX92ON58rjpO9jWWCOQeXNrzw/k426yEuv71hNkLsLi5vfpkxjStZUgQcbYqhFbXH3t4Dr5rP0WjYShZvCSMkwUBSnmkG+a1cnhcBERABERCBxymQSuq1fWwe3ZSRpTRKFdXQnPzR/N9n9MpQrv5l1oOB5BPr+HVuIwbWd6eYpq6tNhSzd8XG2YeKQUPoOX8Hq3+5SkyKAcPjLKZ8tgiIgAg8AgGrDIqydJEk/rKS3f/3b2a8Op0xL8/jtVmf8s2hS1wyQd7DLCg9M2RFkxyxi+0rX+fNlwYzevAgBg4cyuARk5n05lpWbDnLyRuZkhLwCA42WaUIiIAIiMCjFMggU3eRkK9WsGHWOOZMe4Xxs5YxZcURvjsSl08r0Z/bY44LI/7gKja+N4VXRrzAkIEDGTR4NEPGzmPGss1sOBrH+aQ/l5d7IiACIvAkCVhlUPQ/7wBzFmTeIuXGBc6dOMGpUxe5eCudhHQZe/t/tpUViIAIiIAIWLFAFkZdDIkRIYT9dobjYdHE6AzozTJPkRXvVNl0ERCB+xAonEHRHzBGMvWppKUbpWXoDxO5IwIiIAIiYJUCD61eT01AlEZ6WgZ6qSy0ykNBNloERODBBObMmUMhD4oeDEyWFgEREAEREAEREAEREAERePIEJCh68vaplEgEREAEREAEREAEREAEROABBCQoegAsWVQEREAEREAEREAEREAERODJE/h/8ZRHqgkNQlEAAAAASUVORK5CYII=;" parent="1" vertex="1">
          <mxGeometry x="1041" y="448" width="239.15" height="32" as="geometry" />
        </mxCell>
        <mxCell id="5pANUjkfFs7lt7HWfWe9-42" value="" style="endArrow=none;html=1;fontSize=15;" parent="1" edge="1">
          <mxGeometry width="50" height="50" relative="1" as="geometry">
            <mxPoint x="952" y="431" as="sourcePoint" />
            <mxPoint x="952" y="277" as="targetPoint" />
          </mxGeometry>
        </mxCell>
        <mxCell id="5pANUjkfFs7lt7HWfWe9-43" value="" style="rounded=0;whiteSpace=wrap;html=1;strokeWidth=2;fontSize=24;fontColor=#000000;" parent="1" vertex="1">
          <mxGeometry x="225" y="640" width="312" height="330" as="geometry" />
        </mxCell>
        <mxCell id="5pANUjkfFs7lt7HWfWe9-44" value="" style="endArrow=none;html=1;strokeColor=#000000;fontSize=24;fontColor=#000000;exitX=0.003;exitY=0.209;exitDx=0;exitDy=0;exitPerimeter=0;entryX=0.998;entryY=0.209;entryDx=0;entryDy=0;entryPerimeter=0;strokeWidth=2;" parent="1" source="5pANUjkfFs7lt7HWfWe9-43" target="5pANUjkfFs7lt7HWfWe9-43" edge="1">
          <mxGeometry width="50" height="50" relative="1" as="geometry">
            <mxPoint x="671" y="815" as="sourcePoint" />
            <mxPoint x="721" y="765" as="targetPoint" />
          </mxGeometry>
        </mxCell>
        <mxCell id="5pANUjkfFs7lt7HWfWe9-45" value="流整形器" style="text;html=1;strokeColor=none;fillColor=none;align=center;verticalAlign=middle;whiteSpace=wrap;rounded=0;fontSize=24;fontColor=#000000;strokeWidth=2;" parent="1" vertex="1">
          <mxGeometry x="307" y="666" width="134" height="20" as="geometry" />
        </mxCell>
        <mxCell id="5pANUjkfFs7lt7HWfWe9-46" value="&lt;b&gt;输入整形器&lt;/b&gt;" style="text;html=1;strokeColor=none;fillColor=none;align=center;verticalAlign=middle;whiteSpace=wrap;rounded=0;fontSize=24;fontColor=#000000;strokeWidth=2;" parent="1" vertex="1">
          <mxGeometry x="265" y="731" width="134" height="20" as="geometry" />
        </mxCell>
        <mxCell id="5pANUjkfFs7lt7HWfWe9-47" value="" style="shape=image;html=1;verticalAlign=top;verticalLabelPosition=bottom;labelBackgroundColor=#ffffff;imageAspect=0;aspect=fixed;image=https://cdn4.iconfinder.com/data/icons/essential-app-2/16/record-round-circle-dot-128.png;strokeColor=#000000;strokeWidth=2;fontSize=24;fontColor=#000000;" parent="1" vertex="1">
          <mxGeometry x="242" y="736.5" width="11" height="11" as="geometry" />
        </mxCell>
        <mxCell id="5pANUjkfFs7lt7HWfWe9-48" value="限制流量的突发流量大小和流量的传输速率" style="text;html=1;strokeColor=none;fillColor=none;align=left;verticalAlign=middle;whiteSpace=wrap;rounded=0;fontSize=24;fontColor=#000000;strokeWidth=2;" parent="1" vertex="1">
          <mxGeometry x="265" y="818" width="249" height="20" as="geometry" />
        </mxCell>
        <mxCell id="5pANUjkfFs7lt7HWfWe9-49" value="为每条流分配单独的队列进行排队" style="text;html=1;strokeColor=none;fillColor=none;align=left;verticalAlign=middle;whiteSpace=wrap;rounded=0;fontSize=24;fontColor=#000000;strokeWidth=2;" parent="1" vertex="1">
          <mxGeometry x="265" y="905" width="249" height="20" as="geometry" />
        </mxCell>
        <mxCell id="5pANUjkfFs7lt7HWfWe9-50" value="" style="rounded=0;whiteSpace=wrap;html=1;strokeWidth=2;fontSize=24;fontColor=#000000;" parent="1" vertex="1">
          <mxGeometry x="576" y="640" width="312" height="330" as="geometry" />
        </mxCell>
        <mxCell id="5pANUjkfFs7lt7HWfWe9-51" value="" style="endArrow=none;html=1;strokeColor=#000000;fontSize=24;fontColor=#000000;exitX=0.003;exitY=0.209;exitDx=0;exitDy=0;exitPerimeter=0;entryX=0.998;entryY=0.209;entryDx=0;entryDy=0;entryPerimeter=0;strokeWidth=2;" parent="1" source="5pANUjkfFs7lt7HWfWe9-50" target="5pANUjkfFs7lt7HWfWe9-50" edge="1">
          <mxGeometry width="50" height="50" relative="1" as="geometry">
            <mxPoint x="1022" y="815" as="sourcePoint" />
            <mxPoint x="1072" y="765" as="targetPoint" />
          </mxGeometry>
        </mxCell>
        <mxCell id="5pANUjkfFs7lt7HWfWe9-52" value="基于流状态的类整形器" style="text;html=1;strokeColor=none;fillColor=none;align=center;verticalAlign=middle;whiteSpace=wrap;rounded=0;fontSize=24;fontColor=#000000;strokeWidth=2;" parent="1" vertex="1">
          <mxGeometry x="598" y="666" width="268" height="20" as="geometry" />
        </mxCell>
        <mxCell id="5pANUjkfFs7lt7HWfWe9-53" value="&lt;b&gt;交织整形器&lt;/b&gt;" style="text;html=1;strokeColor=none;fillColor=none;align=center;verticalAlign=middle;whiteSpace=wrap;rounded=0;fontSize=24;fontColor=#000000;strokeWidth=2;" parent="1" vertex="1">
          <mxGeometry x="609" y="732" width="134" height="20" as="geometry" />
        </mxCell>
        <mxCell id="5pANUjkfFs7lt7HWfWe9-54" value="" style="shape=image;html=1;verticalAlign=top;verticalLabelPosition=bottom;labelBackgroundColor=#ffffff;imageAspect=0;aspect=fixed;image=https://cdn4.iconfinder.com/data/icons/essential-app-2/16/record-round-circle-dot-128.png;strokeColor=#000000;strokeWidth=2;fontSize=24;fontColor=#000000;" parent="1" vertex="1">
          <mxGeometry x="593" y="736.5" width="11" height="11" as="geometry" />
        </mxCell>
        <mxCell id="5pANUjkfFs7lt7HWfWe9-55" value="通过存储每条流的状态，对同一类流量中的每条流进行整形" style="text;html=1;strokeColor=none;fillColor=none;align=left;verticalAlign=middle;whiteSpace=wrap;rounded=0;fontSize=24;fontColor=#000000;strokeWidth=2;" parent="1" vertex="1">
          <mxGeometry x="613" y="810" width="275" height="21" as="geometry" />
        </mxCell>
        <mxCell id="5pANUjkfFs7lt7HWfWe9-56" value="同一类类流量共享同一条队列" style="text;html=1;strokeColor=none;fillColor=none;align=left;verticalAlign=middle;whiteSpace=wrap;rounded=0;fontSize=24;fontColor=#000000;strokeWidth=2;" parent="1" vertex="1">
          <mxGeometry x="613" y="905" width="249" height="20" as="geometry" />
        </mxCell>
        <mxCell id="5pANUjkfFs7lt7HWfWe9-57" value="" style="rounded=0;whiteSpace=wrap;html=1;strokeWidth=2;fontSize=24;fontColor=#000000;" parent="1" vertex="1">
          <mxGeometry x="924" y="640" width="312" height="330" as="geometry" />
        </mxCell>
        <mxCell id="5pANUjkfFs7lt7HWfWe9-58" value="" style="endArrow=none;html=1;strokeColor=#000000;fontSize=24;fontColor=#000000;exitX=0.003;exitY=0.209;exitDx=0;exitDy=0;exitPerimeter=0;entryX=0.998;entryY=0.209;entryDx=0;entryDy=0;entryPerimeter=0;strokeWidth=2;" parent="1" source="5pANUjkfFs7lt7HWfWe9-57" target="5pANUjkfFs7lt7HWfWe9-57" edge="1">
          <mxGeometry width="50" height="50" relative="1" as="geometry">
            <mxPoint x="1370" y="815" as="sourcePoint" />
            <mxPoint x="1420" y="765" as="targetPoint" />
          </mxGeometry>
        </mxCell>
        <mxCell id="5pANUjkfFs7lt7HWfWe9-59" value="类整形器" style="text;html=1;strokeColor=none;fillColor=none;align=center;verticalAlign=middle;whiteSpace=wrap;rounded=0;fontSize=24;fontColor=#000000;strokeWidth=2;" parent="1" vertex="1">
          <mxGeometry x="1013" y="666" width="134" height="20" as="geometry" />
        </mxCell>
        <mxCell id="5pANUjkfFs7lt7HWfWe9-60" value="&lt;b&gt;基于信用的整形器(CBS)&lt;/b&gt;" style="text;html=1;strokeColor=none;fillColor=none;align=center;verticalAlign=middle;whiteSpace=wrap;rounded=0;fontSize=24;fontColor=#000000;strokeWidth=2;" parent="1" vertex="1">
          <mxGeometry x="897" y="732" width="396" height="20" as="geometry" />
        </mxCell>
        <mxCell id="5pANUjkfFs7lt7HWfWe9-61" value="" style="shape=image;html=1;verticalAlign=top;verticalLabelPosition=bottom;labelBackgroundColor=#ffffff;imageAspect=0;aspect=fixed;image=https://cdn4.iconfinder.com/data/icons/essential-app-2/16/record-round-circle-dot-128.png;strokeColor=#000000;strokeWidth=2;fontSize=24;fontColor=#000000;" parent="1" vertex="1">
          <mxGeometry x="941" y="736.5" width="11" height="11" as="geometry" />
        </mxCell>
        <mxCell id="5pANUjkfFs7lt7HWfWe9-62" value="属于同一类的流量仪器进行整形" style="text;html=1;strokeColor=none;fillColor=none;align=left;verticalAlign=middle;whiteSpace=wrap;rounded=0;fontSize=24;fontColor=#000000;strokeWidth=2;" parent="1" vertex="1">
          <mxGeometry x="962" y="809.5" width="249" height="20" as="geometry" />
        </mxCell>
        <mxCell id="5pANUjkfFs7lt7HWfWe9-63" value="同一类类流量共享同一条队列" style="text;html=1;strokeColor=none;fillColor=none;align=left;verticalAlign=middle;whiteSpace=wrap;rounded=0;fontSize=24;fontColor=#000000;strokeWidth=2;" parent="1" vertex="1">
          <mxGeometry x="965" y="905" width="249" height="20" as="geometry" />
        </mxCell>
        <mxCell id="5pANUjkfFs7lt7HWfWe9-64" value="" style="shape=flexArrow;endArrow=classic;html=1;strokeColor=#000000;fontSize=24;fontColor=#000000;strokeWidth=2;" parent="1" edge="1">
          <mxGeometry width="50" height="50" relative="1" as="geometry">
            <mxPoint x="220" y="1033.5" as="sourcePoint" />
            <mxPoint x="1236" y="1033.5" as="targetPoint" />
          </mxGeometry>
        </mxCell>
        <mxCell id="5pANUjkfFs7lt7HWfWe9-65" value="&lt;span style=&quot;color: rgb(0, 0, 0); font-family: helvetica; font-size: 24px; font-style: normal; font-weight: 400; letter-spacing: normal; text-align: center; text-indent: 0px; text-transform: none; word-spacing: 0px; background-color: rgb(255, 255, 255); display: inline; float: none;&quot;&gt;复杂度从低到高&lt;/span&gt;" style="text;whiteSpace=wrap;html=1;fontSize=24;fontColor=#000000;strokeWidth=2;" parent="1" vertex="1">
          <mxGeometry x="639.9966666666668" y="1040.5033333333336" width="215" height="32" as="geometry" />
        </mxCell>
        <mxCell id="5pANUjkfFs7lt7HWfWe9-66" value="&lt;span style=&quot;color: rgb(0, 0, 0); font-family: helvetica; font-size: 24px; font-style: normal; font-weight: 400; letter-spacing: normal; text-align: center; text-indent: 0px; text-transform: none; word-spacing: 0px; background-color: rgb(255, 255, 255); display: inline; float: none;&quot;&gt;调度粒度从高到低&lt;/span&gt;" style="text;whiteSpace=wrap;html=1;fontSize=24;fontColor=#000000;strokeWidth=2;" parent="1" vertex="1">
          <mxGeometry x="631.9966666666668" y="990.5033333333336" width="215" height="32" as="geometry" />
        </mxCell>
        <mxCell id="5pANUjkfFs7lt7HWfWe9-67" value="" style="shape=image;html=1;verticalAlign=top;verticalLabelPosition=bottom;labelBackgroundColor=#ffffff;imageAspect=0;aspect=fixed;image=https://cdn4.iconfinder.com/data/icons/essential-app-2/16/record-round-circle-dot-128.png;strokeColor=#000000;strokeWidth=2;fontSize=24;fontColor=#000000;" parent="1" vertex="1">
          <mxGeometry x="242" y="810" width="11" height="11" as="geometry" />
        </mxCell>
        <mxCell id="5pANUjkfFs7lt7HWfWe9-68" value="" style="shape=image;html=1;verticalAlign=top;verticalLabelPosition=bottom;labelBackgroundColor=#ffffff;imageAspect=0;aspect=fixed;image=https://cdn4.iconfinder.com/data/icons/essential-app-2/16/record-round-circle-dot-128.png;strokeColor=#000000;strokeWidth=2;fontSize=24;fontColor=#000000;" parent="1" vertex="1">
          <mxGeometry x="242" y="894" width="11" height="11" as="geometry" />
        </mxCell>
        <mxCell id="5pANUjkfFs7lt7HWfWe9-69" value="" style="shape=image;html=1;verticalAlign=top;verticalLabelPosition=bottom;labelBackgroundColor=#ffffff;imageAspect=0;aspect=fixed;image=https://cdn4.iconfinder.com/data/icons/essential-app-2/16/record-round-circle-dot-128.png;strokeColor=#000000;strokeWidth=2;fontSize=24;fontColor=#000000;" parent="1" vertex="1">
          <mxGeometry x="589" y="810" width="11" height="11" as="geometry" />
        </mxCell>
        <mxCell id="5pANUjkfFs7lt7HWfWe9-70" value="" style="shape=image;html=1;verticalAlign=top;verticalLabelPosition=bottom;labelBackgroundColor=#ffffff;imageAspect=0;aspect=fixed;image=https://cdn4.iconfinder.com/data/icons/essential-app-2/16/record-round-circle-dot-128.png;strokeColor=#000000;strokeWidth=2;fontSize=24;fontColor=#000000;" parent="1" vertex="1">
          <mxGeometry x="593" y="894" width="11" height="11" as="geometry" />
        </mxCell>
        <mxCell id="5pANUjkfFs7lt7HWfWe9-72" value="" style="shape=image;html=1;verticalAlign=top;verticalLabelPosition=bottom;labelBackgroundColor=#ffffff;imageAspect=0;aspect=fixed;image=https://cdn4.iconfinder.com/data/icons/essential-app-2/16/record-round-circle-dot-128.png;strokeColor=#000000;strokeWidth=2;fontSize=24;fontColor=#000000;" parent="1" vertex="1">
          <mxGeometry x="941" y="807" width="11" height="11" as="geometry" />
        </mxCell>
        <mxCell id="5pANUjkfFs7lt7HWfWe9-73" value="" style="shape=image;html=1;verticalAlign=top;verticalLabelPosition=bottom;labelBackgroundColor=#ffffff;imageAspect=0;aspect=fixed;image=https://cdn4.iconfinder.com/data/icons/essential-app-2/16/record-round-circle-dot-128.png;strokeColor=#000000;strokeWidth=2;fontSize=24;fontColor=#000000;" parent="1" vertex="1">
          <mxGeometry x="945" y="894" width="11" height="11" as="geometry" />
        </mxCell>
        <mxCell id="5pANUjkfFs7lt7HWfWe9-75" value="前导码" style="rounded=0;whiteSpace=wrap;html=1;strokeColor=#000000;strokeWidth=2;fontSize=24;fontColor=#000000;" parent="1" vertex="1">
          <mxGeometry x="1706" y="519" width="379" height="52" as="geometry" />
        </mxCell>
        <mxCell id="5pANUjkfFs7lt7HWfWe9-76" value="帧起始界定符" style="rounded=0;whiteSpace=wrap;html=1;strokeColor=#000000;strokeWidth=2;fontSize=24;fontColor=#000000;" parent="1" vertex="1">
          <mxGeometry x="1706" y="568" width="379" height="49" as="geometry" />
        </mxCell>
        <mxCell id="5pANUjkfFs7lt7HWfWe9-77" value="目的MAC地址" style="rounded=0;whiteSpace=wrap;html=1;strokeColor=#000000;strokeWidth=2;fontSize=24;fontColor=#000000;" parent="1" vertex="1">
          <mxGeometry x="1706" y="617" width="379" height="49" as="geometry" />
        </mxCell>
        <mxCell id="5pANUjkfFs7lt7HWfWe9-78" value="源MAC地址" style="rounded=0;whiteSpace=wrap;html=1;strokeColor=#000000;strokeWidth=2;fontSize=24;fontColor=#000000;" parent="1" vertex="1">
          <mxGeometry x="1706" y="666" width="379" height="49" as="geometry" />
        </mxCell>
        <mxCell id="5pANUjkfFs7lt7HWfWe9-79" value="&lt;font style=&quot;font-size: 24px&quot;&gt;标签协议识别符&lt;/font&gt;" style="rounded=0;whiteSpace=wrap;html=1;strokeColor=#000000;strokeWidth=2;fontSize=24;fontColor=#000000;" parent="1" vertex="1">
          <mxGeometry x="1706" y="715" width="379" height="49" as="geometry" />
        </mxCell>
        <mxCell id="5pANUjkfFs7lt7HWfWe9-80" value="标签信息" style="rounded=0;whiteSpace=wrap;html=1;strokeColor=#000000;strokeWidth=2;fontSize=24;fontColor=#000000;" parent="1" vertex="1">
          <mxGeometry x="1706" y="764" width="379" height="49" as="geometry" />
        </mxCell>
        <mxCell id="5pANUjkfFs7lt7HWfWe9-81" value="数据域长度/协议类型" style="rounded=0;whiteSpace=wrap;html=1;strokeColor=#000000;strokeWidth=2;fontSize=24;fontColor=#000000;" parent="1" vertex="1">
          <mxGeometry x="1706" y="813" width="379" height="49" as="geometry" />
        </mxCell>
        <mxCell id="5pANUjkfFs7lt7HWfWe9-83" value="数据域" style="rounded=0;whiteSpace=wrap;html=1;strokeColor=#000000;strokeWidth=2;fontSize=24;fontColor=#000000;dashed=1;" parent="1" vertex="1">
          <mxGeometry x="1706" y="862" width="379" height="49" as="geometry" />
        </mxCell>
        <mxCell id="5pANUjkfFs7lt7HWfWe9-84" value="补齐" style="rounded=0;whiteSpace=wrap;html=1;strokeColor=#000000;strokeWidth=2;fontSize=24;fontColor=#000000;dashed=1;" parent="1" vertex="1">
          <mxGeometry x="1706" y="909" width="379" height="49" as="geometry" />
        </mxCell>
        <mxCell id="5pANUjkfFs7lt7HWfWe9-85" value="帧校验序列" style="rounded=0;whiteSpace=wrap;html=1;strokeColor=#000000;strokeWidth=2;fontSize=24;fontColor=#000000;" parent="1" vertex="1">
          <mxGeometry x="1706" y="958" width="379" height="49" as="geometry" />
        </mxCell>
        <mxCell id="5pANUjkfFs7lt7HWfWe9-86" value="扩展" style="rounded=0;whiteSpace=wrap;html=1;strokeColor=#000000;strokeWidth=2;fontSize=24;fontColor=#000000;dashed=1;" parent="1" vertex="1">
          <mxGeometry x="1706" y="1007" width="379" height="49" as="geometry" />
        </mxCell>
        <mxCell id="5pANUjkfFs7lt7HWfWe9-89" value="" style="rounded=0;whiteSpace=wrap;html=1;strokeColor=#000000;strokeWidth=2;fontSize=24;fontColor=#000000;" parent="1" vertex="1">
          <mxGeometry x="2168" y="607" width="379" height="125" as="geometry" />
        </mxCell>
        <mxCell id="5pANUjkfFs7lt7HWfWe9-90" value="&lt;span style=&quot;color: rgb(0 , 0 , 0) ; font-family: &amp;#34;helvetica&amp;#34; ; font-size: 24px ; font-style: normal ; font-weight: 400 ; letter-spacing: normal ; text-align: center ; text-indent: 0px ; text-transform: none ; word-spacing: 0px ; background-color: rgb(255 , 255 , 255) ; display: inline ; float: none&quot;&gt;虚拟局域网识别符（12比特）&lt;/span&gt;" style="text;whiteSpace=wrap;html=1;fontSize=24;fontColor=#000000;" parent="1" vertex="1">
          <mxGeometry x="2214" y="680" width="392" height="43" as="geometry" />
        </mxCell>
        <mxCell id="5pANUjkfFs7lt7HWfWe9-92" value="优先级" style="rounded=0;whiteSpace=wrap;html=1;strokeColor=#000000;strokeWidth=2;fontSize=24;fontColor=#000000;" parent="1" vertex="1">
          <mxGeometry x="2168" y="607" width="137" height="49" as="geometry" />
        </mxCell>
        <mxCell id="5pANUjkfFs7lt7HWfWe9-93" value="标准格式指示" style="rounded=0;whiteSpace=wrap;html=1;strokeColor=#000000;strokeWidth=2;fontSize=24;fontColor=#000000;" parent="1" vertex="1">
          <mxGeometry x="2305" y="607" width="150" height="49" as="geometry" />
        </mxCell>
        <mxCell id="5pANUjkfFs7lt7HWfWe9-94" value="" style="endArrow=none;html=1;strokeColor=#000000;strokeWidth=2;fontSize=24;fontColor=#000000;exitX=1;exitY=0;exitDx=0;exitDy=0;entryX=0;entryY=0;entryDx=0;entryDy=0;shadow=1;sketch=0;" parent="1" source="5pANUjkfFs7lt7HWfWe9-80" target="5pANUjkfFs7lt7HWfWe9-92" edge="1">
          <mxGeometry width="50" height="50" relative="1" as="geometry">
            <mxPoint x="1957" y="812" as="sourcePoint" />
            <mxPoint x="2007" y="762" as="targetPoint" />
          </mxGeometry>
        </mxCell>
        <mxCell id="5pANUjkfFs7lt7HWfWe9-95" value="" style="endArrow=none;html=1;strokeColor=#000000;strokeWidth=2;fontSize=24;fontColor=#000000;exitX=1;exitY=1;exitDx=0;exitDy=0;entryX=0;entryY=1;entryDx=0;entryDy=0;shadow=1;" parent="1" source="5pANUjkfFs7lt7HWfWe9-80" target="5pANUjkfFs7lt7HWfWe9-89" edge="1">
          <mxGeometry width="50" height="50" relative="1" as="geometry">
            <mxPoint x="2095" y="774" as="sourcePoint" />
            <mxPoint x="2181" y="696" as="targetPoint" />
          </mxGeometry>
        </mxCell>
        <mxCell id="5pANUjkfFs7lt7HWfWe9-96" value="" style="endArrow=none;html=1;strokeColor=#000000;strokeWidth=2;fontSize=24;fontColor=#000000;exitX=1;exitY=0;exitDx=0;exitDy=0;entryX=1;entryY=1;entryDx=0;entryDy=0;shadow=1;" parent="1" source="5pANUjkfFs7lt7HWfWe9-81" target="5pANUjkfFs7lt7HWfWe9-89" edge="1">
          <mxGeometry width="50" height="50" relative="1" as="geometry">
            <mxPoint x="2095" y="823" as="sourcePoint" />
            <mxPoint x="2178" y="742" as="targetPoint" />
          </mxGeometry>
        </mxCell>
        <mxCell id="5pANUjkfFs7lt7HWfWe9-97" value="" style="shape=curlyBracket;whiteSpace=wrap;html=1;rounded=1;strokeColor=#000000;strokeWidth=2;fontSize=24;fontColor=#000000;" parent="1" vertex="1">
          <mxGeometry x="1597" y="725" width="20" height="88" as="geometry" />
        </mxCell>
        <mxCell id="5pANUjkfFs7lt7HWfWe9-98" value="&lt;div style=&quot;text-align: center&quot;&gt;&lt;span&gt;&lt;font face=&quot;helvetica&quot;&gt;虚拟局域网标签&lt;/font&gt;&lt;/span&gt;&lt;/div&gt;" style="text;whiteSpace=wrap;html=1;fontSize=24;fontColor=#000000;" parent="1" vertex="1">
          <mxGeometry x="1407" y="744" width="199" height="44" as="geometry" />
        </mxCell>
        <mxCell id="5pANUjkfFs7lt7HWfWe9-99" value="7字节" style="text;html=1;strokeColor=none;fillColor=none;align=center;verticalAlign=middle;whiteSpace=wrap;rounded=0;fontSize=24;fontColor=#000000;" parent="1" vertex="1">
          <mxGeometry x="1617" y="533" width="93" height="20" as="geometry" />
        </mxCell>
        <mxCell id="5pANUjkfFs7lt7HWfWe9-100" value="1字节" style="text;html=1;strokeColor=none;fillColor=none;align=center;verticalAlign=middle;whiteSpace=wrap;rounded=0;fontSize=24;fontColor=#000000;" parent="1" vertex="1">
          <mxGeometry x="1617" y="582.5" width="93" height="20" as="geometry" />
        </mxCell>
        <mxCell id="5pANUjkfFs7lt7HWfWe9-101" value="6字节&lt;span style=&quot;color: rgba(0 , 0 , 0 , 0) ; font-family: monospace ; font-size: 0px&quot;&gt;%3CmxGraphModel%3E%3Croot%3E%3CmxCell%20id%3D%220%22%2F%3E%3CmxCell%20id%3D%221%22%20parent%3D%220%22%2F%3E%3CmxCell%20id%3D%222%22%20value%3D%221%E5%AD%97%E8%8A%82%22%20style%3D%22text%3Bhtml%3D1%3BstrokeColor%3Dnone%3BfillColor%3Dnone%3Balign%3Dcenter%3BverticalAlign%3Dmiddle%3BwhiteSpace%3Dwrap%3Brounded%3D0%3BfontSize%3D24%3BfontColor%3D%23000000%3B%22%20vertex%3D%221%22%20parent%3D%221%22%3E%3CmxGeometry%20x%3D%221617%22%20y%3D%22582.5%22%20width%3D%2293%22%20height%3D%2220%22%20as%3D%22geometry%22%2F%3E%3C%2FmxCell%3E%3C%2Froot%3E%3C%2FmxGraphModel%3E&lt;/span&gt;" style="text;html=1;strokeColor=none;fillColor=none;align=center;verticalAlign=middle;whiteSpace=wrap;rounded=0;fontSize=24;fontColor=#000000;" parent="1" vertex="1">
          <mxGeometry x="1617" y="629" width="93" height="20" as="geometry" />
        </mxCell>
        <mxCell id="5pANUjkfFs7lt7HWfWe9-103" value="6字节&lt;span style=&quot;color: rgba(0 , 0 , 0 , 0) ; font-family: monospace ; font-size: 0px&quot;&gt;%3CmxGraphModel%3E%3Croot%3E%3CmxCell%20id%3D%220%22%2F%3E%3CmxCell%20id%3D%221%22%20parent%3D%220%22%2F%3E%3CmxCell%20id%3D%222%22%20value%3D%221%E5%AD%97%E8%8A%82%22%20style%3D%22text%3Bhtml%3D1%3BstrokeColor%3Dnone%3BfillColor%3Dnone%3Balign%3Dcenter%3BverticalAlign%3Dmiddle%3BwhiteSpace%3Dwrap%3Brounded%3D0%3BfontSize%3D24%3BfontColor%3D%23000000%3B%22%20vertex%3D%221%22%20parent%3D%221%22%3E%3CmxGeometry%20x%3D%221617%22%20y%3D%22582.5%22%20width%3D%2293%22%20height%3D%2220%22%20as%3D%22geometry%22%2F%3E%3C%2FmxCell%3E%3C%2Froot%3E%3C%2FmxGraphModel%3E&lt;/span&gt;" style="text;html=1;strokeColor=none;fillColor=none;align=center;verticalAlign=middle;whiteSpace=wrap;rounded=0;fontSize=24;fontColor=#000000;" parent="1" vertex="1">
          <mxGeometry x="1617" y="677" width="93" height="20" as="geometry" />
        </mxCell>
        <mxCell id="5pANUjkfFs7lt7HWfWe9-104" value="2字节&lt;span style=&quot;color: rgba(0 , 0 , 0 , 0) ; font-family: monospace ; font-size: 0px&quot;&gt;%3CmxGraphModel%3E%3Croot%3E%3CmxCell%20id%3D%220%22%2F%3E%3CmxCell%20id%3D%221%22%20parent%3D%220%22%2F%3E%3CmxCell%20id%3D%222%22%20value%3D%221%E5%AD%97%E8%8A%82%22%20style%3D%22text%3Bhtml%3D1%3BstrokeColor%3Dnone%3BfillColor%3Dnone%3Balign%3Dcenter%3BverticalAlign%3Dmiddle%3BwhiteSpace%3Dwrap%3Brounded%3D0%3BfontSize%3D24%3BfontColor%3D%23000000%3B%22%20vertex%3D%221%22%20parent%3D%221%22%3E%3CmxGeometry%20x%3D%221617%22%20y%3D%22582.5%22%20width%3D%2293%22%20height%3D%2220%22%20as%3D%22geometry%22%2F%3E%3C%2FmxCell%3E%3C%2Froot%3E%3C%2FmxGraphModel%3E&lt;/span&gt;" style="text;html=1;strokeColor=none;fillColor=none;align=center;verticalAlign=middle;whiteSpace=wrap;rounded=0;fontSize=24;fontColor=#000000;" parent="1" vertex="1">
          <mxGeometry x="1619" y="729.5" width="93" height="20" as="geometry" />
        </mxCell>
        <mxCell id="5pANUjkfFs7lt7HWfWe9-105" value="2字节&lt;span style=&quot;color: rgba(0 , 0 , 0 , 0) ; font-family: monospace ; font-size: 0px&quot;&gt;%3CmxGraphModel%3E%3Croot%3E%3CmxCell%20id%3D%220%22%2F%3E%3CmxCell%20id%3D%221%22%20parent%3D%220%22%2F%3E%3CmxCell%20id%3D%222%22%20value%3D%221%E5%AD%97%E8%8A%82%22%20style%3D%22text%3Bhtml%3D1%3BstrokeColor%3Dnone%3BfillColor%3Dnone%3Balign%3Dcenter%3BverticalAlign%3Dmiddle%3BwhiteSpace%3Dwrap%3Brounded%3D0%3BfontSize%3D24%3BfontColor%3D%23000000%3B%22%20vertex%3D%221%22%20parent%3D%221%22%3E%3CmxGeometry%20x%3D%221617%22%20y%3D%22582.5%22%20width%3D%2293%22%20height%3D%2220%22%20as%3D%22geometry%22%2F%3E%3C%2FmxCell%3E%3C%2Froot%3E%3C%2FmxGraphModel%3E&lt;/span&gt;" style="text;html=1;strokeColor=none;fillColor=none;align=center;verticalAlign=middle;whiteSpace=wrap;rounded=0;fontSize=24;fontColor=#000000;" parent="1" vertex="1">
          <mxGeometry x="1619" y="778.5" width="93" height="20" as="geometry" />
        </mxCell>
        <mxCell id="5pANUjkfFs7lt7HWfWe9-107" value="" style="shape=curlyBracket;whiteSpace=wrap;html=1;rounded=1;strokeColor=#000000;strokeWidth=2;fontSize=24;fontColor=#000000;" parent="1" vertex="1">
          <mxGeometry x="1670" y="865" width="20" height="88" as="geometry" />
        </mxCell>
        <mxCell id="5pANUjkfFs7lt7HWfWe9-108" value="2字节&lt;span style=&quot;color: rgba(0 , 0 , 0 , 0) ; font-family: monospace ; font-size: 0px&quot;&gt;%3CmxGraphModel%3E%3Croot%3E%3CmxCell%20id%3D%220%22%2F%3E%3CmxCell%20id%3D%221%22%20parent%3D%220%22%2F%3E%3CmxCell%20id%3D%222%22%20value%3D%221%E5%AD%97%E8%8A%82%22%20style%3D%22text%3Bhtml%3D1%3BstrokeColor%3Dnone%3BfillColor%3Dnone%3Balign%3Dcenter%3BverticalAlign%3Dmiddle%3BwhiteSpace%3Dwrap%3Brounded%3D0%3BfontSize%3D24%3BfontColor%3D%23000000%3B%22%20vertex%3D%221%22%20parent%3D%221%22%3E%3CmxGeometry%20x%3D%221617%22%20y%3D%22582.5%22%20width%3D%2293%22%20height%3D%2220%22%20as%3D%22geometry%22%2F%3E%3C%2FmxCell%3E%3C%2Froot%3E%3C%2FmxGraphModel%3E&lt;/span&gt;" style="text;html=1;strokeColor=none;fillColor=none;align=center;verticalAlign=middle;whiteSpace=wrap;rounded=0;fontSize=24;fontColor=#000000;" parent="1" vertex="1">
          <mxGeometry x="1619" y="827.5" width="93" height="20" as="geometry" />
        </mxCell>
        <mxCell id="5pANUjkfFs7lt7HWfWe9-109" value="42-1500字节&lt;span style=&quot;color: rgba(0 , 0 , 0 , 0) ; font-family: monospace ; font-size: 0px&quot;&gt;%3CmxGraphModel%3E%3Croot%3E%3CmxCell%20id%3D%220%22%2F%3E%3CmxCell%20id%3D%221%22%20parent%3D%220%22%2F%3E%3CmxCell%20id%3D%222%22%20value%3D%221%E5%AD%97%E8%8A%82%22%20style%3D%22text%3Bhtml%3D1%3BstrokeColor%3Dnone%3BfillColor%3Dnone%3Balign%3Dcenter%3BverticalAlign%3Dmiddle%3BwhiteSpace%3Dwrap%3Brounded%3D0%3BfontSize%3D24%3BfontColor%3D%23000000%3B%22%20vertex%3D%221%22%20parent%3D%221%22%3E%3CmxGeometry%20x%3D%221617%22%20y%3D%22582.5%22%20width%3D%2293%22%20height%3D%2220%22%20as%3D%22geometry%22%2F%3E%3C%2FmxCell%3E%3C%2Froot%3E%3C%2FmxGraphModel%3E&lt;/span&gt;" style="text;html=1;strokeColor=none;fillColor=none;align=center;verticalAlign=middle;whiteSpace=wrap;rounded=0;fontSize=24;fontColor=#000000;" parent="1" vertex="1">
          <mxGeometry x="1503" y="897" width="161" height="20" as="geometry" />
        </mxCell>
        <mxCell id="5pANUjkfFs7lt7HWfWe9-110" value="4字节&lt;span style=&quot;color: rgba(0 , 0 , 0 , 0) ; font-family: monospace ; font-size: 0px&quot;&gt;%3CmxGraphModel%3E%3Croot%3E%3CmxCell%20id%3D%220%22%2F%3E%3CmxCell%20id%3D%221%22%20parent%3D%220%22%2F%3E%3CmxCell%20id%3D%222%22%20value%3D%221%E5%AD%97%E8%8A%82%22%20style%3D%22text%3Bhtml%3D1%3BstrokeColor%3Dnone%3BfillColor%3Dnone%3Balign%3Dcenter%3BverticalAlign%3Dmiddle%3BwhiteSpace%3Dwrap%3Brounded%3D0%3BfontSize%3D24%3BfontColor%3D%23000000%3B%22%20vertex%3D%221%22%20parent%3D%221%22%3E%3CmxGeometry%20x%3D%221617%22%20y%3D%22582.5%22%20width%3D%2293%22%20height%3D%2220%22%20as%3D%22geometry%22%2F%3E%3C%2FmxCell%3E%3C%2Froot%3E%3C%2FmxGraphModel%3E&lt;/span&gt;" style="text;html=1;strokeColor=none;fillColor=none;align=center;verticalAlign=middle;whiteSpace=wrap;rounded=0;fontSize=24;fontColor=#000000;" parent="1" vertex="1">
          <mxGeometry x="1617" y="977" width="93" height="20" as="geometry" />
        </mxCell>
        <mxCell id="5pANUjkfFs7lt7HWfWe9-111" value="" style="shape=curlyBracket;whiteSpace=wrap;html=1;rounded=1;strokeColor=#000000;strokeWidth=2;fontSize=24;fontColor=#000000;rotation=90;" parent="1" vertex="1">
          <mxGeometry x="2225.25" y="515.75" width="20" height="130.5" as="geometry" />
        </mxCell>
        <mxCell id="5pANUjkfFs7lt7HWfWe9-112" value="3比特&lt;span style=&quot;color: rgba(0 , 0 , 0 , 0) ; font-family: monospace ; font-size: 0px&quot;&gt;%3CmxGraphModel%3E%3Croot%3E%3CmxCell%20id%3D%220%22%2F%3E%3CmxCell%20id%3D%221%22%20parent%3D%220%22%2F%3E%3CmxCell%20id%3D%222%22%20value%3D%221%E5%AD%97%E8%8A%82%22%20style%3D%22text%3Bhtml%3D1%3BstrokeColor%3Dnone%3BfillColor%3Dnone%3Balign%3Dcenter%3BverticalAlign%3Dmiddle%3BwhiteSpace%3Dwrap%3Brounded%3D0%3BfontSize%3D24%3BfontColor%3D%23000000%3B%22%20vertex%3D%221%22%20parent%3D%221%22%3E%3CmxGeometry%20x%3D%221617%22%20y%3D%22582.5%22%20width%3D%2293%22%20height%3D%2220%22%20as%3D%22geometry%22%2F%3E%3C%2FmxCell%3E%3C%2Froot%3E%3C%2FmxGraphModel%3E&lt;/span&gt;" style="text;html=1;strokeColor=none;fillColor=none;align=center;verticalAlign=middle;whiteSpace=wrap;rounded=0;fontSize=24;fontColor=#000000;" parent="1" vertex="1">
          <mxGeometry x="2190" y="541" width="93" height="20" as="geometry" />
        </mxCell>
        <mxCell id="5pANUjkfFs7lt7HWfWe9-116" value="" style="shape=curlyBracket;whiteSpace=wrap;html=1;rounded=1;strokeColor=#000000;strokeWidth=2;fontSize=24;fontColor=#000000;rotation=90;" parent="1" vertex="1">
          <mxGeometry x="2371.25" y="515.75" width="20" height="130.5" as="geometry" />
        </mxCell>
        <mxCell id="5pANUjkfFs7lt7HWfWe9-117" value="1比特&lt;span style=&quot;color: rgba(0 , 0 , 0 , 0) ; font-family: monospace ; font-size: 0px&quot;&gt;%3CmxGraphModel%3E%3Croot%3E%3CmxCell%20id%3D%220%22%2F%3E%3CmxCell%20id%3D%221%22%20parent%3D%220%22%2F%3E%3CmxCell%20id%3D%222%22%20value%3D%221%E5%AD%97%E8%8A%82%22%20style%3D%22text%3Bhtml%3D1%3BstrokeColor%3Dnone%3BfillColor%3Dnone%3Balign%3Dcenter%3BverticalAlign%3Dmiddle%3BwhiteSpace%3Dwrap%3Brounded%3D0%3BfontSize%3D24%3BfontColor%3D%23000000%3B%22%20vertex%3D%221%22%20parent%3D%221%22%3E%3CmxGeometry%20x%3D%221617%22%20y%3D%22582.5%22%20width%3D%2293%22%20height%3D%2220%22%20as%3D%22geometry%22%2F%3E%3C%2FmxCell%3E%3C%2Froot%3E%3C%2FmxGraphModel%3E&lt;/span&gt;" style="text;html=1;strokeColor=none;fillColor=none;align=center;verticalAlign=middle;whiteSpace=wrap;rounded=0;fontSize=24;fontColor=#000000;" parent="1" vertex="1">
          <mxGeometry x="2336" y="541" width="93" height="20" as="geometry" />
        </mxCell>
        <mxCell id="5pANUjkfFs7lt7HWfWe9-122" value="egress filtering" style="rounded=1;whiteSpace=wrap;html=1;strokeColor=#000000;strokeWidth=2;fontSize=22;fontColor=#000000;" parent="1" vertex="1">
          <mxGeometry x="331" y="1246" width="848" height="60" as="geometry" />
        </mxCell>
        <mxCell id="5pANUjkfFs7lt7HWfWe9-123" value="" style="rounded=0;whiteSpace=wrap;html=1;strokeColor=#000000;strokeWidth=2;fontSize=22;fontColor=#000000;" parent="1" vertex="1">
          <mxGeometry x="341.91" y="1339" width="173.5" height="316" as="geometry" />
        </mxCell>
        <mxCell id="5pANUjkfFs7lt7HWfWe9-128" value="&lt;font style=&quot;font-size: 22px;&quot;&gt;&lt;b style=&quot;font-size: 22px;&quot;&gt;流过滤器1&lt;/b&gt;&lt;/font&gt;" style="text;html=1;strokeColor=none;fillColor=none;align=center;verticalAlign=middle;whiteSpace=wrap;rounded=0;fontSize=22;fontColor=#000000;" parent="1" vertex="1">
          <mxGeometry x="351.66" y="1348" width="157" height="20" as="geometry" />
        </mxCell>
        <mxCell id="5pANUjkfFs7lt7HWfWe9-130" value="&lt;font style=&quot;font-size: 22px;&quot;&gt;stream_handle 0&lt;br style=&quot;font-size: 22px;&quot;&gt;priority 1&lt;br style=&quot;font-size: 22px;&quot;&gt;&lt;/font&gt;" style="text;html=1;strokeColor=none;fillColor=none;align=center;verticalAlign=middle;whiteSpace=wrap;rounded=0;fontSize=22;fontColor=#000000;" parent="1" vertex="1">
          <mxGeometry x="346.41" y="1404" width="166" height="20" as="geometry" />
        </mxCell>
        <mxCell id="5pANUjkfFs7lt7HWfWe9-132" value="&lt;font style=&quot;font-size: 22px;&quot;&gt;流门控ID 5&lt;br style=&quot;font-size: 22px;&quot;&gt;整形器ID 3&lt;br style=&quot;font-size: 22px;&quot;&gt;&lt;/font&gt;" style="text;html=1;strokeColor=none;fillColor=none;align=center;verticalAlign=middle;whiteSpace=wrap;rounded=0;fontSize=22;fontColor=#000000;" parent="1" vertex="1">
          <mxGeometry x="348.66" y="1483" width="157" height="20" as="geometry" />
        </mxCell>
        <mxCell id="5pANUjkfFs7lt7HWfWe9-133" value="" style="endArrow=none;html=1;shadow=0;strokeColor=#000000;strokeWidth=2;fontSize=22;fontColor=#000000;exitX=-0.004;exitY=0.696;exitDx=0;exitDy=0;exitPerimeter=0;entryX=1;entryY=0.696;entryDx=0;entryDy=0;entryPerimeter=0;" parent="1" source="5pANUjkfFs7lt7HWfWe9-123" target="5pANUjkfFs7lt7HWfWe9-123" edge="1">
          <mxGeometry width="50" height="50" relative="1" as="geometry">
            <mxPoint x="342.07350000000014" y="1558.0049999999999" as="sourcePoint" />
            <mxPoint x="506.40900000000005" y="1558.0049999999999" as="targetPoint" />
          </mxGeometry>
        </mxCell>
        <mxCell id="5pANUjkfFs7lt7HWfWe9-135" value="&lt;font style=&quot;font-size: 22px&quot;&gt;服务数据单元过滤器&lt;br style=&quot;font-size: 22px&quot;&gt;&lt;/font&gt;" style="text;html=1;strokeColor=none;fillColor=none;align=center;verticalAlign=middle;whiteSpace=wrap;rounded=0;fontSize=22;fontColor=#000000;" parent="1" vertex="1">
          <mxGeometry x="344.03000000000003" y="1579" width="171.75" height="20" as="geometry" />
        </mxCell>
        <mxCell id="5pANUjkfFs7lt7HWfWe9-136" value="&lt;font style=&quot;font-size: 22px;&quot;&gt;丢弃&lt;br style=&quot;font-size: 22px;&quot;&gt;&lt;/font&gt;" style="text;html=1;strokeColor=none;fillColor=none;align=center;verticalAlign=middle;whiteSpace=wrap;rounded=0;fontSize=22;fontColor=#000000;" parent="1" vertex="1">
          <mxGeometry x="349.66" y="1626" width="157" height="20" as="geometry" />
        </mxCell>
        <mxCell id="5pANUjkfFs7lt7HWfWe9-138" value="" style="endArrow=none;html=1;shadow=0;strokeColor=#000000;strokeWidth=2;fontSize=22;fontColor=#000000;exitX=0.003;exitY=0.445;exitDx=0;exitDy=0;exitPerimeter=0;entryX=1.002;entryY=0.445;entryDx=0;entryDy=0;entryPerimeter=0;dashed=1;" parent="1" edge="1">
          <mxGeometry width="50" height="50" relative="1" as="geometry">
            <mxPoint x="346.49349999999987" y="1617.9950000000001" as="sourcePoint" />
            <mxPoint x="510.8290000000001" y="1617.9950000000001" as="targetPoint" />
          </mxGeometry>
        </mxCell>
        <mxCell id="5pANUjkfFs7lt7HWfWe9-141" value="" style="endArrow=none;html=1;shadow=0;strokeColor=#000000;strokeWidth=2;fontSize=22;fontColor=#000000;exitX=-0.004;exitY=0.598;exitDx=0;exitDy=0;exitPerimeter=0;entryX=0.995;entryY=0.597;entryDx=0;entryDy=0;entryPerimeter=0;" parent="1" source="5pANUjkfFs7lt7HWfWe9-123" target="5pANUjkfFs7lt7HWfWe9-123" edge="1">
          <mxGeometry width="50" height="50" relative="1" as="geometry">
            <mxPoint x="344.9535" y="1528.0049999999999" as="sourcePoint" />
            <mxPoint x="509.41" y="1528" as="targetPoint" />
          </mxGeometry>
        </mxCell>
        <mxCell id="5pANUjkfFs7lt7HWfWe9-142" value="" style="endArrow=none;html=1;shadow=0;strokeColor=#000000;strokeWidth=2;fontSize=22;fontColor=#000000;exitX=0.003;exitY=0.445;exitDx=0;exitDy=0;exitPerimeter=0;entryX=0.993;entryY=0.373;entryDx=0;entryDy=0;entryPerimeter=0;dashed=1;" parent="1" target="5pANUjkfFs7lt7HWfWe9-123" edge="1">
          <mxGeometry width="50" height="50" relative="1" as="geometry">
            <mxPoint x="344.9534999999999" y="1457.005" as="sourcePoint" />
            <mxPoint x="509.28900000000004" y="1457.005" as="targetPoint" />
          </mxGeometry>
        </mxCell>
        <mxCell id="5pANUjkfFs7lt7HWfWe9-143" value="" style="endArrow=none;html=1;shadow=0;strokeColor=#000000;strokeWidth=2;fontSize=22;fontColor=#000000;exitX=0.003;exitY=0.445;exitDx=0;exitDy=0;exitPerimeter=0;entryX=0.999;entryY=0.117;entryDx=0;entryDy=0;entryPerimeter=0;" parent="1" target="5pANUjkfFs7lt7HWfWe9-123" edge="1">
          <mxGeometry width="50" height="50" relative="1" as="geometry">
            <mxPoint x="341.9135" y="1376.0049999999999" as="sourcePoint" />
            <mxPoint x="506.249" y="1376.0049999999999" as="targetPoint" />
          </mxGeometry>
        </mxCell>
        <mxCell id="5pANUjkfFs7lt7HWfWe9-144" value="" style="endArrow=none;html=1;shadow=0;strokeColor=#000000;strokeWidth=2;fontSize=22;fontColor=#000000;" parent="1" edge="1">
          <mxGeometry width="50" height="50" relative="1" as="geometry">
            <mxPoint x="428.42" y="1558" as="sourcePoint" />
            <mxPoint x="428.42" y="1528" as="targetPoint" />
          </mxGeometry>
        </mxCell>
        <mxCell id="5pANUjkfFs7lt7HWfWe9-181" value="" style="rounded=0;whiteSpace=wrap;html=1;strokeColor=#000000;strokeWidth=2;fontSize=22;fontColor=#000000;" parent="1" vertex="1">
          <mxGeometry x="345.5" y="1712" width="168.5" height="99" as="geometry" />
        </mxCell>
        <mxCell id="5pANUjkfFs7lt7HWfWe9-182" value="" style="endArrow=none;html=1;shadow=0;strokeColor=#000000;strokeWidth=2;fontSize=22;fontColor=#000000;exitX=-0.01;exitY=0.424;exitDx=0;exitDy=0;exitPerimeter=0;" parent="1" source="5pANUjkfFs7lt7HWfWe9-181" edge="1">
          <mxGeometry width="50" height="50" relative="1" as="geometry">
            <mxPoint x="735" y="1780" as="sourcePoint" />
            <mxPoint x="512" y="1753" as="targetPoint" />
          </mxGeometry>
        </mxCell>
        <mxCell id="5pANUjkfFs7lt7HWfWe9-183" value="&lt;b style=&quot;font-size: 22px;&quot;&gt;流门控1&lt;/b&gt;" style="text;html=1;strokeColor=none;fillColor=none;align=center;verticalAlign=middle;whiteSpace=wrap;rounded=0;fontSize=22;fontColor=#000000;" parent="1" vertex="1">
          <mxGeometry x="375.5" y="1722" width="112" height="20" as="geometry" />
        </mxCell>
        <mxCell id="5pANUjkfFs7lt7HWfWe9-184" value="内部优先级0" style="text;html=1;strokeColor=none;fillColor=none;align=center;verticalAlign=middle;whiteSpace=wrap;rounded=0;fontSize=22;fontColor=#000000;" parent="1" vertex="1">
          <mxGeometry x="346.63" y="1774" width="166.25" height="20" as="geometry" />
        </mxCell>
        <mxCell id="5pANUjkfFs7lt7HWfWe9-185" value="" style="rounded=0;whiteSpace=wrap;html=1;strokeColor=#000000;strokeWidth=2;fontSize=22;fontColor=#000000;" parent="1" vertex="1">
          <mxGeometry x="565.6800000000001" y="1710" width="168.5" height="99" as="geometry" />
        </mxCell>
        <mxCell id="5pANUjkfFs7lt7HWfWe9-186" value="" style="endArrow=none;html=1;shadow=0;strokeColor=#000000;strokeWidth=2;fontSize=22;fontColor=#000000;exitX=-0.01;exitY=0.424;exitDx=0;exitDy=0;exitPerimeter=0;" parent="1" source="5pANUjkfFs7lt7HWfWe9-185" edge="1">
          <mxGeometry width="50" height="50" relative="1" as="geometry">
            <mxPoint x="955.1800000000001" y="1778" as="sourcePoint" />
            <mxPoint x="732.1800000000001" y="1751" as="targetPoint" />
          </mxGeometry>
        </mxCell>
        <mxCell id="5pANUjkfFs7lt7HWfWe9-188" value="内部优先级2" style="text;html=1;strokeColor=none;fillColor=none;align=center;verticalAlign=middle;whiteSpace=wrap;rounded=0;fontSize=22;fontColor=#000000;" parent="1" vertex="1">
          <mxGeometry x="566.81" y="1772" width="166.25" height="20" as="geometry" />
        </mxCell>
        <mxCell id="5pANUjkfFs7lt7HWfWe9-189" value="" style="rounded=0;whiteSpace=wrap;html=1;strokeColor=#000000;strokeWidth=2;fontSize=22;fontColor=#000000;" parent="1" vertex="1">
          <mxGeometry x="773.75" y="1710" width="168.5" height="99" as="geometry" />
        </mxCell>
        <mxCell id="5pANUjkfFs7lt7HWfWe9-190" value="" style="endArrow=none;html=1;shadow=0;strokeColor=#000000;strokeWidth=2;fontSize=22;fontColor=#000000;exitX=-0.01;exitY=0.424;exitDx=0;exitDy=0;exitPerimeter=0;" parent="1" source="5pANUjkfFs7lt7HWfWe9-189" edge="1">
          <mxGeometry width="50" height="50" relative="1" as="geometry">
            <mxPoint x="1163.25" y="1778" as="sourcePoint" />
            <mxPoint x="940.25" y="1751" as="targetPoint" />
          </mxGeometry>
        </mxCell>
        <mxCell id="5pANUjkfFs7lt7HWfWe9-192" value="内部优先级1" style="text;html=1;strokeColor=none;fillColor=none;align=center;verticalAlign=middle;whiteSpace=wrap;rounded=0;fontSize=22;fontColor=#000000;" parent="1" vertex="1">
          <mxGeometry x="774.88" y="1772" width="166.25" height="20" as="geometry" />
        </mxCell>
        <mxCell id="5pANUjkfFs7lt7HWfWe9-193" value="" style="rounded=0;whiteSpace=wrap;html=1;strokeColor=#000000;strokeWidth=2;fontSize=22;fontColor=#000000;" parent="1" vertex="1">
          <mxGeometry x="985.67" y="1710" width="168.5" height="99" as="geometry" />
        </mxCell>
        <mxCell id="5pANUjkfFs7lt7HWfWe9-194" value="" style="endArrow=none;html=1;shadow=0;strokeColor=#000000;strokeWidth=2;fontSize=22;fontColor=#000000;exitX=-0.01;exitY=0.424;exitDx=0;exitDy=0;exitPerimeter=0;" parent="1" source="5pANUjkfFs7lt7HWfWe9-193" edge="1">
          <mxGeometry width="50" height="50" relative="1" as="geometry">
            <mxPoint x="1375.17" y="1778" as="sourcePoint" />
            <mxPoint x="1152.17" y="1751" as="targetPoint" />
          </mxGeometry>
        </mxCell>
        <mxCell id="5pANUjkfFs7lt7HWfWe9-195" value="流门控7" style="text;html=1;strokeColor=none;fillColor=none;align=center;verticalAlign=middle;whiteSpace=wrap;rounded=0;fontSize=22;fontColor=#000000;fontStyle=1" parent="1" vertex="1">
          <mxGeometry x="1015.67" y="1720" width="111.74" height="21" as="geometry" />
        </mxCell>
        <mxCell id="5pANUjkfFs7lt7HWfWe9-196" value="内部优先级3" style="text;html=1;strokeColor=none;fillColor=none;align=center;verticalAlign=middle;whiteSpace=wrap;rounded=0;fontSize=22;fontColor=#000000;" parent="1" vertex="1">
          <mxGeometry x="986.8" y="1772" width="166.25" height="20" as="geometry" />
        </mxCell>
        <mxCell id="5pANUjkfFs7lt7HWfWe9-209" value="" style="rounded=0;whiteSpace=wrap;html=1;strokeColor=#000000;strokeWidth=2;fontSize=22;fontColor=#000000;" parent="1" vertex="1">
          <mxGeometry x="331" y="1859" width="187" height="261" as="geometry" />
        </mxCell>
        <mxCell id="5pANUjkfFs7lt7HWfWe9-210" value="" style="endArrow=none;html=1;shadow=0;strokeColor=#000000;strokeWidth=2;fontSize=22;fontColor=#000000;exitX=0.007;exitY=0.197;exitDx=0;exitDy=0;exitPerimeter=0;entryX=0.998;entryY=0.198;entryDx=0;entryDy=0;entryPerimeter=0;" parent="1" source="5pANUjkfFs7lt7HWfWe9-209" target="5pANUjkfFs7lt7HWfWe9-209" edge="1">
          <mxGeometry width="50" height="50" relative="1" as="geometry">
            <mxPoint x="346.63500000000005" y="1911.976" as="sourcePoint" />
            <mxPoint x="514.82" y="1911" as="targetPoint" />
          </mxGeometry>
        </mxCell>
        <mxCell id="5pANUjkfFs7lt7HWfWe9-211" value="整形器1" style="text;html=1;strokeColor=none;fillColor=none;align=center;verticalAlign=middle;whiteSpace=wrap;rounded=0;fontSize=22;fontColor=#000000;fontStyle=1" parent="1" vertex="1">
          <mxGeometry x="372.5" y="1877" width="112" height="20" as="geometry" />
        </mxCell>
        <mxCell id="5pANUjkfFs7lt7HWfWe9-221" value="" style="endArrow=none;html=1;shadow=0;strokeColor=#000000;strokeWidth=2;fontSize=22;fontColor=#000000;exitX=-0.002;exitY=0.557;exitDx=0;exitDy=0;exitPerimeter=0;entryX=0.999;entryY=0.557;entryDx=0;entryDy=0;entryPerimeter=0;" parent="1" source="5pANUjkfFs7lt7HWfWe9-209" target="5pANUjkfFs7lt7HWfWe9-209" edge="1">
          <mxGeometry width="50" height="50" relative="1" as="geometry">
            <mxPoint x="347.655" y="2003.976" as="sourcePoint" />
            <mxPoint x="516" y="2003" as="targetPoint" />
          </mxGeometry>
        </mxCell>
        <mxCell id="5pANUjkfFs7lt7HWfWe9-222" value="" style="endArrow=none;html=1;shadow=0;strokeColor=#000000;strokeWidth=2;fontSize=22;fontColor=#000000;exitX=-0.002;exitY=0.772;exitDx=0;exitDy=0;exitPerimeter=0;entryX=0.998;entryY=0.773;entryDx=0;entryDy=0;entryPerimeter=0;" parent="1" source="5pANUjkfFs7lt7HWfWe9-209" target="5pANUjkfFs7lt7HWfWe9-209" edge="1">
          <mxGeometry width="50" height="50" relative="1" as="geometry">
            <mxPoint x="349.255" y="2060.976" as="sourcePoint" />
            <mxPoint x="517" y="2060" as="targetPoint" />
          </mxGeometry>
        </mxCell>
        <mxCell id="5pANUjkfFs7lt7HWfWe9-223" value="令牌桶大小 500字节" style="text;html=1;strokeColor=none;fillColor=none;align=center;verticalAlign=middle;whiteSpace=wrap;rounded=0;fontSize=18;fontColor=#000000;" parent="1" vertex="1">
          <mxGeometry x="334" y="1928" width="173" height="20" as="geometry" />
        </mxCell>
        <mxCell id="5pANUjkfFs7lt7HWfWe9-225" value="整形器组ID1" style="text;html=1;strokeColor=none;fillColor=none;align=center;verticalAlign=middle;whiteSpace=wrap;rounded=0;fontSize=22;fontColor=#000000;" parent="1" vertex="1">
          <mxGeometry x="352.25" y="2023" width="159" height="20" as="geometry" />
        </mxCell>
        <mxCell id="5pANUjkfFs7lt7HWfWe9-227" value="丢弃" style="text;html=1;strokeColor=none;fillColor=none;align=center;verticalAlign=middle;whiteSpace=wrap;rounded=0;fontSize=22;fontColor=#000000;" parent="1" vertex="1">
          <mxGeometry x="344.75" y="2079" width="159" height="20" as="geometry" />
        </mxCell>
        <mxCell id="5pANUjkfFs7lt7HWfWe9-229" value="" style="endArrow=none;html=1;shadow=0;strokeColor=#000000;strokeWidth=2;fontSize=22;fontColor=#000000;exitX=0.001;exitY=0.149;exitDx=0;exitDy=0;exitPerimeter=0;entryX=0.996;entryY=0.148;entryDx=0;entryDy=0;entryPerimeter=0;" parent="1" edge="1">
          <mxGeometry width="50" height="50" relative="1" as="geometry">
            <mxPoint x="-65.72900000000004" y="1679.437" as="sourcePoint" />
            <mxPoint x="203.91599999999994" y="1678.924" as="targetPoint" />
          </mxGeometry>
        </mxCell>
        <mxCell id="5pANUjkfFs7lt7HWfWe9-230" value="整形器组" style="text;html=1;strokeColor=none;fillColor=none;align=center;verticalAlign=middle;whiteSpace=wrap;rounded=0;fontSize=22;fontColor=#000000;" parent="1" vertex="1">
          <mxGeometry x="13.5" y="1635" width="112" height="20" as="geometry" />
        </mxCell>
        <mxCell id="5pANUjkfFs7lt7HWfWe9-231" value="" style="endArrow=none;html=1;shadow=0;strokeColor=#000000;strokeWidth=2;fontSize=22;fontColor=#000000;entryX=0.5;entryY=1;entryDx=0;entryDy=0;" parent="1" edge="1">
          <mxGeometry width="50" height="50" relative="1" as="geometry">
            <mxPoint x="70" y="1679" as="sourcePoint" />
            <mxPoint x="69.5" y="2116" as="targetPoint" />
          </mxGeometry>
        </mxCell>
        <mxCell id="5pANUjkfFs7lt7HWfWe9-232" value="整形器组ID" style="text;html=1;strokeColor=none;fillColor=none;align=center;verticalAlign=middle;whiteSpace=wrap;rounded=0;fontSize=22;fontColor=#000000;" parent="1" vertex="1">
          <mxGeometry x="-65" y="1707" width="130" height="20" as="geometry" />
        </mxCell>
        <mxCell id="5pANUjkfFs7lt7HWfWe9-233" value="最大驻留时间" style="text;html=1;strokeColor=none;fillColor=none;align=center;verticalAlign=middle;whiteSpace=wrap;rounded=0;fontSize=22;fontColor=#000000;" parent="1" vertex="1">
          <mxGeometry x="61" y="1708" width="151" height="20" as="geometry" />
        </mxCell>
        <mxCell id="5pANUjkfFs7lt7HWfWe9-234" value="" style="rounded=0;whiteSpace=wrap;html=1;strokeColor=#000000;strokeWidth=2;fontSize=22;fontColor=#000000;" parent="1" vertex="1">
          <mxGeometry x="333" y="2182.02" width="184" height="122" as="geometry" />
        </mxCell>
        <mxCell id="5pANUjkfFs7lt7HWfWe9-235" value="传输选择算法" style="rounded=0;whiteSpace=wrap;html=1;strokeColor=#000000;strokeWidth=2;fontSize=22;fontColor=#000000;" parent="1" vertex="1">
          <mxGeometry x="333" y="2373" width="840" height="48" as="geometry" />
        </mxCell>
        <mxCell id="5pANUjkfFs7lt7HWfWe9-240" value="&lt;span style=&quot;color: rgb(0, 0, 0); font-family: helvetica; font-size: 22px; font-style: normal; font-weight: 400; letter-spacing: normal; text-align: center; text-indent: 0px; text-transform: none; word-spacing: 0px; background-color: rgb(255, 255, 255); display: inline; float: none;&quot;&gt;合格时间&lt;/span&gt;" style="text;whiteSpace=wrap;html=1;fontSize=22;fontColor=#000000;" parent="1" vertex="1">
          <mxGeometry x="710.0014285714285" y="2324.0042857142857" width="164" height="43" as="geometry" />
        </mxCell>
        <mxCell id="5pANUjkfFs7lt7HWfWe9-243" value="流门控3" style="text;html=1;strokeColor=none;fillColor=none;align=center;verticalAlign=middle;whiteSpace=wrap;rounded=0;fontSize=22;fontColor=#000000;fontStyle=1" parent="1" vertex="1">
          <mxGeometry x="598" y="1722" width="112" height="20" as="geometry" />
        </mxCell>
        <mxCell id="5pANUjkfFs7lt7HWfWe9-244" value="流门控5" style="text;html=1;strokeColor=none;fillColor=none;align=center;verticalAlign=middle;whiteSpace=wrap;rounded=0;fontSize=22;fontColor=#000000;fontStyle=1" parent="1" vertex="1">
          <mxGeometry x="805.25" y="1722" width="112" height="20" as="geometry" />
        </mxCell>
        <mxCell id="5pANUjkfFs7lt7HWfWe9-245" value="" style="endArrow=none;html=1;shadow=0;strokeColor=#000000;strokeWidth=2;fontSize=22;fontColor=#000000;exitX=0.5;exitY=0;exitDx=0;exitDy=0;entryX=0.5;entryY=1;entryDx=0;entryDy=0;" parent="1" source="5pANUjkfFs7lt7HWfWe9-181" edge="1">
          <mxGeometry width="50" height="50" relative="1" as="geometry">
            <mxPoint x="771" y="1635" as="sourcePoint" />
            <mxPoint x="646.25" y="1655" as="targetPoint" />
          </mxGeometry>
        </mxCell>
        <mxCell id="5pANUjkfFs7lt7HWfWe9-246" value="" style="endArrow=none;html=1;shadow=0;strokeColor=#000000;strokeWidth=2;fontSize=22;fontColor=#000000;exitX=0.5;exitY=0;exitDx=0;exitDy=0;entryX=0.5;entryY=1;entryDx=0;entryDy=0;" parent="1" source="5pANUjkfFs7lt7HWfWe9-185" edge="1">
          <mxGeometry width="50" height="50" relative="1" as="geometry">
            <mxPoint x="439.7499999999998" y="1722" as="sourcePoint" />
            <mxPoint x="862.0799999999999" y="1655" as="targetPoint" />
          </mxGeometry>
        </mxCell>
        <mxCell id="5pANUjkfFs7lt7HWfWe9-247" value="" style="endArrow=none;html=1;shadow=0;strokeColor=#000000;strokeWidth=2;fontSize=22;fontColor=#000000;exitX=0.5;exitY=1;exitDx=0;exitDy=0;entryX=0.564;entryY=0.006;entryDx=0;entryDy=0;entryPerimeter=0;" parent="1" source="5pANUjkfFs7lt7HWfWe9-123" target="5pANUjkfFs7lt7HWfWe9-189" edge="1">
          <mxGeometry width="50" height="50" relative="1" as="geometry">
            <mxPoint x="449.7499999999998" y="1732" as="sourcePoint" />
            <mxPoint x="666.25" y="1675" as="targetPoint" />
          </mxGeometry>
        </mxCell>
        <mxCell id="5pANUjkfFs7lt7HWfWe9-248" value="" style="endArrow=none;html=1;shadow=0;strokeColor=#000000;strokeWidth=2;fontSize=22;fontColor=#000000;exitX=0.495;exitY=0.006;exitDx=0;exitDy=0;exitPerimeter=0;" parent="1" source="5pANUjkfFs7lt7HWfWe9-193" edge="1">
          <mxGeometry width="50" height="50" relative="1" as="geometry">
            <mxPoint x="459.7499999999998" y="1742" as="sourcePoint" />
            <mxPoint x="1069" y="1653" as="targetPoint" />
          </mxGeometry>
        </mxCell>
        <mxCell id="5pANUjkfFs7lt7HWfWe9-253" value="&lt;font style=&quot;font-size: 37px&quot;&gt;&lt;b&gt;...&lt;/b&gt;&lt;/font&gt;" style="text;html=1;strokeColor=none;fillColor=none;align=center;verticalAlign=middle;whiteSpace=wrap;rounded=0;fontSize=22;fontColor=#000000;" parent="1" vertex="1">
          <mxGeometry x="1214" y="1480" width="40" height="78" as="geometry" />
        </mxCell>
        <mxCell id="5pANUjkfFs7lt7HWfWe9-254" value="" style="endArrow=none;html=1;shadow=0;strokeColor=#000000;strokeWidth=2;fontSize=22;fontColor=#000000;entryX=0.5;entryY=1;entryDx=0;entryDy=0;" parent="1" target="5pANUjkfFs7lt7HWfWe9-181" edge="1">
          <mxGeometry width="50" height="50" relative="1" as="geometry">
            <mxPoint x="430" y="1859" as="sourcePoint" />
            <mxPoint x="655" y="1853" as="targetPoint" />
          </mxGeometry>
        </mxCell>
        <mxCell id="5pANUjkfFs7lt7HWfWe9-255" value="" style="endArrow=none;html=1;shadow=0;strokeColor=#000000;strokeWidth=2;fontSize=22;fontColor=#000000;entryX=0.5;entryY=1;entryDx=0;entryDy=0;exitX=0.5;exitY=0;exitDx=0;exitDy=0;" parent="1" edge="1">
          <mxGeometry width="50" height="50" relative="1" as="geometry">
            <mxPoint x="646.25" y="1857" as="sourcePoint" />
            <mxPoint x="869.0799999999999" y="1809.0000000000005" as="targetPoint" />
          </mxGeometry>
        </mxCell>
        <mxCell id="5pANUjkfFs7lt7HWfWe9-256" value="" style="endArrow=none;html=1;shadow=0;strokeColor=#000000;strokeWidth=2;fontSize=22;fontColor=#000000;entryX=0.5;entryY=0;entryDx=0;entryDy=0;exitX=0.5;exitY=1;exitDx=0;exitDy=0;" parent="1" source="5pANUjkfFs7lt7HWfWe9-185" edge="1">
          <mxGeometry width="50" height="50" relative="1" as="geometry">
            <mxPoint x="656.25" y="1867" as="sourcePoint" />
            <mxPoint x="862.75" y="1857" as="targetPoint" />
          </mxGeometry>
        </mxCell>
        <mxCell id="5pANUjkfFs7lt7HWfWe9-257" value="" style="endArrow=none;html=1;shadow=0;strokeColor=#000000;strokeWidth=2;fontSize=22;fontColor=#000000;entryX=0.5;entryY=1;entryDx=0;entryDy=0;exitX=0.445;exitY=-0.001;exitDx=0;exitDy=0;exitPerimeter=0;" parent="1" source="5pANUjkfFs7lt7HWfWe9-278" target="5pANUjkfFs7lt7HWfWe9-193" edge="1">
          <mxGeometry width="50" height="50" relative="1" as="geometry">
            <mxPoint x="1069.9299999999998" y="1857" as="sourcePoint" />
            <mxPoint x="889.0799999999999" y="1829.0000000000005" as="targetPoint" />
          </mxGeometry>
        </mxCell>
        <mxCell id="5pANUjkfFs7lt7HWfWe9-258" value="令牌桶速率 10Mbits/s" style="text;html=1;strokeColor=none;fillColor=none;align=center;verticalAlign=middle;whiteSpace=wrap;rounded=0;fontSize=18;fontColor=#000000;" parent="1" vertex="1">
          <mxGeometry x="330" y="1967" width="188.5" height="20" as="geometry" />
        </mxCell>
        <mxCell id="5pANUjkfFs7lt7HWfWe9-259" value="" style="rounded=0;whiteSpace=wrap;html=1;strokeColor=#000000;strokeWidth=2;fontSize=22;fontColor=#000000;" parent="1" vertex="1">
          <mxGeometry x="553.75" y="1859" width="187" height="261" as="geometry" />
        </mxCell>
        <mxCell id="5pANUjkfFs7lt7HWfWe9-260" value="" style="endArrow=none;html=1;shadow=0;strokeColor=#000000;strokeWidth=2;fontSize=22;fontColor=#000000;exitX=0.007;exitY=0.197;exitDx=0;exitDy=0;exitPerimeter=0;entryX=0.998;entryY=0.198;entryDx=0;entryDy=0;entryPerimeter=0;" parent="1" source="5pANUjkfFs7lt7HWfWe9-259" target="5pANUjkfFs7lt7HWfWe9-259" edge="1">
          <mxGeometry width="50" height="50" relative="1" as="geometry">
            <mxPoint x="569.385" y="1911.976" as="sourcePoint" />
            <mxPoint x="737.57" y="1911" as="targetPoint" />
          </mxGeometry>
        </mxCell>
        <mxCell id="5pANUjkfFs7lt7HWfWe9-261" value="整形器3" style="text;html=1;strokeColor=none;fillColor=none;align=center;verticalAlign=middle;whiteSpace=wrap;rounded=0;fontSize=22;fontColor=#000000;fontStyle=1" parent="1" vertex="1">
          <mxGeometry x="595.25" y="1877" width="112" height="20" as="geometry" />
        </mxCell>
        <mxCell id="5pANUjkfFs7lt7HWfWe9-262" value="" style="endArrow=none;html=1;shadow=0;strokeColor=#000000;strokeWidth=2;fontSize=22;fontColor=#000000;exitX=-0.002;exitY=0.557;exitDx=0;exitDy=0;exitPerimeter=0;entryX=0.999;entryY=0.557;entryDx=0;entryDy=0;entryPerimeter=0;" parent="1" source="5pANUjkfFs7lt7HWfWe9-259" target="5pANUjkfFs7lt7HWfWe9-259" edge="1">
          <mxGeometry width="50" height="50" relative="1" as="geometry">
            <mxPoint x="570.405" y="2003.976" as="sourcePoint" />
            <mxPoint x="738.75" y="2003" as="targetPoint" />
          </mxGeometry>
        </mxCell>
        <mxCell id="5pANUjkfFs7lt7HWfWe9-263" value="" style="endArrow=none;html=1;shadow=0;strokeColor=#000000;strokeWidth=2;fontSize=22;fontColor=#000000;exitX=-0.002;exitY=0.772;exitDx=0;exitDy=0;exitPerimeter=0;entryX=0.998;entryY=0.773;entryDx=0;entryDy=0;entryPerimeter=0;" parent="1" source="5pANUjkfFs7lt7HWfWe9-259" target="5pANUjkfFs7lt7HWfWe9-259" edge="1">
          <mxGeometry width="50" height="50" relative="1" as="geometry">
            <mxPoint x="572.005" y="2060.976" as="sourcePoint" />
            <mxPoint x="739.75" y="2060" as="targetPoint" />
          </mxGeometry>
        </mxCell>
        <mxCell id="5pANUjkfFs7lt7HWfWe9-264" value="令牌桶大小 500字节" style="text;html=1;strokeColor=none;fillColor=none;align=center;verticalAlign=middle;whiteSpace=wrap;rounded=0;fontSize=18;fontColor=#000000;" parent="1" vertex="1">
          <mxGeometry x="556.75" y="1928" width="173" height="20" as="geometry" />
        </mxCell>
        <mxCell id="5pANUjkfFs7lt7HWfWe9-265" value="整形器组ID2" style="text;html=1;strokeColor=none;fillColor=none;align=center;verticalAlign=middle;whiteSpace=wrap;rounded=0;fontSize=22;fontColor=#000000;" parent="1" vertex="1">
          <mxGeometry x="575" y="2023" width="159" height="20" as="geometry" />
        </mxCell>
        <mxCell id="5pANUjkfFs7lt7HWfWe9-266" value="丢弃" style="text;html=1;strokeColor=none;fillColor=none;align=center;verticalAlign=middle;whiteSpace=wrap;rounded=0;fontSize=22;fontColor=#000000;" parent="1" vertex="1">
          <mxGeometry x="567.5" y="2079" width="159" height="20" as="geometry" />
        </mxCell>
        <mxCell id="5pANUjkfFs7lt7HWfWe9-267" value="令牌桶速率 10Mbits/s" style="text;html=1;strokeColor=none;fillColor=none;align=center;verticalAlign=middle;whiteSpace=wrap;rounded=0;fontSize=18;fontColor=#000000;" parent="1" vertex="1">
          <mxGeometry x="552.75" y="1967" width="188.5" height="20" as="geometry" />
        </mxCell>
        <mxCell id="5pANUjkfFs7lt7HWfWe9-268" value="" style="rounded=0;whiteSpace=wrap;html=1;strokeColor=#000000;strokeWidth=2;fontSize=22;fontColor=#000000;" parent="1" vertex="1">
          <mxGeometry x="772.5799999999999" y="1859" width="187" height="261" as="geometry" />
        </mxCell>
        <mxCell id="5pANUjkfFs7lt7HWfWe9-269" value="" style="endArrow=none;html=1;shadow=0;strokeColor=#000000;strokeWidth=2;fontSize=22;fontColor=#000000;exitX=0.007;exitY=0.197;exitDx=0;exitDy=0;exitPerimeter=0;entryX=0.998;entryY=0.198;entryDx=0;entryDy=0;entryPerimeter=0;" parent="1" source="5pANUjkfFs7lt7HWfWe9-268" target="5pANUjkfFs7lt7HWfWe9-268" edge="1">
          <mxGeometry width="50" height="50" relative="1" as="geometry">
            <mxPoint x="788.2149999999999" y="1911.976" as="sourcePoint" />
            <mxPoint x="956.4000000000001" y="1911" as="targetPoint" />
          </mxGeometry>
        </mxCell>
        <mxCell id="5pANUjkfFs7lt7HWfWe9-270" value="整形器5" style="text;html=1;strokeColor=none;fillColor=none;align=center;verticalAlign=middle;whiteSpace=wrap;rounded=0;fontSize=22;fontColor=#000000;fontStyle=1" parent="1" vertex="1">
          <mxGeometry x="814.0799999999999" y="1877" width="112" height="20" as="geometry" />
        </mxCell>
        <mxCell id="5pANUjkfFs7lt7HWfWe9-271" value="" style="endArrow=none;html=1;shadow=0;strokeColor=#000000;strokeWidth=2;fontSize=22;fontColor=#000000;exitX=-0.002;exitY=0.557;exitDx=0;exitDy=0;exitPerimeter=0;entryX=0.999;entryY=0.557;entryDx=0;entryDy=0;entryPerimeter=0;" parent="1" source="5pANUjkfFs7lt7HWfWe9-268" target="5pANUjkfFs7lt7HWfWe9-268" edge="1">
          <mxGeometry width="50" height="50" relative="1" as="geometry">
            <mxPoint x="789.2349999999999" y="2003.976" as="sourcePoint" />
            <mxPoint x="957.5799999999999" y="2003" as="targetPoint" />
          </mxGeometry>
        </mxCell>
        <mxCell id="5pANUjkfFs7lt7HWfWe9-272" value="" style="endArrow=none;html=1;shadow=0;strokeColor=#000000;strokeWidth=2;fontSize=22;fontColor=#000000;exitX=-0.002;exitY=0.772;exitDx=0;exitDy=0;exitPerimeter=0;entryX=0.998;entryY=0.773;entryDx=0;entryDy=0;entryPerimeter=0;" parent="1" source="5pANUjkfFs7lt7HWfWe9-268" target="5pANUjkfFs7lt7HWfWe9-268" edge="1">
          <mxGeometry width="50" height="50" relative="1" as="geometry">
            <mxPoint x="790.835" y="2060.976" as="sourcePoint" />
            <mxPoint x="958.5799999999999" y="2060" as="targetPoint" />
          </mxGeometry>
        </mxCell>
        <mxCell id="5pANUjkfFs7lt7HWfWe9-273" value="令牌桶大小 500字节" style="text;html=1;strokeColor=none;fillColor=none;align=center;verticalAlign=middle;whiteSpace=wrap;rounded=0;fontSize=18;fontColor=#000000;" parent="1" vertex="1">
          <mxGeometry x="775.5799999999999" y="1928" width="173" height="20" as="geometry" />
        </mxCell>
        <mxCell id="5pANUjkfFs7lt7HWfWe9-274" value="整形器组ID3" style="text;html=1;strokeColor=none;fillColor=none;align=center;verticalAlign=middle;whiteSpace=wrap;rounded=0;fontSize=22;fontColor=#000000;" parent="1" vertex="1">
          <mxGeometry x="793.8299999999999" y="2023" width="159" height="20" as="geometry" />
        </mxCell>
        <mxCell id="5pANUjkfFs7lt7HWfWe9-275" value="丢弃" style="text;html=1;strokeColor=none;fillColor=none;align=center;verticalAlign=middle;whiteSpace=wrap;rounded=0;fontSize=22;fontColor=#000000;" parent="1" vertex="1">
          <mxGeometry x="786.3299999999999" y="2079" width="159" height="20" as="geometry" />
        </mxCell>
        <mxCell id="5pANUjkfFs7lt7HWfWe9-276" value="令牌桶速率 10Mbits/s" style="text;html=1;strokeColor=none;fillColor=none;align=center;verticalAlign=middle;whiteSpace=wrap;rounded=0;fontSize=18;fontColor=#000000;" parent="1" vertex="1">
          <mxGeometry x="771.5799999999999" y="1967" width="188.5" height="20" as="geometry" />
        </mxCell>
        <mxCell id="5pANUjkfFs7lt7HWfWe9-278" value="" style="rounded=0;whiteSpace=wrap;html=1;strokeColor=#000000;strokeWidth=2;fontSize=22;fontColor=#000000;" parent="1" vertex="1">
          <mxGeometry x="986.75" y="1859" width="187" height="261" as="geometry" />
        </mxCell>
        <mxCell id="5pANUjkfFs7lt7HWfWe9-279" value="" style="endArrow=none;html=1;shadow=0;strokeColor=#000000;strokeWidth=2;fontSize=22;fontColor=#000000;exitX=0.007;exitY=0.197;exitDx=0;exitDy=0;exitPerimeter=0;entryX=0.998;entryY=0.198;entryDx=0;entryDy=0;entryPerimeter=0;" parent="1" source="5pANUjkfFs7lt7HWfWe9-278" target="5pANUjkfFs7lt7HWfWe9-278" edge="1">
          <mxGeometry width="50" height="50" relative="1" as="geometry">
            <mxPoint x="1002.3849999999998" y="1911.976" as="sourcePoint" />
            <mxPoint x="1170.5700000000002" y="1911" as="targetPoint" />
          </mxGeometry>
        </mxCell>
        <mxCell id="5pANUjkfFs7lt7HWfWe9-280" value="整形器9" style="text;html=1;strokeColor=none;fillColor=none;align=center;verticalAlign=middle;whiteSpace=wrap;rounded=0;fontSize=22;fontColor=#000000;fontStyle=1" parent="1" vertex="1">
          <mxGeometry x="1028.25" y="1877" width="112" height="20" as="geometry" />
        </mxCell>
        <mxCell id="5pANUjkfFs7lt7HWfWe9-281" value="" style="endArrow=none;html=1;shadow=0;strokeColor=#000000;strokeWidth=2;fontSize=22;fontColor=#000000;exitX=-0.002;exitY=0.557;exitDx=0;exitDy=0;exitPerimeter=0;entryX=0.999;entryY=0.557;entryDx=0;entryDy=0;entryPerimeter=0;" parent="1" source="5pANUjkfFs7lt7HWfWe9-278" target="5pANUjkfFs7lt7HWfWe9-278" edge="1">
          <mxGeometry width="50" height="50" relative="1" as="geometry">
            <mxPoint x="1003.4049999999997" y="2003.976" as="sourcePoint" />
            <mxPoint x="1171.75" y="2003" as="targetPoint" />
          </mxGeometry>
        </mxCell>
        <mxCell id="5pANUjkfFs7lt7HWfWe9-282" value="" style="endArrow=none;html=1;shadow=0;strokeColor=#000000;strokeWidth=2;fontSize=22;fontColor=#000000;exitX=-0.002;exitY=0.772;exitDx=0;exitDy=0;exitPerimeter=0;entryX=0.998;entryY=0.773;entryDx=0;entryDy=0;entryPerimeter=0;" parent="1" source="5pANUjkfFs7lt7HWfWe9-278" target="5pANUjkfFs7lt7HWfWe9-278" edge="1">
          <mxGeometry width="50" height="50" relative="1" as="geometry">
            <mxPoint x="1005.0050000000001" y="2060.976" as="sourcePoint" />
            <mxPoint x="1172.75" y="2060" as="targetPoint" />
          </mxGeometry>
        </mxCell>
        <mxCell id="5pANUjkfFs7lt7HWfWe9-283" value="令牌桶大小 500字节" style="text;html=1;strokeColor=none;fillColor=none;align=center;verticalAlign=middle;whiteSpace=wrap;rounded=0;fontSize=18;fontColor=#000000;" parent="1" vertex="1">
          <mxGeometry x="989.75" y="1928" width="173" height="20" as="geometry" />
        </mxCell>
        <mxCell id="5pANUjkfFs7lt7HWfWe9-284" value="整形器组ID4" style="text;html=1;strokeColor=none;fillColor=none;align=center;verticalAlign=middle;whiteSpace=wrap;rounded=0;fontSize=22;fontColor=#000000;" parent="1" vertex="1">
          <mxGeometry x="1008" y="2023" width="159" height="20" as="geometry" />
        </mxCell>
        <mxCell id="5pANUjkfFs7lt7HWfWe9-285" value="丢弃" style="text;html=1;strokeColor=none;fillColor=none;align=center;verticalAlign=middle;whiteSpace=wrap;rounded=0;fontSize=22;fontColor=#000000;" parent="1" vertex="1">
          <mxGeometry x="1000.5" y="2079" width="159" height="20" as="geometry" />
        </mxCell>
        <mxCell id="5pANUjkfFs7lt7HWfWe9-286" value="令牌桶速率 10Mbits/s" style="text;html=1;strokeColor=none;fillColor=none;align=center;verticalAlign=middle;whiteSpace=wrap;rounded=0;fontSize=18;fontColor=#000000;" parent="1" vertex="1">
          <mxGeometry x="985.75" y="1967" width="188.5" height="20" as="geometry" />
        </mxCell>
        <mxCell id="5pANUjkfFs7lt7HWfWe9-287" value="&lt;span style=&quot;color: rgb(0, 0, 0); font-family: helvetica; font-size: 22px; font-style: normal; letter-spacing: normal; text-align: center; text-indent: 0px; text-transform: none; word-spacing: 0px; background-color: rgb(255, 255, 255); display: inline; float: none;&quot;&gt;共享队列1&lt;/span&gt;" style="text;whiteSpace=wrap;html=1;fontSize=22;fontColor=#000000;fontStyle=1" parent="1" vertex="1">
          <mxGeometry x="370.4988235294117" y="2187.997647058823" width="116" height="39" as="geometry" />
        </mxCell>
        <mxCell id="5pANUjkfFs7lt7HWfWe9-288" value="" style="endArrow=none;html=1;shadow=0;strokeColor=#000000;strokeWidth=2;fontSize=22;fontColor=#000000;exitX=-0.002;exitY=0.772;exitDx=0;exitDy=0;exitPerimeter=0;entryX=0.998;entryY=0.773;entryDx=0;entryDy=0;entryPerimeter=0;" parent="1" edge="1">
          <mxGeometry width="50" height="50" relative="1" as="geometry">
            <mxPoint x="331.496" y="2228.0220000000004" as="sourcePoint" />
            <mxPoint x="518.4960000000002" y="2228.283" as="targetPoint" />
          </mxGeometry>
        </mxCell>
        <mxCell id="5pANUjkfFs7lt7HWfWe9-289" value="&lt;div style=&quot;text-align: center; font-size: 22px;&quot;&gt;&lt;font face=&quot;helvetica&quot; style=&quot;font-size: 22px;&quot;&gt;&lt;span style=&quot;font-size: 22px;&quot;&gt;内部优先级0&lt;/span&gt;&lt;/font&gt;&lt;/div&gt;" style="text;whiteSpace=wrap;html=1;fontSize=22;fontColor=#000000;" parent="1" vertex="1">
          <mxGeometry x="357.63" y="2245.02" width="147.75" height="39" as="geometry" />
        </mxCell>
        <mxCell id="5pANUjkfFs7lt7HWfWe9-290" value="" style="rounded=0;whiteSpace=wrap;html=1;strokeColor=#000000;strokeWidth=2;fontSize=22;fontColor=#000000;" parent="1" vertex="1">
          <mxGeometry x="555.75" y="2182.02" width="184" height="122.98" as="geometry" />
        </mxCell>
        <mxCell id="5pANUjkfFs7lt7HWfWe9-291" value="&lt;span style=&quot;color: rgb(0, 0, 0); font-family: helvetica; font-size: 22px; font-style: normal; letter-spacing: normal; text-align: center; text-indent: 0px; text-transform: none; word-spacing: 0px; background-color: rgb(255, 255, 255); display: inline; float: none;&quot;&gt;共享队列2&lt;/span&gt;" style="text;whiteSpace=wrap;html=1;fontSize=22;fontColor=#000000;fontStyle=1" parent="1" vertex="1">
          <mxGeometry x="596.5088235294118" y="2187.997647058823" width="116" height="39" as="geometry" />
        </mxCell>
        <mxCell id="5pANUjkfFs7lt7HWfWe9-292" value="" style="endArrow=none;html=1;shadow=0;strokeColor=#000000;strokeWidth=2;fontSize=22;fontColor=#000000;exitX=-0.002;exitY=0.772;exitDx=0;exitDy=0;exitPerimeter=0;entryX=0.998;entryY=0.773;entryDx=0;entryDy=0;entryPerimeter=0;" parent="1" edge="1">
          <mxGeometry width="50" height="50" relative="1" as="geometry">
            <mxPoint x="554.2460000000001" y="2228.0220000000004" as="sourcePoint" />
            <mxPoint x="741.2460000000003" y="2228.283" as="targetPoint" />
          </mxGeometry>
        </mxCell>
        <mxCell id="5pANUjkfFs7lt7HWfWe9-293" value="&lt;div style=&quot;text-align: center; font-size: 22px;&quot;&gt;&lt;font face=&quot;helvetica&quot; style=&quot;font-size: 22px;&quot;&gt;&lt;span style=&quot;font-size: 22px;&quot;&gt;内部优先级1&lt;/span&gt;&lt;/font&gt;&lt;/div&gt;" style="text;whiteSpace=wrap;html=1;fontSize=22;fontColor=#000000;" parent="1" vertex="1">
          <mxGeometry x="580.63" y="2245.02" width="147.75" height="39" as="geometry" />
        </mxCell>
        <mxCell id="5pANUjkfFs7lt7HWfWe9-294" value="" style="rounded=0;whiteSpace=wrap;html=1;strokeColor=#000000;strokeWidth=2;fontSize=22;fontColor=#000000;" parent="1" vertex="1">
          <mxGeometry x="773.8299999999999" y="2182.0200000000004" width="184" height="122" as="geometry" />
        </mxCell>
        <mxCell id="5pANUjkfFs7lt7HWfWe9-295" value="&lt;span style=&quot;color: rgb(0, 0, 0); font-family: helvetica; font-size: 22px; font-style: normal; letter-spacing: normal; text-align: center; text-indent: 0px; text-transform: none; word-spacing: 0px; background-color: rgb(255, 255, 255); display: inline; float: none;&quot;&gt;共享队列3&lt;/span&gt;" style="text;whiteSpace=wrap;html=1;fontSize=22;fontColor=#000000;fontStyle=1" parent="1" vertex="1">
          <mxGeometry x="815.3288235294117" y="2187.9976470588235" width="116" height="39" as="geometry" />
        </mxCell>
        <mxCell id="5pANUjkfFs7lt7HWfWe9-296" value="" style="endArrow=none;html=1;shadow=0;strokeColor=#000000;strokeWidth=2;fontSize=22;fontColor=#000000;exitX=-0.002;exitY=0.772;exitDx=0;exitDy=0;exitPerimeter=0;entryX=0.998;entryY=0.773;entryDx=0;entryDy=0;entryPerimeter=0;" parent="1" edge="1">
          <mxGeometry width="50" height="50" relative="1" as="geometry">
            <mxPoint x="772.326" y="2228.022000000001" as="sourcePoint" />
            <mxPoint x="959.3260000000002" y="2228.2830000000004" as="targetPoint" />
          </mxGeometry>
        </mxCell>
        <mxCell id="5pANUjkfFs7lt7HWfWe9-297" value="&lt;div style=&quot;text-align: center; font-size: 22px;&quot;&gt;&lt;font face=&quot;helvetica&quot; style=&quot;font-size: 22px;&quot;&gt;&lt;span style=&quot;font-size: 22px;&quot;&gt;内部优先级2&lt;/span&gt;&lt;/font&gt;&lt;/div&gt;" style="text;whiteSpace=wrap;html=1;fontSize=22;fontColor=#000000;" parent="1" vertex="1">
          <mxGeometry x="799.4599999999999" y="2245.0200000000004" width="147.75" height="39" as="geometry" />
        </mxCell>
        <mxCell id="5pANUjkfFs7lt7HWfWe9-298" value="" style="rounded=0;whiteSpace=wrap;html=1;strokeColor=#000000;strokeWidth=2;fontSize=22;fontColor=#000000;" parent="1" vertex="1">
          <mxGeometry x="987.17" y="2182.02" width="184" height="122" as="geometry" />
        </mxCell>
        <mxCell id="5pANUjkfFs7lt7HWfWe9-299" value="&lt;span style=&quot;color: rgb(0, 0, 0); font-family: helvetica; font-size: 22px; font-style: normal; letter-spacing: normal; text-align: center; text-indent: 0px; text-transform: none; word-spacing: 0px; background-color: rgb(255, 255, 255); display: inline; float: none;&quot;&gt;共享队列4&lt;/span&gt;" style="text;whiteSpace=wrap;html=1;fontSize=22;fontColor=#000000;fontStyle=1" parent="1" vertex="1">
          <mxGeometry x="1022.8288235294119" y="2187.997647058823" width="116" height="39" as="geometry" />
        </mxCell>
        <mxCell id="5pANUjkfFs7lt7HWfWe9-300" value="" style="endArrow=none;html=1;shadow=0;strokeColor=#000000;strokeWidth=2;fontSize=22;fontColor=#000000;exitX=-0.002;exitY=0.772;exitDx=0;exitDy=0;exitPerimeter=0;entryX=0.998;entryY=0.773;entryDx=0;entryDy=0;entryPerimeter=0;" parent="1" edge="1">
          <mxGeometry width="50" height="50" relative="1" as="geometry">
            <mxPoint x="985.666" y="2228.0220000000004" as="sourcePoint" />
            <mxPoint x="1172.6660000000004" y="2228.283" as="targetPoint" />
          </mxGeometry>
        </mxCell>
        <mxCell id="5pANUjkfFs7lt7HWfWe9-301" value="&lt;div style=&quot;text-align: center; font-size: 22px;&quot;&gt;&lt;font face=&quot;helvetica&quot; style=&quot;font-size: 22px;&quot;&gt;&lt;span style=&quot;font-size: 22px;&quot;&gt;内部优先级3&lt;/span&gt;&lt;/font&gt;&lt;/div&gt;" style="text;whiteSpace=wrap;html=1;fontSize=22;fontColor=#000000;" parent="1" vertex="1">
          <mxGeometry x="1015" y="2245.02" width="147.75" height="39" as="geometry" />
        </mxCell>
        <mxCell id="5pANUjkfFs7lt7HWfWe9-302" value="" style="endArrow=none;html=1;shadow=0;strokeColor=#000000;strokeWidth=2;fontSize=22;fontColor=#000000;exitX=0.5;exitY=1;exitDx=0;exitDy=0;entryX=0.5;entryY=0;entryDx=0;entryDy=0;" parent="1" source="5pANUjkfFs7lt7HWfWe9-209" target="5pANUjkfFs7lt7HWfWe9-234" edge="1">
          <mxGeometry width="50" height="50" relative="1" as="geometry">
            <mxPoint x="682" y="2112" as="sourcePoint" />
            <mxPoint x="868" y="2179" as="targetPoint" />
          </mxGeometry>
        </mxCell>
        <mxCell id="5pANUjkfFs7lt7HWfWe9-306" value="" style="endArrow=none;html=1;shadow=0;strokeColor=#000000;strokeWidth=2;fontSize=22;fontColor=#000000;exitX=0.5;exitY=1;exitDx=0;exitDy=0;entryX=0.5;entryY=0;entryDx=0;entryDy=0;" parent="1" source="5pANUjkfFs7lt7HWfWe9-259" target="5pANUjkfFs7lt7HWfWe9-294" edge="1">
          <mxGeometry width="50" height="50" relative="1" as="geometry">
            <mxPoint x="645.8299999999998" y="2117.9999999999995" as="sourcePoint" />
            <mxPoint x="646.33" y="2180.02" as="targetPoint" />
          </mxGeometry>
        </mxCell>
        <mxCell id="5pANUjkfFs7lt7HWfWe9-307" value="" style="endArrow=none;html=1;shadow=0;strokeColor=#000000;strokeWidth=2;fontSize=22;fontColor=#000000;exitX=0.5;exitY=1;exitDx=0;exitDy=0;entryX=0.5;entryY=0;entryDx=0;entryDy=0;" parent="1" source="5pANUjkfFs7lt7HWfWe9-268" target="5pANUjkfFs7lt7HWfWe9-290" edge="1">
          <mxGeometry width="50" height="50" relative="1" as="geometry">
            <mxPoint x="649.5099999999998" y="2123.0099999999998" as="sourcePoint" />
            <mxPoint x="650.01" y="2185.03" as="targetPoint" />
          </mxGeometry>
        </mxCell>
        <mxCell id="5pANUjkfFs7lt7HWfWe9-308" value="" style="endArrow=none;html=1;shadow=0;strokeColor=#000000;strokeWidth=2;fontSize=22;fontColor=#000000;exitX=0.5;exitY=1;exitDx=0;exitDy=0;entryX=0.5;entryY=0;entryDx=0;entryDy=0;" parent="1" edge="1">
          <mxGeometry width="50" height="50" relative="1" as="geometry">
            <mxPoint x="1082.8799999999997" y="2117.9999999999995" as="sourcePoint" />
            <mxPoint x="1083.38" y="2180.02" as="targetPoint" />
          </mxGeometry>
        </mxCell>
        <mxCell id="5pANUjkfFs7lt7HWfWe9-310" value="" style="endArrow=none;html=1;shadow=0;strokeColor=#000000;strokeWidth=2;fontSize=22;fontColor=#000000;exitX=0.474;exitY=0.999;exitDx=0;exitDy=0;exitPerimeter=0;" parent="1" source="5pANUjkfFs7lt7HWfWe9-234" edge="1">
          <mxGeometry width="50" height="50" relative="1" as="geometry">
            <mxPoint x="419.91" y="2309" as="sourcePoint" />
            <mxPoint x="420" y="2371" as="targetPoint" />
          </mxGeometry>
        </mxCell>
        <mxCell id="5pANUjkfFs7lt7HWfWe9-311" value="" style="endArrow=none;html=1;shadow=0;strokeColor=#000000;strokeWidth=2;fontSize=22;fontColor=#000000;exitX=0.474;exitY=0.999;exitDx=0;exitDy=0;exitPerimeter=0;" parent="1" edge="1">
          <mxGeometry width="50" height="50" relative="1" as="geometry">
            <mxPoint x="643.1760000000002" y="2304.018" as="sourcePoint" />
            <mxPoint x="642.96" y="2371.12" as="targetPoint" />
          </mxGeometry>
        </mxCell>
        <mxCell id="5pANUjkfFs7lt7HWfWe9-312" value="" style="endArrow=none;html=1;shadow=0;strokeColor=#000000;strokeWidth=2;fontSize=22;fontColor=#000000;exitX=0.474;exitY=0.999;exitDx=0;exitDy=0;exitPerimeter=0;" parent="1" edge="1">
          <mxGeometry width="50" height="50" relative="1" as="geometry">
            <mxPoint x="1084.1760000000002" y="2305.898" as="sourcePoint" />
            <mxPoint x="1083.96" y="2373" as="targetPoint" />
          </mxGeometry>
        </mxCell>
        <mxCell id="5pANUjkfFs7lt7HWfWe9-313" value="" style="endArrow=none;html=1;shadow=0;strokeColor=#000000;strokeWidth=2;fontSize=22;fontColor=#000000;exitX=0.474;exitY=0.999;exitDx=0;exitDy=0;exitPerimeter=0;" parent="1" edge="1">
          <mxGeometry width="50" height="50" relative="1" as="geometry">
            <mxPoint x="869.8860000000002" y="2305.898" as="sourcePoint" />
            <mxPoint x="869.6700000000001" y="2373" as="targetPoint" />
          </mxGeometry>
        </mxCell>
        <mxCell id="5pANUjkfFs7lt7HWfWe9-314" value="1" style="text;html=1;strokeColor=none;fillColor=none;align=center;verticalAlign=middle;whiteSpace=wrap;rounded=0;fontSize=22;fontColor=#000000;" parent="1" vertex="1">
          <mxGeometry x="-75" y="1768" width="130" height="20" as="geometry" />
        </mxCell>
        <mxCell id="5pANUjkfFs7lt7HWfWe9-315" value="2" style="text;html=1;strokeColor=none;fillColor=none;align=center;verticalAlign=middle;whiteSpace=wrap;rounded=0;fontSize=22;fontColor=#000000;" parent="1" vertex="1">
          <mxGeometry x="-75" y="1824" width="130" height="20" as="geometry" />
        </mxCell>
        <mxCell id="5pANUjkfFs7lt7HWfWe9-316" value="3" style="text;html=1;strokeColor=none;fillColor=none;align=center;verticalAlign=middle;whiteSpace=wrap;rounded=0;fontSize=22;fontColor=#000000;" parent="1" vertex="1">
          <mxGeometry x="-75" y="1879" width="130" height="20" as="geometry" />
        </mxCell>
        <mxCell id="5pANUjkfFs7lt7HWfWe9-317" value="4" style="text;html=1;strokeColor=none;fillColor=none;align=center;verticalAlign=middle;whiteSpace=wrap;rounded=0;fontSize=22;fontColor=#000000;" parent="1" vertex="1">
          <mxGeometry x="-75" y="1932" width="130" height="20" as="geometry" />
        </mxCell>
        <mxCell id="5pANUjkfFs7lt7HWfWe9-318" value="5" style="text;html=1;strokeColor=none;fillColor=none;align=center;verticalAlign=middle;whiteSpace=wrap;rounded=0;fontSize=22;fontColor=#000000;" parent="1" vertex="1">
          <mxGeometry x="-75" y="1984" width="130" height="20" as="geometry" />
        </mxCell>
        <mxCell id="5pANUjkfFs7lt7HWfWe9-319" value="&lt;blockquote style=&quot;font-size: 22px;&quot;&gt;&lt;font style=&quot;font-size: 22px;&quot;&gt;....&lt;/font&gt;&lt;/blockquote&gt;" style="text;html=1;strokeColor=none;fillColor=none;align=center;verticalAlign=middle;whiteSpace=wrap;rounded=0;fontSize=22;fontColor=#000000;" parent="1" vertex="1">
          <mxGeometry x="-75" y="2044" width="130" height="20" as="geometry" />
        </mxCell>
        <mxCell id="5pANUjkfFs7lt7HWfWe9-320" value="12μs" style="text;html=1;strokeColor=none;fillColor=none;align=center;verticalAlign=middle;whiteSpace=wrap;rounded=0;fontSize=22;fontColor=#000000;" parent="1" vertex="1">
          <mxGeometry x="71.5" y="1772" width="130" height="20" as="geometry" />
        </mxCell>
        <mxCell id="5pANUjkfFs7lt7HWfWe9-321" value="20μs" style="text;html=1;strokeColor=none;fillColor=none;align=center;verticalAlign=middle;whiteSpace=wrap;rounded=0;fontSize=22;fontColor=#000000;" parent="1" vertex="1">
          <mxGeometry x="71.5" y="1828" width="130" height="20" as="geometry" />
        </mxCell>
        <mxCell id="5pANUjkfFs7lt7HWfWe9-322" value="500ns" style="text;html=1;strokeColor=none;fillColor=none;align=center;verticalAlign=middle;whiteSpace=wrap;rounded=0;fontSize=22;fontColor=#000000;" parent="1" vertex="1">
          <mxGeometry x="71.5" y="1881" width="130" height="20" as="geometry" />
        </mxCell>
        <mxCell id="5pANUjkfFs7lt7HWfWe9-323" value="100μs" style="text;html=1;strokeColor=none;fillColor=none;align=center;verticalAlign=middle;whiteSpace=wrap;rounded=0;fontSize=22;fontColor=#000000;" parent="1" vertex="1">
          <mxGeometry x="74" y="1934" width="130" height="20" as="geometry" />
        </mxCell>
        <mxCell id="5pANUjkfFs7lt7HWfWe9-324" value="260μs" style="text;html=1;strokeColor=none;fillColor=none;align=center;verticalAlign=middle;whiteSpace=wrap;rounded=0;fontSize=22;fontColor=#000000;" parent="1" vertex="1">
          <mxGeometry x="74" y="1986" width="130" height="20" as="geometry" />
        </mxCell>
        <mxCell id="5pANUjkfFs7lt7HWfWe9-326" value="" style="endArrow=classic;html=1;shadow=0;strokeColor=#000000;strokeWidth=2;fontSize=22;fontColor=#000000;exitX=0.713;exitY=0.983;exitDx=0;exitDy=0;exitPerimeter=0;entryX=-0.01;entryY=0.658;entryDx=0;entryDy=0;entryPerimeter=0;dashed=1;" parent="1" source="5pANUjkfFs7lt7HWfWe9-320" target="5pANUjkfFs7lt7HWfWe9-209" edge="1">
          <mxGeometry width="50" height="50" relative="1" as="geometry">
            <mxPoint x="308" y="1942" as="sourcePoint" />
            <mxPoint x="358" y="1892" as="targetPoint" />
          </mxGeometry>
        </mxCell>
        <mxCell id="5pANUjkfFs7lt7HWfWe9-327" value="" style="endArrow=classic;html=1;shadow=0;strokeColor=#000000;strokeWidth=2;fontSize=22;fontColor=#000000;exitX=0.75;exitY=1;exitDx=0;exitDy=0;entryX=-0.007;entryY=0.697;entryDx=0;entryDy=0;entryPerimeter=0;dashed=1;" parent="1" source="5pANUjkfFs7lt7HWfWe9-321" target="5pANUjkfFs7lt7HWfWe9-259" edge="1">
          <mxGeometry width="50" height="50" relative="1" as="geometry">
            <mxPoint x="231.01700000000028" y="1790.498" as="sourcePoint" />
            <mxPoint x="538" y="2142" as="targetPoint" />
            <Array as="points">
              <mxPoint x="275" y="2142" />
              <mxPoint x="524" y="2142" />
            </Array>
          </mxGeometry>
        </mxCell>
        <mxCell id="5pANUjkfFs7lt7HWfWe9-328" value="" style="endArrow=classic;html=1;shadow=0;strokeColor=#000000;strokeWidth=2;fontSize=22;fontColor=#000000;exitX=0.681;exitY=1.158;exitDx=0;exitDy=0;exitPerimeter=0;entryX=0.008;entryY=0.674;entryDx=0;entryDy=0;entryPerimeter=0;dashed=1;" parent="1" source="5pANUjkfFs7lt7HWfWe9-322" target="5pANUjkfFs7lt7HWfWe9-268" edge="1">
          <mxGeometry width="50" height="50" relative="1" as="geometry">
            <mxPoint x="180.44" y="1894.002" as="sourcePoint" />
            <mxPoint x="512.8810000000003" y="2099.017" as="targetPoint" />
            <Array as="points">
              <mxPoint x="262" y="2162" />
              <mxPoint x="582" y="2162" />
            </Array>
          </mxGeometry>
        </mxCell>
        <mxCell id="5pANUjkfFs7lt7HWfWe9-329" value="" style="endArrow=classic;html=1;shadow=0;strokeColor=#000000;strokeWidth=2;fontSize=22;fontColor=#000000;exitX=0.674;exitY=1.175;exitDx=0;exitDy=0;exitPerimeter=0;dashed=1;" parent="1" source="5pANUjkfFs7lt7HWfWe9-323" target="5pANUjkfFs7lt7HWfWe9-278" edge="1">
          <mxGeometry width="50" height="50" relative="1" as="geometry">
            <mxPoint x="170.0300000000002" y="1914.1599999999999" as="sourcePoint" />
            <mxPoint x="784.076" y="2044.9139999999998" as="targetPoint" />
            <Array as="points">
              <mxPoint x="238" y="2178" />
              <mxPoint x="605" y="2178" />
            </Array>
          </mxGeometry>
        </mxCell>
        <mxCell id="5pANUjkfFs7lt7HWfWe9-331" value="" style="endArrow=none;html=1;shadow=0;strokeColor=#000000;strokeWidth=2;fontSize=22;fontColor=#000000;exitX=0.495;exitY=0;exitDx=0;exitDy=0;entryX=0.118;entryY=0.984;entryDx=0;entryDy=0;entryPerimeter=0;exitPerimeter=0;" parent="1" source="5pANUjkfFs7lt7HWfWe9-123" target="5pANUjkfFs7lt7HWfWe9-122" edge="1">
          <mxGeometry width="50" height="50" relative="1" as="geometry">
            <mxPoint x="345" y="1502" as="sourcePoint" />
            <mxPoint x="430" y="1307" as="targetPoint" />
          </mxGeometry>
        </mxCell>
        <mxCell id="5pANUjkfFs7lt7HWfWe9-332" value="" style="endArrow=none;html=1;shadow=0;strokeColor=#000000;strokeWidth=2;fontSize=22;fontColor=#000000;exitX=0.495;exitY=0;exitDx=0;exitDy=0;entryX=0.118;entryY=0.984;entryDx=0;entryDy=0;entryPerimeter=0;exitPerimeter=0;" parent="1" edge="1">
          <mxGeometry width="50" height="50" relative="1" as="geometry">
            <mxPoint x="642.9975" y="1339" as="sourcePoint" />
            <mxPoint x="643.24" y="1305.04" as="targetPoint" />
          </mxGeometry>
        </mxCell>
        <mxCell id="5pANUjkfFs7lt7HWfWe9-333" value="" style="endArrow=none;html=1;shadow=0;strokeColor=#000000;strokeWidth=2;fontSize=22;fontColor=#000000;exitX=0.495;exitY=0;exitDx=0;exitDy=0;entryX=0.118;entryY=0.984;entryDx=0;entryDy=0;entryPerimeter=0;exitPerimeter=0;" parent="1" edge="1">
          <mxGeometry width="50" height="50" relative="1" as="geometry">
            <mxPoint x="865.6675" y="1339" as="sourcePoint" />
            <mxPoint x="865.9100000000001" y="1305.04" as="targetPoint" />
          </mxGeometry>
        </mxCell>
        <mxCell id="5pANUjkfFs7lt7HWfWe9-334" value="" style="endArrow=none;html=1;shadow=0;strokeColor=#000000;strokeWidth=2;fontSize=22;fontColor=#000000;exitX=0.495;exitY=0;exitDx=0;exitDy=0;entryX=0.118;entryY=0.984;entryDx=0;entryDy=0;entryPerimeter=0;exitPerimeter=0;" parent="1" edge="1">
          <mxGeometry width="50" height="50" relative="1" as="geometry">
            <mxPoint x="1083.7475000000002" y="1339" as="sourcePoint" />
            <mxPoint x="1083.99" y="1305.04" as="targetPoint" />
          </mxGeometry>
        </mxCell>
        <mxCell id="5pANUjkfFs7lt7HWfWe9-338" value="" style="rounded=0;whiteSpace=wrap;html=1;strokeColor=#000000;strokeWidth=3;fontSize=21;fontColor=#000000;shadow=1;glass=0;sketch=0;" parent="1" vertex="1">
          <mxGeometry x="1610" y="1778" width="852" height="333" as="geometry" />
        </mxCell>
        <mxCell id="5pANUjkfFs7lt7HWfWe9-339" value="&lt;blockquote&gt;输入&lt;/blockquote&gt;" style="rounded=0;whiteSpace=wrap;html=1;strokeColor=#000000;strokeWidth=3;fontSize=21;fontColor=#000000;" parent="1" vertex="1">
          <mxGeometry x="1610" y="1861" width="53" height="156" as="geometry" />
        </mxCell>
        <mxCell id="5pANUjkfFs7lt7HWfWe9-341" value="&lt;blockquote&gt;解析&lt;/blockquote&gt;" style="rounded=0;whiteSpace=wrap;html=1;strokeColor=#000000;strokeWidth=3;fontSize=21;fontColor=#000000;" parent="1" vertex="1">
          <mxGeometry x="1712" y="1816" width="73" height="246" as="geometry" />
        </mxCell>
        <mxCell id="5pANUjkfFs7lt7HWfWe9-342" value="&lt;blockquote&gt;构建数据包&lt;/blockquote&gt;" style="rounded=0;whiteSpace=wrap;html=1;strokeColor=#000000;strokeWidth=3;fontSize=21;fontColor=#000000;" parent="1" vertex="1">
          <mxGeometry x="2286" y="1824" width="73" height="246" as="geometry" />
        </mxCell>
        <mxCell id="5pANUjkfFs7lt7HWfWe9-344" value="&lt;blockquote style=&quot;font-size: 22px;&quot;&gt;&lt;br style=&quot;font-size: 22px;&quot;&gt;&lt;/blockquote&gt;" style="rounded=0;whiteSpace=wrap;html=1;strokeWidth=3;fontSize=22;" parent="1" vertex="1">
          <mxGeometry x="1823" y="1802.75" width="100" height="80" as="geometry" />
        </mxCell>
        <mxCell id="5pANUjkfFs7lt7HWfWe9-345" value="&lt;blockquote style=&quot;font-size: 22px;&quot;&gt;&lt;br style=&quot;font-size: 22px;&quot;&gt;&lt;/blockquote&gt;" style="rounded=0;whiteSpace=wrap;html=1;strokeWidth=3;fontSize=22;" parent="1" vertex="1">
          <mxGeometry x="1833" y="1812.75" width="100" height="80" as="geometry" />
        </mxCell>
        <mxCell id="5pANUjkfFs7lt7HWfWe9-346" value="&lt;blockquote style=&quot;font-size: 22px;&quot;&gt;&lt;br style=&quot;font-size: 22px;&quot;&gt;&lt;/blockquote&gt;" style="rounded=0;whiteSpace=wrap;html=1;strokeWidth=3;fontSize=22;" parent="1" vertex="1">
          <mxGeometry x="1843" y="1822.75" width="100" height="80" as="geometry" />
        </mxCell>
        <mxCell id="5pANUjkfFs7lt7HWfWe9-347" value="&lt;blockquote style=&quot;font-size: 22px;&quot;&gt;&lt;br style=&quot;font-size: 22px;&quot;&gt;&lt;/blockquote&gt;" style="rounded=0;whiteSpace=wrap;html=1;strokeWidth=3;fontSize=22;" parent="1" vertex="1">
          <mxGeometry x="1853" y="1832.75" width="100" height="80" as="geometry" />
        </mxCell>
        <mxCell id="5pANUjkfFs7lt7HWfWe9-348" value="&lt;font style=&quot;font-size: 22px;&quot;&gt;表&lt;/font&gt;" style="text;html=1;strokeColor=none;fillColor=none;align=center;verticalAlign=middle;whiteSpace=wrap;rounded=0;fontSize=22;strokeWidth=3;" parent="1" vertex="1">
          <mxGeometry x="1883" y="1847.75" width="40" height="20" as="geometry" />
        </mxCell>
        <mxCell id="5pANUjkfFs7lt7HWfWe9-349" value="&lt;p style=&quot;font-size: 22px&quot;&gt;&lt;font style=&quot;font-size: 22px&quot;&gt;输入流水线&lt;/font&gt;&lt;/p&gt;" style="rounded=0;whiteSpace=wrap;html=1;strokeWidth=3;fontSize=22;" parent="1" vertex="1">
          <mxGeometry x="1823" y="2050.25" width="130" height="35" as="geometry" />
        </mxCell>
        <mxCell id="5pANUjkfFs7lt7HWfWe9-350" value="&lt;h1 style=&quot;font-size: 22px;&quot;&gt;action&lt;/h1&gt;" style="text;html=1;strokeColor=none;fillColor=none;spacing=5;spacingTop=-20;whiteSpace=wrap;overflow=hidden;rounded=0;dashed=1;fontSize=22;strokeWidth=3;" parent="1" vertex="1">
          <mxGeometry x="1843" y="1952.75" width="90" height="40" as="geometry" />
        </mxCell>
        <mxCell id="5pANUjkfFs7lt7HWfWe9-351" value="&lt;h1 style=&quot;font-size: 22px;&quot;&gt;action&lt;/h1&gt;" style="text;html=1;strokeColor=none;fillColor=none;spacing=5;spacingTop=-20;whiteSpace=wrap;overflow=hidden;rounded=0;dashed=1;fontSize=22;strokeWidth=3;" parent="1" vertex="1">
          <mxGeometry x="1843" y="1982.75" width="90" height="40" as="geometry" />
        </mxCell>
        <mxCell id="5pANUjkfFs7lt7HWfWe9-352" value="&lt;h1 style=&quot;font-size: 22px;&quot;&gt;action&lt;/h1&gt;" style="text;html=1;strokeColor=none;fillColor=none;spacing=5;spacingTop=-20;whiteSpace=wrap;overflow=hidden;rounded=0;dashed=1;fontSize=22;strokeWidth=3;" parent="1" vertex="1">
          <mxGeometry x="1843" y="2010.25" width="90" height="40" as="geometry" />
        </mxCell>
        <mxCell id="5pANUjkfFs7lt7HWfWe9-353" value="&lt;h1 style=&quot;color: rgb(0, 0, 0); font-family: helvetica; font-style: normal; letter-spacing: normal; text-align: left; text-indent: 0px; text-transform: none; word-spacing: 0px; background-color: rgb(248, 249, 250); font-size: 22px;&quot;&gt;+&lt;/h1&gt;" style="text;whiteSpace=wrap;html=1;fontSize=22;strokeWidth=3;" parent="1" vertex="1">
          <mxGeometry x="1873" y="1905.25" width="30" height="55" as="geometry" />
        </mxCell>
        <mxCell id="5pANUjkfFs7lt7HWfWe9-354" value="&lt;blockquote style=&quot;font-size: 22px;&quot;&gt;&lt;br style=&quot;font-size: 22px;&quot;&gt;&lt;/blockquote&gt;" style="rounded=0;whiteSpace=wrap;html=1;strokeWidth=3;fontSize=22;" parent="1" vertex="1">
          <mxGeometry x="2111" y="1800.75" width="100" height="80" as="geometry" />
        </mxCell>
        <mxCell id="5pANUjkfFs7lt7HWfWe9-355" value="&lt;blockquote style=&quot;font-size: 22px;&quot;&gt;&lt;br style=&quot;font-size: 22px;&quot;&gt;&lt;/blockquote&gt;" style="rounded=0;whiteSpace=wrap;html=1;strokeWidth=3;fontSize=22;" parent="1" vertex="1">
          <mxGeometry x="2121" y="1810.75" width="100" height="80" as="geometry" />
        </mxCell>
        <mxCell id="5pANUjkfFs7lt7HWfWe9-356" value="&lt;blockquote style=&quot;font-size: 22px;&quot;&gt;&lt;br style=&quot;font-size: 22px;&quot;&gt;&lt;/blockquote&gt;" style="rounded=0;whiteSpace=wrap;html=1;strokeWidth=3;fontSize=22;" parent="1" vertex="1">
          <mxGeometry x="2131" y="1820.75" width="100" height="80" as="geometry" />
        </mxCell>
        <mxCell id="5pANUjkfFs7lt7HWfWe9-357" value="&lt;blockquote style=&quot;font-size: 22px;&quot;&gt;&lt;br style=&quot;font-size: 22px;&quot;&gt;&lt;/blockquote&gt;" style="rounded=0;whiteSpace=wrap;html=1;strokeWidth=3;fontSize=22;" parent="1" vertex="1">
          <mxGeometry x="2141" y="1830.75" width="100" height="80" as="geometry" />
        </mxCell>
        <mxCell id="5pANUjkfFs7lt7HWfWe9-358" value="&lt;font style=&quot;font-size: 22px;&quot;&gt;表&lt;/font&gt;" style="text;html=1;strokeColor=none;fillColor=none;align=center;verticalAlign=middle;whiteSpace=wrap;rounded=0;fontSize=22;strokeWidth=3;" parent="1" vertex="1">
          <mxGeometry x="2171" y="1845.75" width="40" height="20" as="geometry" />
        </mxCell>
        <mxCell id="5pANUjkfFs7lt7HWfWe9-359" value="&lt;p style=&quot;font-size: 22px&quot;&gt;&lt;font style=&quot;font-size: 22px&quot;&gt;输出流水线&lt;/font&gt;&lt;/p&gt;" style="rounded=0;whiteSpace=wrap;html=1;strokeWidth=3;fontSize=22;" parent="1" vertex="1">
          <mxGeometry x="2111" y="2048.25" width="130" height="35" as="geometry" />
        </mxCell>
        <mxCell id="5pANUjkfFs7lt7HWfWe9-360" value="&lt;h1 style=&quot;font-size: 22px;&quot;&gt;action&lt;/h1&gt;" style="text;html=1;strokeColor=none;fillColor=none;spacing=5;spacingTop=-20;whiteSpace=wrap;overflow=hidden;rounded=0;dashed=1;fontSize=22;strokeWidth=3;" parent="1" vertex="1">
          <mxGeometry x="2131" y="1950.75" width="90" height="40" as="geometry" />
        </mxCell>
        <mxCell id="5pANUjkfFs7lt7HWfWe9-361" value="&lt;h1 style=&quot;font-size: 22px;&quot;&gt;action&lt;/h1&gt;" style="text;html=1;strokeColor=none;fillColor=none;spacing=5;spacingTop=-20;whiteSpace=wrap;overflow=hidden;rounded=0;dashed=1;fontSize=22;strokeWidth=3;" parent="1" vertex="1">
          <mxGeometry x="2131" y="1980.75" width="90" height="40" as="geometry" />
        </mxCell>
        <mxCell id="5pANUjkfFs7lt7HWfWe9-362" value="&lt;h1 style=&quot;font-size: 22px;&quot;&gt;action&lt;/h1&gt;" style="text;html=1;strokeColor=none;fillColor=none;spacing=5;spacingTop=-20;whiteSpace=wrap;overflow=hidden;rounded=0;dashed=1;fontSize=22;strokeWidth=3;" parent="1" vertex="1">
          <mxGeometry x="2131" y="2008.25" width="90" height="40" as="geometry" />
        </mxCell>
        <mxCell id="5pANUjkfFs7lt7HWfWe9-363" value="&lt;h1 style=&quot;color: rgb(0, 0, 0); font-family: helvetica; font-style: normal; letter-spacing: normal; text-align: left; text-indent: 0px; text-transform: none; word-spacing: 0px; background-color: rgb(248, 249, 250); font-size: 22px;&quot;&gt;+&lt;/h1&gt;" style="text;whiteSpace=wrap;html=1;fontSize=22;strokeWidth=3;" parent="1" vertex="1">
          <mxGeometry x="2161" y="1903.25" width="30" height="55" as="geometry" />
        </mxCell>
        <mxCell id="5pANUjkfFs7lt7HWfWe9-364" value="&lt;blockquote&gt;缓存&lt;/blockquote&gt;" style="rounded=0;whiteSpace=wrap;html=1;strokeColor=#000000;strokeWidth=3;fontSize=21;fontColor=#000000;" parent="1" vertex="1">
          <mxGeometry x="1992" y="1824" width="73" height="246" as="geometry" />
        </mxCell>
        <mxCell id="5pANUjkfFs7lt7HWfWe9-366" value="" style="rounded=1;whiteSpace=wrap;html=1;strokeColor=#000000;strokeWidth=3;fontSize=21;fontColor=#000000;" parent="1" vertex="1">
          <mxGeometry x="1672" y="1640" width="573" height="87" as="geometry" />
        </mxCell>
        <mxCell id="5pANUjkfFs7lt7HWfWe9-367" value="&lt;blockquote&gt;输出&lt;/blockquote&gt;" style="rounded=0;whiteSpace=wrap;html=1;strokeColor=#000000;strokeWidth=3;fontSize=21;fontColor=#000000;" parent="1" vertex="1">
          <mxGeometry x="2409" y="1860" width="53" height="156" as="geometry" />
        </mxCell>
        <mxCell id="5pANUjkfFs7lt7HWfWe9-368" value="" style="endArrow=classic;html=1;shadow=0;strokeColor=#000000;strokeWidth=3;fontSize=21;fontColor=#000000;exitX=1;exitY=0.5;exitDx=0;exitDy=0;entryX=0;entryY=0.5;entryDx=0;entryDy=0;" parent="1" source="5pANUjkfFs7lt7HWfWe9-339" target="5pANUjkfFs7lt7HWfWe9-341" edge="1">
          <mxGeometry width="50" height="50" relative="1" as="geometry">
            <mxPoint x="1927" y="1903" as="sourcePoint" />
            <mxPoint x="1977" y="1853" as="targetPoint" />
          </mxGeometry>
        </mxCell>
        <mxCell id="5pANUjkfFs7lt7HWfWe9-370" value="" style="endArrow=classic;html=1;shadow=0;strokeColor=#000000;strokeWidth=3;fontSize=21;fontColor=#000000;exitX=1;exitY=0.5;exitDx=0;exitDy=0;entryX=0;entryY=0.5;entryDx=0;entryDy=0;" parent="1" edge="1">
          <mxGeometry width="50" height="50" relative="1" as="geometry">
            <mxPoint x="1785" y="1938.8" as="sourcePoint" />
            <mxPoint x="1834" y="1938.8" as="targetPoint" />
          </mxGeometry>
        </mxCell>
        <mxCell id="5pANUjkfFs7lt7HWfWe9-371" value="" style="endArrow=classic;html=1;shadow=0;strokeColor=#000000;strokeWidth=3;fontSize=21;fontColor=#000000;exitX=1;exitY=0.5;exitDx=0;exitDy=0;entryX=0;entryY=0.5;entryDx=0;entryDy=0;" parent="1" edge="1">
          <mxGeometry width="50" height="50" relative="1" as="geometry">
            <mxPoint x="1943" y="1940.05" as="sourcePoint" />
            <mxPoint x="1992" y="1940.05" as="targetPoint" />
          </mxGeometry>
        </mxCell>
        <mxCell id="5pANUjkfFs7lt7HWfWe9-372" value="" style="endArrow=classic;html=1;shadow=0;strokeColor=#000000;strokeWidth=3;fontSize=21;fontColor=#000000;exitX=1;exitY=0.5;exitDx=0;exitDy=0;entryX=0;entryY=0.5;entryDx=0;entryDy=0;" parent="1" edge="1">
          <mxGeometry width="50" height="50" relative="1" as="geometry">
            <mxPoint x="2064.9999999999995" y="1938.5800000000002" as="sourcePoint" />
            <mxPoint x="2114" y="1938.5800000000002" as="targetPoint" />
          </mxGeometry>
        </mxCell>
        <mxCell id="5pANUjkfFs7lt7HWfWe9-373" value="" style="endArrow=classic;html=1;shadow=0;strokeColor=#000000;strokeWidth=3;fontSize=21;fontColor=#000000;exitX=1;exitY=0.5;exitDx=0;exitDy=0;entryX=0;entryY=0.5;entryDx=0;entryDy=0;" parent="1" edge="1">
          <mxGeometry width="50" height="50" relative="1" as="geometry">
            <mxPoint x="2236.9999999999995" y="1941.58" as="sourcePoint" />
            <mxPoint x="2286.0000000000005" y="1941.58" as="targetPoint" />
          </mxGeometry>
        </mxCell>
        <mxCell id="5pANUjkfFs7lt7HWfWe9-374" value="" style="endArrow=classic;html=1;shadow=0;strokeColor=#000000;strokeWidth=3;fontSize=21;fontColor=#000000;exitX=1;exitY=0.5;exitDx=0;exitDy=0;entryX=0;entryY=0.5;entryDx=0;entryDy=0;" parent="1" edge="1">
          <mxGeometry width="50" height="50" relative="1" as="geometry">
            <mxPoint x="2357.9999999999995" y="1941.58" as="sourcePoint" />
            <mxPoint x="2407.0000000000005" y="1941.58" as="targetPoint" />
          </mxGeometry>
        </mxCell>
        <mxCell id="5pANUjkfFs7lt7HWfWe9-375" value="解析流程" style="rounded=0;whiteSpace=wrap;html=1;strokeColor=#000000;strokeWidth=3;fontSize=21;fontColor=#000000;" parent="1" vertex="1">
          <mxGeometry x="1688.5" y="1653.5" width="120" height="60" as="geometry" />
        </mxCell>
        <mxCell id="5pANUjkfFs7lt7HWfWe9-376" value="&lt;p&gt;&lt;font data-font-src=&quot;http://db.onlinewebfonts.com/t/2ecbfe1d9bfc191c6f15c0ccc23cbd43.woff&quot;&gt;&lt;b&gt;可编程交换机&lt;/b&gt;&lt;/font&gt;&lt;/p&gt;" style="text;html=1;strokeColor=none;fillColor=none;align=center;verticalAlign=middle;whiteSpace=wrap;rounded=0;fontSize=21;fontColor=#000000;strokeWidth=3;" parent="1" vertex="1">
          <mxGeometry x="1600" y="1788" width="166" height="20" as="geometry" />
        </mxCell>
        <mxCell id="5pANUjkfFs7lt7HWfWe9-377" value="" style="endArrow=classic;html=1;shadow=0;strokeColor=#000000;strokeWidth=3;fontSize=21;fontColor=#000000;exitX=0.5;exitY=1;exitDx=0;exitDy=0;entryX=0.5;entryY=0;entryDx=0;entryDy=0;" parent="1" source="5pANUjkfFs7lt7HWfWe9-375" target="5pANUjkfFs7lt7HWfWe9-341" edge="1">
          <mxGeometry width="50" height="50" relative="1" as="geometry">
            <mxPoint x="2115" y="1860" as="sourcePoint" />
            <mxPoint x="2165" y="1810" as="targetPoint" />
          </mxGeometry>
        </mxCell>
        <mxCell id="5pANUjkfFs7lt7HWfWe9-378" value="控制层面程序" style="rounded=0;whiteSpace=wrap;html=1;strokeColor=#000000;strokeWidth=3;fontSize=21;fontColor=#000000;" parent="1" vertex="1">
          <mxGeometry x="1823" y="1653.5" width="140" height="60" as="geometry" />
        </mxCell>
        <mxCell id="5pANUjkfFs7lt7HWfWe9-379" value="表配置" style="rounded=0;whiteSpace=wrap;html=1;strokeColor=#000000;strokeWidth=3;fontSize=21;fontColor=#000000;" parent="1" vertex="1">
          <mxGeometry x="1987" y="1655" width="112" height="60" as="geometry" />
        </mxCell>
        <mxCell id="5pANUjkfFs7lt7HWfWe9-380" value="动作集合" style="rounded=0;whiteSpace=wrap;html=1;strokeColor=#000000;strokeWidth=3;fontSize=21;fontColor=#000000;" parent="1" vertex="1">
          <mxGeometry x="2122" y="1653.5" width="105" height="60" as="geometry" />
        </mxCell>
        <mxCell id="5pANUjkfFs7lt7HWfWe9-381" value="" style="endArrow=classic;html=1;shadow=0;strokeColor=#000000;strokeWidth=3;fontSize=21;fontColor=#000000;" parent="1" edge="1">
          <mxGeometry width="50" height="50" relative="1" as="geometry">
            <mxPoint x="1885" y="1749" as="sourcePoint" />
            <mxPoint x="1885" y="1795" as="targetPoint" />
          </mxGeometry>
        </mxCell>
        <mxCell id="5pANUjkfFs7lt7HWfWe9-383" value="" style="endArrow=classic;html=1;shadow=0;strokeColor=#000000;strokeWidth=3;fontSize=21;fontColor=#000000;" parent="1" edge="1">
          <mxGeometry width="50" height="50" relative="1" as="geometry">
            <mxPoint x="2167.69" y="1750" as="sourcePoint" />
            <mxPoint x="2168" y="1796" as="targetPoint" />
          </mxGeometry>
        </mxCell>
        <mxCell id="5pANUjkfFs7lt7HWfWe9-384" value="" style="endArrow=none;html=1;shadow=0;strokeColor=#000000;strokeWidth=3;fontSize=21;fontColor=#000000;" parent="1" edge="1">
          <mxGeometry width="50" height="50" relative="1" as="geometry">
            <mxPoint x="2168" y="1750" as="sourcePoint" />
            <mxPoint x="1886" y="1750" as="targetPoint" />
          </mxGeometry>
        </mxCell>
        <mxCell id="5pANUjkfFs7lt7HWfWe9-385" value="" style="endArrow=none;html=1;shadow=0;strokeColor=#000000;strokeWidth=3;fontSize=21;fontColor=#000000;exitX=0.558;exitY=1.008;exitDx=0;exitDy=0;exitPerimeter=0;" parent="1" source="5pANUjkfFs7lt7HWfWe9-378" edge="1">
          <mxGeometry width="50" height="50" relative="1" as="geometry">
            <mxPoint x="1835" y="1845" as="sourcePoint" />
            <mxPoint x="1901" y="1751" as="targetPoint" />
          </mxGeometry>
        </mxCell>
        <mxCell id="5pANUjkfFs7lt7HWfWe9-387" value="" style="endArrow=none;html=1;shadow=0;strokeColor=#000000;strokeWidth=3;fontSize=21;fontColor=#000000;exitX=0.558;exitY=1.008;exitDx=0;exitDy=0;exitPerimeter=0;" parent="1" edge="1">
          <mxGeometry width="50" height="50" relative="1" as="geometry">
            <mxPoint x="2042.9500000000003" y="1713.4899999999998" as="sourcePoint" />
            <mxPoint x="2042.83" y="1750.51" as="targetPoint" />
          </mxGeometry>
        </mxCell>
        <mxCell id="5pANUjkfFs7lt7HWfWe9-388" value="" style="endArrow=none;html=1;shadow=0;strokeColor=#000000;strokeWidth=3;fontSize=21;fontColor=#000000;exitX=0.558;exitY=1.008;exitDx=0;exitDy=0;exitPerimeter=0;" parent="1" edge="1">
          <mxGeometry width="50" height="50" relative="1" as="geometry">
            <mxPoint x="2150.1200000000003" y="1711.9899999999998" as="sourcePoint" />
            <mxPoint x="2150" y="1749.01" as="targetPoint" />
          </mxGeometry>
        </mxCell>
        <mxCell id="9kbKliZHpG8G8QEbtNhc-1" value="" style="rounded=0;whiteSpace=wrap;html=1;strokeColor=#000000;strokeWidth=2;fontSize=22;fontColor=#000000;" parent="1" vertex="1">
          <mxGeometry x="557.44" y="1339" width="173.5" height="316" as="geometry" />
        </mxCell>
        <mxCell id="9kbKliZHpG8G8QEbtNhc-2" value="&lt;font style=&quot;font-size: 22px;&quot;&gt;&lt;b style=&quot;font-size: 22px;&quot;&gt;流过滤器1&lt;/b&gt;&lt;/font&gt;" style="text;html=1;strokeColor=none;fillColor=none;align=center;verticalAlign=middle;whiteSpace=wrap;rounded=0;fontSize=22;fontColor=#000000;" parent="1" vertex="1">
          <mxGeometry x="567.19" y="1348" width="157" height="20" as="geometry" />
        </mxCell>
        <mxCell id="9kbKliZHpG8G8QEbtNhc-3" value="&lt;font style=&quot;font-size: 22px&quot;&gt;stream_handle 5&lt;br style=&quot;font-size: 22px&quot;&gt;priority 5&lt;br style=&quot;font-size: 22px&quot;&gt;&lt;/font&gt;" style="text;html=1;strokeColor=none;fillColor=none;align=center;verticalAlign=middle;whiteSpace=wrap;rounded=0;fontSize=22;fontColor=#000000;" parent="1" vertex="1">
          <mxGeometry x="561.94" y="1404" width="166" height="20" as="geometry" />
        </mxCell>
        <mxCell id="9kbKliZHpG8G8QEbtNhc-4" value="&lt;font style=&quot;font-size: 22px&quot;&gt;流门控ID 1&lt;br style=&quot;font-size: 22px&quot;&gt;整形器ID 1&lt;br style=&quot;font-size: 22px&quot;&gt;&lt;/font&gt;" style="text;html=1;strokeColor=none;fillColor=none;align=center;verticalAlign=middle;whiteSpace=wrap;rounded=0;fontSize=22;fontColor=#000000;" parent="1" vertex="1">
          <mxGeometry x="564.19" y="1483" width="157" height="20" as="geometry" />
        </mxCell>
        <mxCell id="9kbKliZHpG8G8QEbtNhc-5" value="" style="endArrow=none;html=1;shadow=0;strokeColor=#000000;strokeWidth=2;fontSize=22;fontColor=#000000;exitX=-0.004;exitY=0.696;exitDx=0;exitDy=0;exitPerimeter=0;entryX=1;entryY=0.696;entryDx=0;entryDy=0;entryPerimeter=0;" parent="1" source="9kbKliZHpG8G8QEbtNhc-1" target="9kbKliZHpG8G8QEbtNhc-1" edge="1">
          <mxGeometry width="50" height="50" relative="1" as="geometry">
            <mxPoint x="557.6035000000002" y="1558.0049999999999" as="sourcePoint" />
            <mxPoint x="721.9390000000001" y="1558.0049999999999" as="targetPoint" />
          </mxGeometry>
        </mxCell>
        <mxCell id="9kbKliZHpG8G8QEbtNhc-6" value="&lt;font style=&quot;font-size: 22px&quot;&gt;服务数据单元过滤器&lt;br style=&quot;font-size: 22px&quot;&gt;&lt;/font&gt;" style="text;html=1;strokeColor=none;fillColor=none;align=center;verticalAlign=middle;whiteSpace=wrap;rounded=0;fontSize=22;fontColor=#000000;" parent="1" vertex="1">
          <mxGeometry x="559.56" y="1579" width="171.75" height="20" as="geometry" />
        </mxCell>
        <mxCell id="9kbKliZHpG8G8QEbtNhc-7" value="&lt;font style=&quot;font-size: 22px;&quot;&gt;丢弃&lt;br style=&quot;font-size: 22px;&quot;&gt;&lt;/font&gt;" style="text;html=1;strokeColor=none;fillColor=none;align=center;verticalAlign=middle;whiteSpace=wrap;rounded=0;fontSize=22;fontColor=#000000;" parent="1" vertex="1">
          <mxGeometry x="565.19" y="1626" width="157" height="20" as="geometry" />
        </mxCell>
        <mxCell id="9kbKliZHpG8G8QEbtNhc-8" value="" style="endArrow=none;html=1;shadow=0;strokeColor=#000000;strokeWidth=2;fontSize=22;fontColor=#000000;exitX=0.003;exitY=0.445;exitDx=0;exitDy=0;exitPerimeter=0;entryX=1.002;entryY=0.445;entryDx=0;entryDy=0;entryPerimeter=0;dashed=1;" parent="1" edge="1">
          <mxGeometry width="50" height="50" relative="1" as="geometry">
            <mxPoint x="562.0235" y="1617.995" as="sourcePoint" />
            <mxPoint x="726.3590000000002" y="1617.995" as="targetPoint" />
          </mxGeometry>
        </mxCell>
        <mxCell id="9kbKliZHpG8G8QEbtNhc-9" value="" style="endArrow=none;html=1;shadow=0;strokeColor=#000000;strokeWidth=2;fontSize=22;fontColor=#000000;exitX=-0.004;exitY=0.598;exitDx=0;exitDy=0;exitPerimeter=0;entryX=0.995;entryY=0.597;entryDx=0;entryDy=0;entryPerimeter=0;" parent="1" source="9kbKliZHpG8G8QEbtNhc-1" target="9kbKliZHpG8G8QEbtNhc-1" edge="1">
          <mxGeometry width="50" height="50" relative="1" as="geometry">
            <mxPoint x="560.4835" y="1528.0049999999999" as="sourcePoint" />
            <mxPoint x="724.94" y="1528" as="targetPoint" />
          </mxGeometry>
        </mxCell>
        <mxCell id="9kbKliZHpG8G8QEbtNhc-10" value="" style="endArrow=none;html=1;shadow=0;strokeColor=#000000;strokeWidth=2;fontSize=22;fontColor=#000000;exitX=0.003;exitY=0.445;exitDx=0;exitDy=0;exitPerimeter=0;entryX=0.993;entryY=0.373;entryDx=0;entryDy=0;entryPerimeter=0;dashed=1;" parent="1" target="9kbKliZHpG8G8QEbtNhc-1" edge="1">
          <mxGeometry width="50" height="50" relative="1" as="geometry">
            <mxPoint x="560.4835" y="1457.005" as="sourcePoint" />
            <mxPoint x="724.819" y="1457.005" as="targetPoint" />
          </mxGeometry>
        </mxCell>
        <mxCell id="9kbKliZHpG8G8QEbtNhc-11" value="" style="endArrow=none;html=1;shadow=0;strokeColor=#000000;strokeWidth=2;fontSize=22;fontColor=#000000;exitX=0.003;exitY=0.445;exitDx=0;exitDy=0;exitPerimeter=0;entryX=0.999;entryY=0.117;entryDx=0;entryDy=0;entryPerimeter=0;" parent="1" target="9kbKliZHpG8G8QEbtNhc-1" edge="1">
          <mxGeometry width="50" height="50" relative="1" as="geometry">
            <mxPoint x="557.4435000000001" y="1376.005" as="sourcePoint" />
            <mxPoint x="721.779" y="1376.0049999999999" as="targetPoint" />
          </mxGeometry>
        </mxCell>
        <mxCell id="9kbKliZHpG8G8QEbtNhc-12" value="" style="endArrow=none;html=1;shadow=0;strokeColor=#000000;strokeWidth=2;fontSize=22;fontColor=#000000;" parent="1" edge="1">
          <mxGeometry width="50" height="50" relative="1" as="geometry">
            <mxPoint x="643.95" y="1558" as="sourcePoint" />
            <mxPoint x="643.95" y="1528" as="targetPoint" />
          </mxGeometry>
        </mxCell>
        <mxCell id="9kbKliZHpG8G8QEbtNhc-13" value="" style="rounded=0;whiteSpace=wrap;html=1;strokeColor=#000000;strokeWidth=2;fontSize=22;fontColor=#000000;" parent="1" vertex="1">
          <mxGeometry x="779.49" y="1339" width="173.5" height="316" as="geometry" />
        </mxCell>
        <mxCell id="9kbKliZHpG8G8QEbtNhc-14" value="&lt;font style=&quot;font-size: 22px;&quot;&gt;&lt;b style=&quot;font-size: 22px;&quot;&gt;流过滤器1&lt;/b&gt;&lt;/font&gt;" style="text;html=1;strokeColor=none;fillColor=none;align=center;verticalAlign=middle;whiteSpace=wrap;rounded=0;fontSize=22;fontColor=#000000;" parent="1" vertex="1">
          <mxGeometry x="789.24" y="1348" width="157" height="20" as="geometry" />
        </mxCell>
        <mxCell id="9kbKliZHpG8G8QEbtNhc-15" value="&lt;font style=&quot;font-size: 22px&quot;&gt;stream_handle 10&lt;br style=&quot;font-size: 22px&quot;&gt;priority 7&lt;br style=&quot;font-size: 22px&quot;&gt;&lt;/font&gt;" style="text;html=1;strokeColor=none;fillColor=none;align=center;verticalAlign=middle;whiteSpace=wrap;rounded=0;fontSize=22;fontColor=#000000;" parent="1" vertex="1">
          <mxGeometry x="783.99" y="1404" width="166" height="20" as="geometry" />
        </mxCell>
        <mxCell id="9kbKliZHpG8G8QEbtNhc-16" value="&lt;font style=&quot;font-size: 22px&quot;&gt;流门控ID 3&lt;br style=&quot;font-size: 22px&quot;&gt;整形器ID 5&lt;br style=&quot;font-size: 22px&quot;&gt;&lt;/font&gt;" style="text;html=1;strokeColor=none;fillColor=none;align=center;verticalAlign=middle;whiteSpace=wrap;rounded=0;fontSize=22;fontColor=#000000;" parent="1" vertex="1">
          <mxGeometry x="786.24" y="1483" width="157" height="20" as="geometry" />
        </mxCell>
        <mxCell id="9kbKliZHpG8G8QEbtNhc-17" value="" style="endArrow=none;html=1;shadow=0;strokeColor=#000000;strokeWidth=2;fontSize=22;fontColor=#000000;exitX=-0.004;exitY=0.696;exitDx=0;exitDy=0;exitPerimeter=0;entryX=1;entryY=0.696;entryDx=0;entryDy=0;entryPerimeter=0;" parent="1" source="9kbKliZHpG8G8QEbtNhc-13" target="9kbKliZHpG8G8QEbtNhc-13" edge="1">
          <mxGeometry width="50" height="50" relative="1" as="geometry">
            <mxPoint x="779.6535000000001" y="1558.0049999999999" as="sourcePoint" />
            <mxPoint x="943.989" y="1558.0049999999999" as="targetPoint" />
          </mxGeometry>
        </mxCell>
        <mxCell id="9kbKliZHpG8G8QEbtNhc-18" value="&lt;font style=&quot;font-size: 22px&quot;&gt;服务数据单元过滤器&lt;br style=&quot;font-size: 22px&quot;&gt;&lt;/font&gt;" style="text;html=1;strokeColor=none;fillColor=none;align=center;verticalAlign=middle;whiteSpace=wrap;rounded=0;fontSize=22;fontColor=#000000;" parent="1" vertex="1">
          <mxGeometry x="781.6099999999999" y="1579" width="171.75" height="20" as="geometry" />
        </mxCell>
        <mxCell id="9kbKliZHpG8G8QEbtNhc-19" value="&lt;font style=&quot;font-size: 22px;&quot;&gt;丢弃&lt;br style=&quot;font-size: 22px;&quot;&gt;&lt;/font&gt;" style="text;html=1;strokeColor=none;fillColor=none;align=center;verticalAlign=middle;whiteSpace=wrap;rounded=0;fontSize=22;fontColor=#000000;" parent="1" vertex="1">
          <mxGeometry x="787.24" y="1626" width="157" height="20" as="geometry" />
        </mxCell>
        <mxCell id="9kbKliZHpG8G8QEbtNhc-20" value="" style="endArrow=none;html=1;shadow=0;strokeColor=#000000;strokeWidth=2;fontSize=22;fontColor=#000000;exitX=0.003;exitY=0.445;exitDx=0;exitDy=0;exitPerimeter=0;entryX=1.002;entryY=0.445;entryDx=0;entryDy=0;entryPerimeter=0;dashed=1;" parent="1" edge="1">
          <mxGeometry width="50" height="50" relative="1" as="geometry">
            <mxPoint x="784.0735" y="1617.995" as="sourcePoint" />
            <mxPoint x="948.4090000000001" y="1617.995" as="targetPoint" />
          </mxGeometry>
        </mxCell>
        <mxCell id="9kbKliZHpG8G8QEbtNhc-21" value="" style="endArrow=none;html=1;shadow=0;strokeColor=#000000;strokeWidth=2;fontSize=22;fontColor=#000000;exitX=-0.004;exitY=0.598;exitDx=0;exitDy=0;exitPerimeter=0;entryX=0.995;entryY=0.597;entryDx=0;entryDy=0;entryPerimeter=0;" parent="1" source="9kbKliZHpG8G8QEbtNhc-13" target="9kbKliZHpG8G8QEbtNhc-13" edge="1">
          <mxGeometry width="50" height="50" relative="1" as="geometry">
            <mxPoint x="782.5335" y="1528.0049999999999" as="sourcePoint" />
            <mxPoint x="946.99" y="1528" as="targetPoint" />
          </mxGeometry>
        </mxCell>
        <mxCell id="9kbKliZHpG8G8QEbtNhc-22" value="" style="endArrow=none;html=1;shadow=0;strokeColor=#000000;strokeWidth=2;fontSize=22;fontColor=#000000;exitX=0.003;exitY=0.445;exitDx=0;exitDy=0;exitPerimeter=0;entryX=0.993;entryY=0.373;entryDx=0;entryDy=0;entryPerimeter=0;dashed=1;" parent="1" target="9kbKliZHpG8G8QEbtNhc-13" edge="1">
          <mxGeometry width="50" height="50" relative="1" as="geometry">
            <mxPoint x="782.5335" y="1457.005" as="sourcePoint" />
            <mxPoint x="946.8689999999999" y="1457.005" as="targetPoint" />
          </mxGeometry>
        </mxCell>
        <mxCell id="9kbKliZHpG8G8QEbtNhc-23" value="" style="endArrow=none;html=1;shadow=0;strokeColor=#000000;strokeWidth=2;fontSize=22;fontColor=#000000;exitX=0.003;exitY=0.445;exitDx=0;exitDy=0;exitPerimeter=0;entryX=0.999;entryY=0.117;entryDx=0;entryDy=0;entryPerimeter=0;" parent="1" target="9kbKliZHpG8G8QEbtNhc-13" edge="1">
          <mxGeometry width="50" height="50" relative="1" as="geometry">
            <mxPoint x="779.4935" y="1376.005" as="sourcePoint" />
            <mxPoint x="943.829" y="1376.0049999999999" as="targetPoint" />
          </mxGeometry>
        </mxCell>
        <mxCell id="9kbKliZHpG8G8QEbtNhc-24" value="" style="endArrow=none;html=1;shadow=0;strokeColor=#000000;strokeWidth=2;fontSize=22;fontColor=#000000;" parent="1" edge="1">
          <mxGeometry width="50" height="50" relative="1" as="geometry">
            <mxPoint x="866" y="1558" as="sourcePoint" />
            <mxPoint x="866" y="1528" as="targetPoint" />
          </mxGeometry>
        </mxCell>
        <mxCell id="9kbKliZHpG8G8QEbtNhc-25" value="" style="rounded=0;whiteSpace=wrap;html=1;strokeColor=#000000;strokeWidth=2;fontSize=22;fontColor=#000000;" parent="1" vertex="1">
          <mxGeometry x="992.58" y="1339" width="173.5" height="316" as="geometry" />
        </mxCell>
        <mxCell id="9kbKliZHpG8G8QEbtNhc-26" value="&lt;font style=&quot;font-size: 22px;&quot;&gt;&lt;b style=&quot;font-size: 22px;&quot;&gt;流过滤器1&lt;/b&gt;&lt;/font&gt;" style="text;html=1;strokeColor=none;fillColor=none;align=center;verticalAlign=middle;whiteSpace=wrap;rounded=0;fontSize=22;fontColor=#000000;" parent="1" vertex="1">
          <mxGeometry x="1002.33" y="1348" width="157" height="20" as="geometry" />
        </mxCell>
        <mxCell id="9kbKliZHpG8G8QEbtNhc-27" value="&lt;font style=&quot;font-size: 22px&quot;&gt;stream_handle 13&lt;br style=&quot;font-size: 22px&quot;&gt;priority 0&lt;br style=&quot;font-size: 22px&quot;&gt;&lt;/font&gt;" style="text;html=1;strokeColor=none;fillColor=none;align=center;verticalAlign=middle;whiteSpace=wrap;rounded=0;fontSize=22;fontColor=#000000;" parent="1" vertex="1">
          <mxGeometry x="997.08" y="1404" width="166" height="20" as="geometry" />
        </mxCell>
        <mxCell id="9kbKliZHpG8G8QEbtNhc-28" value="&lt;font style=&quot;font-size: 22px&quot;&gt;流门控ID 7&lt;br style=&quot;font-size: 22px&quot;&gt;整形器ID 9&lt;br style=&quot;font-size: 22px&quot;&gt;&lt;/font&gt;" style="text;html=1;strokeColor=none;fillColor=none;align=center;verticalAlign=middle;whiteSpace=wrap;rounded=0;fontSize=22;fontColor=#000000;" parent="1" vertex="1">
          <mxGeometry x="999.33" y="1483" width="157" height="20" as="geometry" />
        </mxCell>
        <mxCell id="9kbKliZHpG8G8QEbtNhc-29" value="" style="endArrow=none;html=1;shadow=0;strokeColor=#000000;strokeWidth=2;fontSize=22;fontColor=#000000;exitX=-0.004;exitY=0.696;exitDx=0;exitDy=0;exitPerimeter=0;entryX=1;entryY=0.696;entryDx=0;entryDy=0;entryPerimeter=0;" parent="1" source="9kbKliZHpG8G8QEbtNhc-25" target="9kbKliZHpG8G8QEbtNhc-25" edge="1">
          <mxGeometry width="50" height="50" relative="1" as="geometry">
            <mxPoint x="992.7435000000002" y="1558.0049999999999" as="sourcePoint" />
            <mxPoint x="1157.0790000000002" y="1558.0049999999999" as="targetPoint" />
          </mxGeometry>
        </mxCell>
        <mxCell id="9kbKliZHpG8G8QEbtNhc-30" value="&lt;font style=&quot;font-size: 22px&quot;&gt;服务数据单元过滤器&lt;br style=&quot;font-size: 22px&quot;&gt;&lt;/font&gt;" style="text;html=1;strokeColor=none;fillColor=none;align=center;verticalAlign=middle;whiteSpace=wrap;rounded=0;fontSize=22;fontColor=#000000;" parent="1" vertex="1">
          <mxGeometry x="994.6999999999999" y="1579" width="171.75" height="20" as="geometry" />
        </mxCell>
        <mxCell id="9kbKliZHpG8G8QEbtNhc-31" value="&lt;font style=&quot;font-size: 22px;&quot;&gt;丢弃&lt;br style=&quot;font-size: 22px;&quot;&gt;&lt;/font&gt;" style="text;html=1;strokeColor=none;fillColor=none;align=center;verticalAlign=middle;whiteSpace=wrap;rounded=0;fontSize=22;fontColor=#000000;" parent="1" vertex="1">
          <mxGeometry x="1000.33" y="1626" width="157" height="20" as="geometry" />
        </mxCell>
        <mxCell id="9kbKliZHpG8G8QEbtNhc-32" value="" style="endArrow=none;html=1;shadow=0;strokeColor=#000000;strokeWidth=2;fontSize=22;fontColor=#000000;exitX=0.003;exitY=0.445;exitDx=0;exitDy=0;exitPerimeter=0;entryX=1.002;entryY=0.445;entryDx=0;entryDy=0;entryPerimeter=0;dashed=1;" parent="1" edge="1">
          <mxGeometry width="50" height="50" relative="1" as="geometry">
            <mxPoint x="997.1635" y="1617.995" as="sourcePoint" />
            <mxPoint x="1161.4990000000003" y="1617.995" as="targetPoint" />
          </mxGeometry>
        </mxCell>
        <mxCell id="9kbKliZHpG8G8QEbtNhc-33" value="" style="endArrow=none;html=1;shadow=0;strokeColor=#000000;strokeWidth=2;fontSize=22;fontColor=#000000;exitX=-0.004;exitY=0.598;exitDx=0;exitDy=0;exitPerimeter=0;entryX=0.995;entryY=0.597;entryDx=0;entryDy=0;entryPerimeter=0;" parent="1" source="9kbKliZHpG8G8QEbtNhc-25" target="9kbKliZHpG8G8QEbtNhc-25" edge="1">
          <mxGeometry width="50" height="50" relative="1" as="geometry">
            <mxPoint x="995.6235" y="1528.0049999999999" as="sourcePoint" />
            <mxPoint x="1160.08" y="1528" as="targetPoint" />
          </mxGeometry>
        </mxCell>
        <mxCell id="9kbKliZHpG8G8QEbtNhc-34" value="" style="endArrow=none;html=1;shadow=0;strokeColor=#000000;strokeWidth=2;fontSize=22;fontColor=#000000;exitX=0.003;exitY=0.445;exitDx=0;exitDy=0;exitPerimeter=0;entryX=0.993;entryY=0.373;entryDx=0;entryDy=0;entryPerimeter=0;dashed=1;" parent="1" target="9kbKliZHpG8G8QEbtNhc-25" edge="1">
          <mxGeometry width="50" height="50" relative="1" as="geometry">
            <mxPoint x="995.6235" y="1457.005" as="sourcePoint" />
            <mxPoint x="1159.9589999999998" y="1457.005" as="targetPoint" />
          </mxGeometry>
        </mxCell>
        <mxCell id="9kbKliZHpG8G8QEbtNhc-35" value="" style="endArrow=none;html=1;shadow=0;strokeColor=#000000;strokeWidth=2;fontSize=22;fontColor=#000000;exitX=0.003;exitY=0.445;exitDx=0;exitDy=0;exitPerimeter=0;entryX=0.999;entryY=0.117;entryDx=0;entryDy=0;entryPerimeter=0;" parent="1" target="9kbKliZHpG8G8QEbtNhc-25" edge="1">
          <mxGeometry width="50" height="50" relative="1" as="geometry">
            <mxPoint x="992.5835000000001" y="1376.005" as="sourcePoint" />
            <mxPoint x="1156.9189999999999" y="1376.0049999999999" as="targetPoint" />
          </mxGeometry>
        </mxCell>
        <mxCell id="9kbKliZHpG8G8QEbtNhc-36" value="" style="endArrow=none;html=1;shadow=0;strokeColor=#000000;strokeWidth=2;fontSize=22;fontColor=#000000;" parent="1" edge="1">
          <mxGeometry width="50" height="50" relative="1" as="geometry">
            <mxPoint x="1079.0900000000001" y="1558" as="sourcePoint" />
            <mxPoint x="1079.0900000000001" y="1528" as="targetPoint" />
          </mxGeometry>
        </mxCell>
        <mxCell id="9kbKliZHpG8G8QEbtNhc-37" value="&lt;font style=&quot;font-size: 37px&quot;&gt;&lt;b&gt;...&lt;/b&gt;&lt;/font&gt;" style="text;html=1;strokeColor=none;fillColor=none;align=center;verticalAlign=middle;whiteSpace=wrap;rounded=0;fontSize=22;fontColor=#000000;" parent="1" vertex="1">
          <mxGeometry x="1208" y="1700" width="40" height="78" as="geometry" />
        </mxCell>
        <mxCell id="9kbKliZHpG8G8QEbtNhc-38" value="&lt;font style=&quot;font-size: 37px&quot;&gt;&lt;b&gt;...&lt;/b&gt;&lt;/font&gt;" style="text;html=1;strokeColor=none;fillColor=none;align=center;verticalAlign=middle;whiteSpace=wrap;rounded=0;fontSize=22;fontColor=#000000;" parent="1" vertex="1">
          <mxGeometry x="1208" y="1942.75" width="40" height="78" as="geometry" />
        </mxCell>
        <mxCell id="9kbKliZHpG8G8QEbtNhc-39" value="&lt;font style=&quot;font-size: 37px&quot;&gt;&lt;b&gt;...&lt;/b&gt;&lt;/font&gt;" style="text;html=1;strokeColor=none;fillColor=none;align=center;verticalAlign=middle;whiteSpace=wrap;rounded=0;fontSize=22;fontColor=#000000;" parent="1" vertex="1">
          <mxGeometry x="1208" y="2201" width="40" height="78" as="geometry" />
        </mxCell>
      </root>
    </mxGraphModel>
  </diagram>
</mxfile>
